EBGaramondVF-Display_Regular.ufo
<glyph name="exclam" format="1">
  <advance width="247"/>
  <unicode hex="0021"/>
  <outline>
    <contour>
      <point x="122" y="205" type="curve" smooth="yes"/>
      <point x="123" y="205"/>
      <point x="125" y="207"/>
      <point x="125" y="210" type="curve" smooth="yes"/>
      <point x="151" y="357"/>
      <point x="167" y="529"/>
      <point x="167" y="597" type="curve" smooth="yes"/>
      <point x="167" y="624"/>
      <point x="150" y="649"/>
      <point x="124" y="649" type="curve" smooth="yes"/>
      <point x="99" y="649"/>
      <point x="80" y="624"/>
      <point x="80" y="597" type="curve" smooth="yes"/>
      <point x="80" y="529"/>
      <point x="93" y="358"/>
      <point x="119" y="210" type="curve" smooth="yes"/>
      <point x="119" y="206"/>
      <point x="120" y="205"/>
    </contour>
    <contour>
      <point x="124" y="-14" type="curve" smooth="yes"/>
      <point x="155" y="-14"/>
      <point x="181" y="12"/>
      <point x="181" y="43" type="curve" smooth="yes"/>
      <point x="181" y="75"/>
      <point x="155" y="101"/>
      <point x="124" y="101" type="curve" smooth="yes"/>
      <point x="92" y="101"/>
      <point x="66" y="75"/>
      <point x="66" y="43" type="curve" smooth="yes"/>
      <point x="66" y="12"/>
      <point x="92" y="-14"/>
    </contour>
  </outline>
</glyph>
<glyph name="numbersign" format="1">
  <advance width="459"/>
  <unicode hex="0023"/>
  <outline>
    <contour>
      <point x="65" y="-79" type="curve" smooth="yes"/>
      <point x="69" y="-79"/>
      <point x="71" y="-77"/>
      <point x="73" y="-70" type="curve" smooth="yes"/>
      <point x="117" y="117" type="line"/>
      <point x="260" y="123" type="line"/>
      <point x="216" y="-57" type="line"/>
      <point x="215" y="-64" type="line" smooth="yes"/>
      <point x="215" y="-67"/>
      <point x="216" y="-68"/>
      <point x="218" y="-68" type="curve" smooth="yes"/>
      <point x="222" y="-68"/>
      <point x="226" y="-66"/>
      <point x="226" y="-60" type="curve" smooth="yes"/>
      <point x="271" y="125" type="line"/>
      <point x="340" y="128" type="line" smooth="yes"/>
      <point x="361" y="129"/>
      <point x="369" y="163"/>
      <point x="369" y="173" type="curve" smooth="yes"/>
      <point x="369" y="180"/>
      <point x="363" y="184"/>
      <point x="357" y="184" type="curve"/>
      <point x="285" y="181" type="line"/>
      <point x="319" y="323" type="line"/>
      <point x="386" y="326" type="line" smooth="yes"/>
      <point x="407" y="327"/>
      <point x="415" y="362"/>
      <point x="415" y="372" type="curve" smooth="yes"/>
      <point x="415" y="378"/>
      <point x="409" y="382"/>
      <point x="402" y="382" type="curve"/>
      <point x="333" y="379" type="line"/>
      <point x="375" y="558" type="line"/>
      <point x="376" y="561"/>
      <point x="376" y="563"/>
      <point x="376" y="565" type="curve" smooth="yes"/>
      <point x="376" y="568"/>
      <point x="374" y="570"/>
      <point x="371" y="570" type="curve" smooth="yes"/>
      <point x="368" y="570"/>
      <point x="366" y="569"/>
      <point x="364" y="559" type="curve" smooth="yes"/>
      <point x="321" y="377" type="line"/>
      <point x="179" y="371" type="line"/>
      <point x="219" y="542" type="line"/>
      <point x="220" y="547"/>
      <point x="221" y="551"/>
      <point x="221" y="554" type="curve" smooth="yes"/>
      <point x="221" y="557"/>
      <point x="220" y="559"/>
      <point x="216" y="559" type="curve" smooth="yes"/>
      <point x="214" y="559"/>
      <point x="212" y="556"/>
      <point x="210" y="548" type="curve" smooth="yes"/>
      <point x="167" y="369" type="line"/>
      <point x="85" y="366" type="line" smooth="yes"/>
      <point x="66" y="365"/>
      <point x="63" y="331"/>
      <point x="63" y="321" type="curve" smooth="yes"/>
      <point x="63" y="314"/>
      <point x="70" y="310"/>
      <point x="76" y="310" type="curve"/>
      <point x="153" y="313" type="line"/>
      <point x="119" y="171" type="line"/>
      <point x="40" y="168" type="line" smooth="yes"/>
      <point x="20" y="168"/>
      <point x="17" y="133"/>
      <point x="17" y="124" type="curve" smooth="yes"/>
      <point x="17" y="117"/>
      <point x="24" y="112"/>
      <point x="31" y="112" type="curve"/>
      <point x="106" y="115" type="line"/>
      <point x="63" y="-64" type="line"/>
      <point x="61" y="-75" type="line" smooth="yes"/>
      <point x="61" y="-78"/>
      <point x="62" y="-79"/>
    </contour>
    <contour>
      <point x="131" y="174" type="line"/>
      <point x="165" y="315" type="line"/>
      <point x="307" y="321" type="line"/>
      <point x="274" y="179" type="line"/>
    </contour>
  </outline>
</glyph>
<glyph name="dollar" format="1">
  <advance width="430"/>
  <unicode hex="0024"/>
  <outline>
    <contour>
      <point x="172" y="-81" type="curve" smooth="yes"/>
      <point x="174" y="-81"/>
      <point x="177" y="-78"/>
      <point x="178" y="-71" type="curve" smooth="yes"/>
      <point x="185" y="3" type="line" smooth="yes"/>
      <point x="185" y="8"/>
      <point x="189" y="10"/>
      <point x="194" y="10" type="curve" smooth="yes"/>
      <point x="302" y="10"/>
      <point x="388" y="81"/>
      <point x="388" y="174" type="curve" smooth="yes"/>
      <point x="388" y="255"/>
      <point x="334" y="295"/>
      <point x="245" y="343" type="curve"/>
      <point x="229" y="351"/>
      <point x="231" y="351"/>
      <point x="232" y="359" type="curve" smooth="yes"/>
      <point x="257" y="568" type="line"/>
      <point x="257" y="570"/>
      <point x="259" y="572"/>
      <point x="262" y="572" type="curve" smooth="yes"/>
      <point x="299" y="575"/>
      <point x="331" y="516"/>
      <point x="351" y="460" type="curve" smooth="yes"/>
      <point x="352" y="455"/>
      <point x="361" y="447"/>
      <point x="371" y="447" type="curve" smooth="yes"/>
      <point x="377" y="447"/>
      <point x="381" y="451"/>
      <point x="381" y="458" type="curve" smooth="yes"/>
      <point x="381" y="485"/>
      <point x="370" y="519"/>
      <point x="363" y="543" type="curve" smooth="yes"/>
      <point x="360" y="551"/>
      <point x="353" y="560"/>
      <point x="343" y="563" type="curve" smooth="yes"/>
      <point x="329" y="569"/>
      <point x="295" y="583"/>
      <point x="262" y="583" type="curve" smooth="yes"/>
      <point x="260" y="583"/>
      <point x="260" y="586"/>
      <point x="260" y="589" type="curve" smooth="yes"/>
      <point x="260" y="598"/>
      <point x="265" y="643"/>
      <point x="265" y="649" type="curve"/>
      <point x="265" y="656"/>
      <point x="264" y="658"/>
      <point x="261" y="658" type="curve" smooth="yes"/>
      <point x="257" y="658"/>
      <point x="256" y="657"/>
      <point x="255" y="645" type="curve" smooth="yes"/>
      <point x="251" y="590" type="line" smooth="yes"/>
      <point x="251" y="587"/>
      <point x="250" y="584"/>
      <point x="248" y="584" type="curve" smooth="yes"/>
      <point x="115" y="585"/>
      <point x="55" y="510"/>
      <point x="55" y="432" type="curve" smooth="yes"/>
      <point x="55" y="363"/>
      <point x="132" y="310"/>
      <point x="196" y="275" type="curve" smooth="yes"/>
      <point x="207" y="269"/>
      <point x="208" y="264"/>
      <point x="207" y="259" type="curve" smooth="yes"/>
      <point x="179" y="24" type="line" smooth="yes"/>
      <point x="179" y="20"/>
      <point x="174" y="20"/>
      <point x="170" y="22" type="curve"/>
      <point x="135" y="37"/>
      <point x="82" y="65"/>
      <point x="62" y="162" type="curve" smooth="yes"/>
      <point x="60" y="168"/>
      <point x="58" y="173"/>
      <point x="52" y="173" type="curve" smooth="yes"/>
      <point x="45" y="173"/>
      <point x="39" y="168"/>
      <point x="39" y="160" type="curve"/>
      <point x="41" y="137"/>
      <point x="41" y="91"/>
      <point x="48" y="68" type="curve" smooth="yes"/>
      <point x="50" y="61"/>
      <point x="56" y="56"/>
      <point x="60" y="51" type="curve" smooth="yes"/>
      <point x="86" y="32"/>
      <point x="132" y="11"/>
      <point x="168" y="11" type="curve" smooth="yes"/>
      <point x="171" y="11"/>
      <point x="176" y="8"/>
      <point x="175" y="3" type="curve"/>
      <point x="167" y="-71" type="line" smooth="yes"/>
      <point x="166" y="-75"/>
      <point x="169" y="-82"/>
    </contour>
    <contour>
      <point x="198" y="17" type="curve"/>
      <point x="191" y="17"/>
      <point x="189" y="19"/>
      <point x="189" y="26" type="curve"/>
      <point x="217" y="256" type="line" smooth="yes"/>
      <point x="217" y="260"/>
      <point x="220" y="263"/>
      <point x="224" y="261" type="curve"/>
      <point x="281" y="233"/>
      <point x="314" y="198"/>
      <point x="314" y="144" type="curve" smooth="yes"/>
      <point x="314" y="85"/>
      <point x="268" y="16"/>
    </contour>
    <contour>
      <point x="212" y="360" type="curve"/>
      <point x="163" y="382"/>
      <point x="128" y="422"/>
      <point x="128" y="457" type="curve" smooth="yes"/>
      <point x="128" y="522"/>
      <point x="176" y="576"/>
      <point x="241" y="575" type="curve"/>
      <point x="247" y="575"/>
      <point x="249" y="573"/>
      <point x="249" y="568" type="curve"/>
      <point x="222" y="361" type="line"/>
      <point x="222" y="359"/>
      <point x="220" y="356"/>
    </contour>
  </outline>
</glyph>
<glyph name="percent" format="1">
  <advance width="650"/>
  <unicode hex="0025"/>
  <outline>
    <contour>
      <point x="84" y="-59" type="curve" smooth="yes"/>
      <point x="587" y="609" type="line"/>
      <point x="588" y="611"/>
      <point x="589" y="611"/>
      <point x="589" y="612" type="curve" smooth="yes"/>
      <point x="589" y="612"/>
      <point x="586" y="614"/>
      <point x="585" y="614" type="curve" smooth="yes"/>
      <point x="580" y="614"/>
      <point x="577" y="613"/>
      <point x="574" y="611" type="curve" smooth="yes"/>
      <point x="70" y="-58" type="line"/>
      <point x="70" y="-58" type="line" smooth="yes"/>
      <point x="70" y="-61"/>
      <point x="72" y="-62"/>
      <point x="74" y="-62" type="curve" smooth="yes"/>
      <point x="77" y="-62"/>
      <point x="81" y="-62"/>
    </contour>
    <contour>
      <point x="281" y="414" type="curve" smooth="yes"/>
      <point x="281" y="489"/>
      <point x="238" y="568"/>
      <point x="159" y="568" type="curve" smooth="yes"/>
      <point x="72" y="568"/>
      <point x="18" y="486"/>
      <point x="18" y="403" type="curve" smooth="yes"/>
      <point x="18" y="325"/>
      <point x="60" y="241"/>
      <point x="142" y="241" type="curve" smooth="yes"/>
      <point x="232" y="241"/>
      <point x="281" y="329"/>
    </contour>
    <contour>
      <point x="74" y="415" type="curve" smooth="yes"/>
      <point x="74" y="479"/>
      <point x="86" y="558"/>
      <point x="148" y="558" type="curve" smooth="yes"/>
      <point x="215" y="558"/>
      <point x="224" y="471"/>
      <point x="224" y="403" type="curve" smooth="yes"/>
      <point x="224" y="335"/>
      <point x="218" y="248"/>
      <point x="152" y="248" type="curve" smooth="yes"/>
      <point x="81" y="248"/>
      <point x="74" y="342"/>
    </contour>
    <contour>
      <point x="632" y="153" type="curve" smooth="yes"/>
      <point x="632" y="228"/>
      <point x="589" y="307"/>
      <point x="510" y="307" type="curve" smooth="yes"/>
      <point x="424" y="307"/>
      <point x="369" y="225"/>
      <point x="369" y="142" type="curve" smooth="yes"/>
      <point x="369" y="64"/>
      <point x="411" y="-20"/>
      <point x="493" y="-20" type="curve" smooth="yes"/>
      <point x="583" y="-20"/>
      <point x="632" y="68"/>
    </contour>
    <contour>
      <point x="426" y="154" type="curve" smooth="yes"/>
      <point x="426" y="218"/>
      <point x="438" y="297"/>
      <point x="500" y="297" type="curve" smooth="yes"/>
      <point x="567" y="297"/>
      <point x="576" y="210"/>
      <point x="576" y="142" type="curve" smooth="yes"/>
      <point x="576" y="74"/>
      <point x="570" y="-13"/>
      <point x="504" y="-13" type="curve" smooth="yes"/>
      <point x="433" y="-13"/>
      <point x="426" y="81"/>
    </contour>
  </outline>
</glyph>
<glyph name="ampersand" format="1">
  <advance width="741"/>
  <unicode hex="0026"/>
  <outline>
    <contour>
      <point x="208" y="-15" type="curve" smooth="yes"/>
      <point x="299" y="-15"/>
      <point x="339" y="55"/>
      <point x="400" y="123" type="curve"/>
      <point x="406" y="129" type="line"/>
      <point x="423" y="101" type="line" smooth="yes"/>
      <point x="471" y="21"/>
      <point x="499" y="-14"/>
      <point x="572" y="-14" type="curve" smooth="yes"/>
      <point x="626" y="-14"/>
      <point x="696" y="42"/>
      <point x="696" y="59" type="curve" smooth="yes"/>
      <point x="696" y="61"/>
      <point x="698" y="63"/>
      <point x="693" y="63" type="curve" smooth="yes"/>
      <point x="690" y="63"/>
      <point x="685" y="58"/>
      <point x="676" y="52" type="curve" smooth="yes"/>
      <point x="664" y="43"/>
      <point x="641" y="31"/>
      <point x="603" y="31" type="curve" smooth="yes"/>
      <point x="553" y="31"/>
      <point x="505" y="79"/>
      <point x="466" y="138" type="curve" smooth="yes"/>
      <point x="444" y="170" type="line"/>
      <point x="444" y="170"/>
      <point x="613" y="355"/>
      <point x="625" y="366" type="curve" smooth="yes"/>
      <point x="641" y="380"/>
      <point x="667" y="395"/>
      <point x="697" y="397" type="curve"/>
      <point x="706" y="397"/>
      <point x="722" y="402"/>
      <point x="722" y="406" type="curve" smooth="yes"/>
      <point x="722" y="408"/>
      <point x="713" y="411"/>
      <point x="710" y="411" type="curve" smooth="yes"/>
      <point x="686" y="411"/>
      <point x="645" y="403"/>
      <point x="615" y="403" type="curve" smooth="yes"/>
      <point x="601" y="403"/>
      <point x="551" y="406"/>
      <point x="545" y="406" type="curve" smooth="yes"/>
      <point x="541" y="406"/>
      <point x="524" y="405"/>
      <point x="524" y="400" type="curve" smooth="yes"/>
      <point x="524" y="396"/>
      <point x="532" y="396"/>
      <point x="545" y="393" type="curve"/>
      <point x="585" y="389"/>
      <point x="587" y="381"/>
      <point x="587" y="372" type="curve" smooth="yes"/>
      <point x="587" y="349"/>
      <point x="504" y="246"/>
      <point x="458" y="195" type="curve" smooth="yes"/>
      <point x="440" y="176" type="line"/>
      <point x="423" y="197" type="line" smooth="yes"/>
      <point x="379" y="252"/>
      <point x="347" y="289"/>
      <point x="297" y="344" type="curve" smooth="yes"/>
      <point x="284" y="358" type="line"/>
      <point x="298" y="363" type="line" smooth="yes"/>
      <point x="361" y="387"/>
      <point x="399" y="426"/>
      <point x="398" y="478" type="curve" smooth="yes"/>
      <point x="398" y="530"/>
      <point x="359" y="599"/>
      <point x="276" y="599" type="curve" smooth="yes"/>
      <point x="209" y="599"/>
      <point x="142" y="554"/>
      <point x="142" y="484" type="curve" smooth="yes"/>
      <point x="142" y="425"/>
      <point x="187" y="389"/>
      <point x="206" y="367" type="curve"/>
      <point x="226" y="345" type="line"/>
      <point x="206" y="336" type="line" smooth="yes"/>
      <point x="104" y="290"/>
      <point x="37" y="236"/>
      <point x="37" y="127" type="curve" smooth="yes"/>
      <point x="37" y="45"/>
      <point x="107" y="-15"/>
    </contour>
    <contour>
      <point x="232" y="46" type="curve" smooth="yes"/>
      <point x="159" y="46"/>
      <point x="109" y="96"/>
      <point x="109" y="158" type="curve" smooth="yes"/>
      <point x="109" y="217"/>
      <point x="117" y="293"/>
      <point x="210" y="329" type="curve" smooth="yes"/>
      <point x="231" y="337" type="line"/>
      <point x="247" y="320" type="line" smooth="yes"/>
      <point x="304" y="259"/>
      <point x="349" y="206"/>
      <point x="386" y="157" type="curve" smooth="yes"/>
      <point x="402" y="136" type="line"/>
      <point x="393" y="127" type="line" smooth="yes"/>
      <point x="342" y="74"/>
      <point x="296" y="46"/>
    </contour>
    <contour>
      <point x="281" y="364" type="line"/>
      <point x="265" y="384" type="line" smooth="yes"/>
      <point x="215" y="447"/>
      <point x="196" y="470"/>
      <point x="196" y="516" type="curve" smooth="yes"/>
      <point x="196" y="559"/>
      <point x="232" y="592"/>
      <point x="271" y="592" type="curve" smooth="yes"/>
      <point x="316" y="592"/>
      <point x="338" y="540"/>
      <point x="338" y="486" type="curve" smooth="yes"/>
      <point x="338" y="441"/>
      <point x="330" y="391"/>
      <point x="294" y="371" type="curve" smooth="yes"/>
    </contour>
  </outline>
</glyph>
<glyph name="quotesingle" format="1">
  <advance width="196"/>
  <unicode hex="0027"/>
  <outline>
    <contour>
      <point x="85" y="469" type="curve" smooth="yes"/>
      <point x="102" y="508"/>
      <point x="134" y="592"/>
      <point x="134" y="644" type="curve" smooth="yes"/>
      <point x="134" y="661"/>
      <point x="130" y="676"/>
      <point x="121" y="676" type="curve" smooth="yes"/>
      <point x="106" y="676"/>
      <point x="95" y="668"/>
      <point x="80" y="655" type="curve"/>
      <point x="72" y="648"/>
      <point x="62" y="634"/>
      <point x="62" y="620" type="curve" smooth="yes"/>
      <point x="62" y="586"/>
      <point x="72" y="545"/>
      <point x="72" y="524" type="curve" smooth="yes"/>
      <point x="72" y="506"/>
      <point x="74" y="482"/>
      <point x="74" y="467" type="curve"/>
      <point x="74" y="458"/>
      <point x="74" y="444"/>
      <point x="76" y="444" type="curve" smooth="yes"/>
      <point x="77" y="444"/>
      <point x="80" y="458"/>
    </contour>
  </outline>
</glyph>
<glyph name="parenleft" format="1">
  <advance width="309"/>
  <unicode hex="0028"/>
  <outline>
    <contour>
      <point x="244" y="-208" type="curve" smooth="yes"/>
      <point x="246" y="-208"/>
      <point x="249" y="-207"/>
      <point x="249" y="-203" type="curve" smooth="yes"/>
      <point x="249" y="-202"/>
      <point x="245" y="-198"/>
      <point x="241" y="-193" type="curve" smooth="yes"/>
      <point x="131" y="-52"/>
      <point x="119" y="132"/>
      <point x="119" y="271" type="curve" smooth="yes"/>
      <point x="119" y="409"/>
      <point x="130" y="569"/>
      <point x="241" y="689" type="curve" smooth="yes"/>
      <point x="245" y="694"/>
      <point x="249" y="698"/>
      <point x="249" y="699" type="curve" smooth="yes"/>
      <point x="249" y="703"/>
      <point x="246" y="704"/>
      <point x="244" y="704" type="curve" smooth="yes"/>
      <point x="239" y="704"/>
      <point x="238" y="702"/>
      <point x="233" y="697" type="curve" smooth="yes"/>
      <point x="164" y="632"/>
      <point x="41" y="424"/>
      <point x="41" y="269" type="curve" smooth="yes"/>
      <point x="41" y="99"/>
      <point x="164" y="-130"/>
      <point x="233" y="-201" type="curve" smooth="yes"/>
      <point x="238" y="-206"/>
      <point x="239" y="-208"/>
    </contour>
  </outline>
</glyph>
<glyph name="asterisk" format="1">
  <advance width="333"/>
  <unicode hex="002A"/>
  <outline>
    <contour>
      <point x="180" y="372" type="curve" smooth="yes"/>
      <point x="185" y="372"/>
      <point x="186" y="382"/>
      <point x="187" y="393" type="curve"/>
      <point x="190" y="432"/>
      <point x="190" y="460"/>
      <point x="190" y="489" type="curve"/>
      <point x="217" y="480"/>
      <point x="246" y="470"/>
      <point x="278" y="462" type="curve" smooth="yes"/>
      <point x="285" y="460"/>
      <point x="300" y="459"/>
      <point x="300" y="463" type="curve" smooth="yes"/>
      <point x="300" y="464"/>
      <point x="295" y="471"/>
      <point x="290" y="474" type="curve"/>
      <point x="252" y="497"/>
      <point x="233" y="507"/>
      <point x="207" y="525" type="curve"/>
      <point x="273" y="589" type="line"/>
      <point x="279" y="594"/>
      <point x="281" y="600"/>
      <point x="281" y="605" type="curve" smooth="yes"/>
      <point x="281" y="608"/>
      <point x="282" y="610"/>
      <point x="278" y="610" type="curve" smooth="yes"/>
      <point x="274" y="610"/>
      <point x="268" y="607"/>
      <point x="264" y="605" type="curve"/>
      <point x="232" y="588"/>
      <point x="206" y="575"/>
      <point x="183" y="558" type="curve"/>
      <point x="160" y="653" type="line" smooth="yes"/>
      <point x="158" y="662"/>
      <point x="158" y="670"/>
      <point x="154" y="670" type="curve" smooth="yes"/>
      <point x="150" y="670"/>
      <point x="149" y="660"/>
      <point x="148" y="649" type="curve" smooth="yes"/>
      <point x="144" y="614"/>
      <point x="145" y="582"/>
      <point x="144" y="553" type="curve"/>
      <point x="118" y="565"/>
      <point x="88" y="575"/>
      <point x="57" y="583" type="curve"/>
      <point x="49" y="585"/>
      <point x="34" y="588"/>
      <point x="34" y="581" type="curve" smooth="yes"/>
      <point x="34" y="574"/>
      <point x="43" y="570"/>
      <point x="50" y="566" type="curve"/>
      <point x="79" y="547"/>
      <point x="104" y="532"/>
      <point x="128" y="517" type="curve"/>
      <point x="61" y="454" type="line"/>
      <point x="57" y="450"/>
      <point x="54" y="446"/>
      <point x="54" y="440" type="curve" smooth="yes"/>
      <point x="54" y="437"/>
      <point x="53" y="434"/>
      <point x="61" y="434" type="curve" smooth="yes"/>
      <point x="65" y="434"/>
      <point x="67" y="436"/>
      <point x="71" y="438" type="curve"/>
      <point x="102" y="456"/>
      <point x="125" y="470"/>
      <point x="152" y="484" type="curve"/>
      <point x="174" y="389" type="line" smooth="yes"/>
      <point x="176" y="380"/>
      <point x="177" y="372"/>
    </contour>
  </outline>
</glyph>
<glyph name="plus" format="1">
  <advance width="577"/>
  <unicode hex="002B"/>
  <outline>
    <contour>
      <point x="284" y="-1" type="curve" smooth="yes"/>
      <point x="285" y="-1"/>
      <point x="292" y="0"/>
      <point x="292" y="8" type="curve" smooth="yes"/>
      <point x="292" y="234" type="line" smooth="yes"/>
      <point x="292" y="235"/>
      <point x="292" y="235"/>
      <point x="292" y="235" type="curve" smooth="yes"/>
      <point x="494" y="235" type="line" smooth="yes"/>
      <point x="513" y="235"/>
      <point x="525" y="240"/>
      <point x="525" y="243" type="curve" smooth="yes"/>
      <point x="525" y="244"/>
      <point x="519" y="245"/>
      <point x="512" y="245" type="curve" smooth="yes"/>
      <point x="292" y="245" type="line" smooth="yes"/>
      <point x="292" y="245"/>
      <point x="292" y="245"/>
      <point x="292" y="246" type="curve" smooth="yes"/>
      <point x="292" y="459" type="line" smooth="yes"/>
      <point x="292" y="461"/>
      <point x="290" y="463"/>
      <point x="289" y="463" type="curve" smooth="yes"/>
      <point x="288" y="463"/>
      <point x="282" y="460"/>
      <point x="282" y="452" type="curve" smooth="yes"/>
      <point x="282" y="246" type="line" smooth="yes"/>
      <point x="282" y="245"/>
      <point x="282" y="245"/>
      <point x="281" y="245" type="curve" smooth="yes"/>
      <point x="76" y="245" type="line" smooth="yes"/>
      <point x="58" y="245"/>
      <point x="52" y="239"/>
      <point x="52" y="237" type="curve" smooth="yes"/>
      <point x="52" y="236"/>
      <point x="59" y="235"/>
      <point x="66" y="235" type="curve" smooth="yes"/>
      <point x="281" y="235" type="line" smooth="yes"/>
      <point x="281" y="235"/>
      <point x="282" y="235"/>
      <point x="282" y="234" type="curve" smooth="yes"/>
      <point x="282" y="4" type="line" smooth="yes"/>
      <point x="282" y="1"/>
      <point x="283" y="-1"/>
    </contour>
  </outline>
</glyph>
<glyph name="comma" format="1">
  <advance width="226"/>
  <unicode hex="002C"/>
  <outline>
    <contour>
      <point x="180" y="18" type="curve" smooth="yes"/>
      <point x="180" y="65"/>
      <point x="143" y="100"/>
      <point x="94" y="100" type="curve" smooth="yes"/>
      <point x="67" y="100"/>
      <point x="42" y="83"/>
      <point x="42" y="57" type="curve" smooth="yes"/>
      <point x="42" y="36"/>
      <point x="59" y="21"/>
      <point x="87" y="13" type="curve" smooth="yes"/>
      <point x="111" y="8"/>
      <point x="137" y="-7"/>
      <point x="137" y="-31" type="curve" smooth="yes"/>
      <point x="137" y="-75"/>
      <point x="79" y="-121"/>
      <point x="35" y="-122" type="curve" smooth="yes"/>
      <point x="26" y="-122"/>
      <point x="22" y="-125"/>
      <point x="22" y="-127" type="curve" smooth="yes"/>
      <point x="22" y="-130"/>
      <point x="28" y="-132"/>
      <point x="40" y="-132" type="curve" smooth="yes"/>
      <point x="91" y="-133"/>
      <point x="180" y="-73"/>
    </contour>
  </outline>
</glyph>
<glyph name="hyphen" format="1">
  <advance width="268"/>
  <unicode hex="002D"/>
  <outline>
    <contour>
      <point x="34" y="253" type="curve"/>
      <point x="96" y="256"/>
      <point x="157" y="260"/>
      <point x="219" y="264" type="curve" smooth="yes"/>
      <point x="235" y="266"/>
      <point x="240" y="271"/>
      <point x="240" y="274" type="curve" smooth="yes"/>
      <point x="240" y="276"/>
      <point x="236" y="276"/>
      <point x="232" y="276" type="curve"/>
      <point x="169" y="271"/>
      <point x="107" y="267"/>
      <point x="44" y="263" type="curve"/>
      <point x="34" y="263"/>
      <point x="28" y="258"/>
      <point x="28" y="253" type="curve" smooth="yes"/>
      <point x="28" y="253"/>
      <point x="29" y="253"/>
    </contour>
  </outline>
</glyph>
<glyph name="zero" format="1">
  <advance width="462"/>
  <unicode hex="0030"/>
  <outline>
    <contour>
      <point x="226" y="-14" type="curve" smooth="yes"/>
      <point x="368" y="-14"/>
      <point x="428" y="152"/>
      <point x="428" y="292" type="curve" smooth="yes"/>
      <point x="428" y="427"/>
      <point x="366" y="582"/>
      <point x="236" y="582" type="curve" smooth="yes"/>
      <point x="94" y="582"/>
      <point x="34" y="420"/>
      <point x="34" y="279" type="curve" smooth="yes"/>
      <point x="34" y="141"/>
      <point x="96" y="-14"/>
    </contour>
    <contour>
      <point x="243" y="-5" type="curve" smooth="yes"/>
      <point x="155" y="-5"/>
      <point x="112" y="149"/>
      <point x="112" y="296" type="curve" smooth="yes"/>
      <point x="112" y="443"/>
      <point x="139" y="572"/>
      <point x="217" y="572" type="curve" smooth="yes"/>
      <point x="305" y="572"/>
      <point x="351" y="422"/>
      <point x="351" y="274" type="curve" smooth="yes"/>
      <point x="351" y="127"/>
      <point x="321" y="-5"/>
    </contour>
  </outline>
</glyph>
<glyph name="one" format="1">
  <advance width="462"/>
  <unicode hex="0031"/>
  <outline>
    <contour>
      <point x="101" y="-3" type="curve" smooth="yes"/>
      <point x="153" y="-3"/>
      <point x="194" y="2"/>
      <point x="246" y="2" type="curve" smooth="yes"/>
      <point x="297" y="2"/>
      <point x="333" y="-3"/>
      <point x="388" y="-3" type="curve" smooth="yes"/>
      <point x="396" y="-3"/>
      <point x="402" y="0"/>
      <point x="402" y="2" type="curve" smooth="yes"/>
      <point x="402" y="3"/>
      <point x="395" y="6"/>
      <point x="385" y="7" type="curve" smooth="yes"/>
      <point x="305" y="13"/>
      <point x="282" y="13"/>
      <point x="282" y="75" type="curve" smooth="yes"/>
      <point x="282" y="510" type="line" smooth="yes"/>
      <point x="282" y="538"/>
      <point x="283" y="561"/>
      <point x="285" y="581" type="curve"/>
      <point x="286" y="586"/>
      <point x="279" y="590"/>
      <point x="274" y="590" type="curve" smooth="yes"/>
      <point x="271" y="590"/>
      <point x="266" y="590"/>
      <point x="253" y="566" type="curve" smooth="yes"/>
      <point x="235" y="531"/>
      <point x="198" y="514"/>
      <point x="125" y="515" type="curve" smooth="yes"/>
      <point x="111" y="515"/>
      <point x="101" y="514"/>
      <point x="101" y="509" type="curve" smooth="yes"/>
      <point x="101" y="504"/>
      <point x="114" y="503"/>
      <point x="126" y="503" type="curve" smooth="yes"/>
      <point x="198" y="503"/>
      <point x="208" y="495"/>
      <point x="208" y="446" type="curve" smooth="yes"/>
      <point x="208" y="78" type="line" smooth="yes"/>
      <point x="208" y="14"/>
      <point x="175" y="11"/>
      <point x="101" y="7" type="curve" smooth="yes"/>
      <point x="93" y="6"/>
      <point x="86" y="3"/>
      <point x="86" y="2" type="curve" smooth="yes"/>
      <point x="86" y="0"/>
      <point x="91" y="-3"/>
    </contour>
  </outline>
</glyph>
<glyph name="two" format="1">
  <advance width="462"/>
  <unicode hex="0032"/>
  <outline>
    <contour>
      <point x="404" y="-3" type="curve" smooth="yes"/>
      <point x="411" y="-3"/>
      <point x="421" y="0"/>
      <point x="425" y="21" type="curve" smooth="yes"/>
      <point x="435" y="71"/>
      <point x="456" y="142"/>
      <point x="456" y="151" type="curve" smooth="yes"/>
      <point x="456" y="156"/>
      <point x="457" y="163"/>
      <point x="453" y="163" type="curve" smooth="yes"/>
      <point x="450" y="163"/>
      <point x="449" y="160"/>
      <point x="447" y="150" type="curve" smooth="yes"/>
      <point x="430" y="83"/>
      <point x="418" y="66"/>
      <point x="356" y="64" type="curve" smooth="yes"/>
      <point x="296" y="62"/>
      <point x="257" y="61"/>
      <point x="220" y="61" type="curve" smooth="yes"/>
      <point x="184" y="61"/>
      <point x="136" y="60"/>
      <point x="115" y="64" type="curve" smooth="yes"/>
      <point x="107" y="65"/>
      <point x="101" y="66"/>
      <point x="101" y="71" type="curve" smooth="yes"/>
      <point x="148" y="115"/>
      <point x="177" y="134"/>
      <point x="221" y="173" type="curve" smooth="yes"/>
      <point x="320" y="261"/>
      <point x="394" y="343"/>
      <point x="394" y="453" type="curve" smooth="yes"/>
      <point x="394" y="518"/>
      <point x="338" y="582"/>
      <point x="241" y="582" type="curve" smooth="yes"/>
      <point x="132" y="582"/>
      <point x="87" y="491"/>
      <point x="65" y="437" type="curve" smooth="yes"/>
      <point x="63" y="434"/>
      <point x="60" y="428"/>
      <point x="63" y="428" type="curve" smooth="yes"/>
      <point x="66" y="428"/>
      <point x="68" y="434"/>
      <point x="71" y="438" type="curve"/>
      <point x="106" y="491"/>
      <point x="153" y="519"/>
      <point x="209" y="519" type="curve" smooth="yes"/>
      <point x="287" y="519"/>
      <point x="318" y="473"/>
      <point x="318" y="409" type="curve" smooth="yes"/>
      <point x="318" y="323"/>
      <point x="274" y="234"/>
      <point x="190" y="159" type="curve" smooth="yes"/>
      <point x="37" y="26" type="line" smooth="yes"/>
      <point x="31" y="20"/>
      <point x="29" y="19"/>
      <point x="29" y="14" type="curve" smooth="yes"/>
      <point x="29" y="8"/>
      <point x="44" y="-2"/>
      <point x="49" y="-2" type="curve" smooth="yes"/>
      <point x="68" y="-2"/>
      <point x="224" y="3"/>
      <point x="273" y="3" type="curve" smooth="yes"/>
      <point x="321" y="3"/>
      <point x="384" y="-3"/>
    </contour>
  </outline>
</glyph>
<glyph name="three" format="1">
  <advance width="462"/>
  <unicode hex="0033"/>
  <outline>
    <contour>
      <point x="158" y="-38" type="curve" smooth="yes"/>
      <point x="289" y="-38"/>
      <point x="423" y="45"/>
      <point x="423" y="184" type="curve" smooth="yes"/>
      <point x="423" y="264"/>
      <point x="351" y="335"/>
      <point x="267" y="335" type="curve" smooth="yes"/>
      <point x="263" y="335"/>
      <point x="263" y="339"/>
      <point x="266" y="340" type="curve"/>
      <point x="344" y="380"/>
      <point x="377" y="431"/>
      <point x="377" y="475" type="curve" smooth="yes"/>
      <point x="377" y="539"/>
      <point x="315" y="582"/>
      <point x="249" y="582" type="curve" smooth="yes"/>
      <point x="127" y="582"/>
      <point x="64" y="488"/>
      <point x="64" y="454" type="curve" smooth="yes"/>
      <point x="64" y="446"/>
      <point x="64" y="442"/>
      <point x="69" y="442" type="curve" smooth="yes"/>
      <point x="76" y="442"/>
      <point x="90" y="528"/>
      <point x="203" y="528" type="curve" smooth="yes"/>
      <point x="266" y="528"/>
      <point x="299" y="491"/>
      <point x="299" y="438" type="curve" smooth="yes"/>
      <point x="299" y="354"/>
      <point x="211" y="310"/>
      <point x="179" y="298" type="curve" smooth="yes"/>
      <point x="167" y="293"/>
      <point x="154" y="287"/>
      <point x="150" y="275" type="curve" smooth="yes"/>
      <point x="149" y="269"/>
      <point x="157" y="268"/>
      <point x="167" y="274" type="curve" smooth="yes"/>
      <point x="186" y="287"/>
      <point x="215" y="292"/>
      <point x="230" y="292" type="curve" smooth="yes"/>
      <point x="305" y="292"/>
      <point x="343" y="216"/>
      <point x="343" y="143" type="curve" smooth="yes"/>
      <point x="343" y="55"/>
      <point x="294" y="-20"/>
      <point x="201" y="-20" type="curve" smooth="yes"/>
      <point x="165" y="-20"/>
      <point x="145" y="6"/>
      <point x="128" y="23" type="curve" smooth="yes"/>
      <point x="116" y="36"/>
      <point x="104" y="48"/>
      <point x="89" y="48" type="curve" smooth="yes"/>
      <point x="74" y="51"/>
      <point x="46" y="18"/>
      <point x="46" y="5" type="curve" smooth="yes"/>
      <point x="46" y="-10"/>
      <point x="112" y="-38"/>
    </contour>
  </outline>
</glyph>
<glyph name="four" format="1">
  <advance width="470"/>
  <unicode hex="0034"/>
  <outline>
    <contour>
      <point x="322" y="2" type="curve" smooth="yes"/>
      <point x="368" y="2"/>
      <point x="377" y="-3"/>
      <point x="433" y="-3" type="curve" smooth="yes"/>
      <point x="440" y="-3"/>
      <point x="447" y="0"/>
      <point x="447" y="2" type="curve" smooth="yes"/>
      <point x="447" y="4"/>
      <point x="437" y="7"/>
      <point x="429" y="7" type="curve" smooth="yes"/>
      <point x="373" y="7"/>
      <point x="362" y="16"/>
      <point x="362" y="45" type="curve" smooth="yes"/>
      <point x="362" y="172" type="line" smooth="yes"/>
      <point x="362" y="173"/>
      <point x="370" y="177"/>
      <point x="375" y="178" type="curve"/>
      <point x="383" y="179"/>
      <point x="394" y="180"/>
      <point x="406" y="180" type="curve" smooth="yes"/>
      <point x="422" y="180"/>
      <point x="440" y="179"/>
      <point x="455" y="179" type="curve" smooth="yes"/>
      <point x="459" y="179"/>
      <point x="476" y="176"/>
      <point x="476" y="192" type="curve" smooth="yes"/>
      <point x="476" y="201"/>
      <point x="471" y="205"/>
      <point x="465" y="205" type="curve"/>
      <point x="443" y="204"/>
      <point x="425" y="203"/>
      <point x="406" y="203" type="curve" smooth="yes"/>
      <point x="394" y="203"/>
      <point x="381" y="203"/>
      <point x="366" y="204" type="curve"/>
      <point x="363" y="204"/>
      <point x="361" y="207"/>
      <point x="361" y="210" type="curve" smooth="yes"/>
      <point x="361" y="333" type="line" smooth="yes"/>
      <point x="361" y="375"/>
      <point x="361" y="397"/>
      <point x="347" y="397" type="curve" smooth="yes"/>
      <point x="339" y="397"/>
      <point x="313" y="395"/>
      <point x="295" y="384" type="curve"/>
      <point x="287" y="380"/>
      <point x="286" y="376"/>
      <point x="286" y="362" type="curve" smooth="yes"/>
      <point x="286" y="213" type="line" smooth="yes"/>
      <point x="286" y="209"/>
      <point x="279" y="205"/>
      <point x="274" y="205" type="curve" smooth="yes"/>
      <point x="55" y="205" type="line" smooth="yes"/>
      <point x="51" y="205"/>
      <point x="53" y="211"/>
      <point x="55" y="214" type="curve" smooth="yes"/>
      <point x="339" y="584" type="line"/>
      <point x="345" y="591"/>
      <point x="343" y="594"/>
      <point x="338" y="594" type="curve" smooth="yes"/>
      <point x="336" y="594" type="line" smooth="yes"/>
      <point x="331" y="594"/>
      <point x="325" y="585"/>
      <point x="316" y="573" type="curve" smooth="yes"/>
      <point x="49" y="219" type="line" smooth="yes"/>
      <point x="35" y="202"/>
      <point x="28" y="193"/>
      <point x="19" y="182" type="curve"/>
      <point x="18" y="181"/>
      <point x="18" y="180"/>
      <point x="18" y="179" type="curve" smooth="yes"/>
      <point x="18" y="175"/>
      <point x="23" y="169"/>
      <point x="28" y="169" type="curve" smooth="yes"/>
      <point x="104" y="169"/>
      <point x="189" y="176"/>
      <point x="271" y="176" type="curve" smooth="yes"/>
      <point x="272" y="176"/>
      <point x="286" y="173"/>
      <point x="286" y="167" type="curve" smooth="yes"/>
      <point x="286" y="45" type="line" smooth="yes"/>
      <point x="286" y="15"/>
      <point x="275" y="7"/>
      <point x="209" y="7" type="curve" smooth="yes"/>
      <point x="201" y="7"/>
      <point x="191" y="5"/>
      <point x="191" y="2" type="curve" smooth="yes"/>
      <point x="191" y="-1"/>
      <point x="202" y="-3"/>
      <point x="209" y="-3" type="curve" smooth="yes"/>
      <point x="262" y="-3"/>
      <point x="272" y="2"/>
    </contour>
  </outline>
</glyph>
<glyph name="five" format="1">
  <advance width="462"/>
  <unicode hex="0035"/>
  <outline>
    <contour>
      <point x="105" y="-38" type="curve" smooth="yes"/>
      <point x="175" y="-38"/>
      <point x="239" y="-21"/>
      <point x="291" y="8" type="curve" smooth="yes"/>
      <point x="362" y="48"/>
      <point x="407" y="110"/>
      <point x="407" y="178" type="curve" smooth="yes"/>
      <point x="407" y="252"/>
      <point x="371" y="298"/>
      <point x="299" y="334" type="curve" smooth="yes"/>
      <point x="254" y="356"/>
      <point x="178" y="378"/>
      <point x="104" y="396" type="curve" smooth="yes"/>
      <point x="93" y="399"/>
      <point x="91" y="405"/>
      <point x="92" y="413" type="curve"/>
      <point x="92" y="428"/>
      <point x="115" y="480"/>
      <point x="132" y="482" type="curve" smooth="yes"/>
      <point x="161" y="487"/>
      <point x="270" y="494"/>
      <point x="321" y="500" type="curve" smooth="yes"/>
      <point x="338" y="502"/>
      <point x="349" y="512"/>
      <point x="357" y="531" type="curve" smooth="yes"/>
      <point x="362" y="542"/>
      <point x="368" y="553"/>
      <point x="374" y="564" type="curve" smooth="yes"/>
      <point x="379" y="573"/>
      <point x="373" y="582"/>
      <point x="363" y="581" type="curve" smooth="yes"/>
      <point x="287" y="575"/>
      <point x="220" y="564"/>
      <point x="161" y="549" type="curve" smooth="yes"/>
      <point x="140" y="544"/>
      <point x="127" y="534"/>
      <point x="121" y="515" type="curve" smooth="yes"/>
      <point x="107" y="475"/>
      <point x="74" y="403"/>
      <point x="74" y="370" type="curve" smooth="yes"/>
      <point x="74" y="353"/>
      <point x="80" y="335"/>
      <point x="97" y="323" type="curve"/>
      <point x="267" y="293"/>
      <point x="333" y="234"/>
      <point x="333" y="159" type="curve" smooth="yes"/>
      <point x="333" y="61"/>
      <point x="296" y="-11"/>
      <point x="104" y="-31" type="curve" smooth="yes"/>
      <point x="88" y="-32"/>
      <point x="69" y="-33"/>
      <point x="69" y="-35" type="curve" smooth="yes"/>
      <point x="69" y="-36"/>
      <point x="90" y="-38"/>
    </contour>
  </outline>
</glyph>
<glyph name="six" format="1">
  <advance width="462"/>
  <unicode hex="0036"/>
  <outline>
    <contour>
      <point x="241" y="-16" type="curve" smooth="yes"/>
      <point x="335" y="-16"/>
      <point x="437" y="59"/>
      <point x="437" y="174" type="curve" smooth="yes"/>
      <point x="437" y="243"/>
      <point x="378" y="291"/>
      <point x="311" y="291" type="curve" smooth="yes"/>
      <point x="287" y="291"/>
      <point x="259" y="284"/>
      <point x="229" y="269" type="curve" smooth="yes"/>
      <point x="216" y="264"/>
      <point x="202" y="255"/>
      <point x="192" y="248" type="curve" smooth="yes"/>
      <point x="183" y="242"/>
      <point x="186" y="233"/>
      <point x="199" y="241" type="curve" smooth="yes"/>
      <point x="221" y="254"/>
      <point x="256" y="268"/>
      <point x="276" y="268" type="curve" smooth="yes"/>
      <point x="327" y="268"/>
      <point x="364" y="206"/>
      <point x="364" y="129" type="curve" smooth="yes"/>
      <point x="364" y="35"/>
      <point x="316" y="-9"/>
      <point x="253" y="-8" type="curve" smooth="yes"/>
      <point x="199" y="-7"/>
      <point x="127" y="51"/>
      <point x="125" y="161" type="curve" smooth="yes"/>
      <point x="123" y="280"/>
      <point x="165" y="404"/>
      <point x="256" y="496" type="curve" smooth="yes"/>
      <point x="297" y="534"/>
      <point x="355" y="560"/>
      <point x="411" y="585" type="curve" smooth="yes"/>
      <point x="418" y="588"/>
      <point x="428" y="589"/>
      <point x="433" y="595" type="curve" smooth="yes"/>
      <point x="434" y="596"/>
      <point x="427" y="601"/>
      <point x="415" y="597" type="curve" smooth="yes"/>
      <point x="352" y="575"/>
      <point x="295" y="551"/>
      <point x="244" y="516" type="curve" smooth="yes"/>
      <point x="116" y="426"/>
      <point x="44" y="309"/>
      <point x="44" y="178" type="curve" smooth="yes"/>
      <point x="44" y="48"/>
      <point x="142" y="-16"/>
    </contour>
  </outline>
</glyph>
<glyph name="seven" format="1">
  <advance width="472"/>
  <unicode hex="0037"/>
  <outline>
    <contour>
      <point x="111" y="-32" type="curve" smooth="yes"/>
      <point x="115" y="-32"/>
      <point x="124" y="-17"/>
      <point x="130" y="-7" type="curve" smooth="yes"/>
      <point x="423" y="495" type="line" smooth="yes"/>
      <point x="433" y="510"/>
      <point x="460" y="547"/>
      <point x="460" y="562" type="curve" smooth="yes"/>
      <point x="460" y="567"/>
      <point x="457" y="574"/>
      <point x="454" y="574" type="curve" smooth="yes"/>
      <point x="436" y="572"/>
      <point x="325" y="569"/>
      <point x="230" y="569" type="curve" smooth="yes"/>
      <point x="184" y="569"/>
      <point x="162" y="570"/>
      <point x="133" y="570" type="curve" smooth="yes"/>
      <point x="92" y="570"/>
      <point x="54" y="579"/>
      <point x="51" y="579" type="curve" smooth="yes"/>
      <point x="48" y="579"/>
      <point x="42" y="577"/>
      <point x="41" y="568" type="curve" smooth="yes"/>
      <point x="38" y="546"/>
      <point x="31" y="498"/>
      <point x="24" y="472" type="curve"/>
      <point x="23" y="468"/>
      <point x="21" y="459"/>
      <point x="21" y="453" type="curve" smooth="yes"/>
      <point x="21" y="446"/>
      <point x="22" y="440"/>
      <point x="24" y="440" type="curve" smooth="yes"/>
      <point x="27" y="440"/>
      <point x="29" y="448"/>
      <point x="32" y="463" type="curve" smooth="yes"/>
      <point x="40" y="499"/>
      <point x="59" y="508"/>
      <point x="79" y="508" type="curve" smooth="yes"/>
      <point x="433" y="508" type="line"/>
      <point x="433" y="530" type="line"/>
      <point x="137" y="30" type="line" smooth="yes"/>
      <point x="128" y="15"/>
      <point x="103" y="-23"/>
      <point x="103" y="-27" type="curve" smooth="yes"/>
      <point x="103" y="-30"/>
      <point x="105" y="-32"/>
    </contour>
  </outline>
</glyph>
<glyph name="eight" format="1">
  <advance width="462"/>
  <unicode hex="0038"/>
  <outline>
    <contour>
      <point x="222" y="-14" type="curve" smooth="yes"/>
      <point x="316" y="-14"/>
      <point x="411" y="55"/>
      <point x="411" y="152" type="curve" smooth="yes"/>
      <point x="411" y="224"/>
      <point x="360" y="269"/>
      <point x="286" y="316" type="curve" smooth="yes"/>
      <point x="276" y="322"/>
      <point x="276" y="325"/>
      <point x="291" y="335" type="curve" smooth="yes"/>
      <point x="311" y="349"/>
      <point x="326" y="355"/>
      <point x="343" y="368" type="curve" smooth="yes"/>
      <point x="367" y="388"/>
      <point x="393" y="415"/>
      <point x="393" y="458" type="curve" smooth="yes"/>
      <point x="393" y="533"/>
      <point x="318" y="582"/>
      <point x="241" y="582" type="curve" smooth="yes"/>
      <point x="155" y="582"/>
      <point x="66" y="525"/>
      <point x="66" y="448" type="curve" smooth="yes"/>
      <point x="66" y="373"/>
      <point x="119" y="331"/>
      <point x="178" y="285" type="curve" smooth="yes"/>
      <point x="186" y="278"/>
      <point x="190" y="277"/>
      <point x="181" y="273" type="curve" smooth="yes"/>
      <point x="132" y="247"/>
      <point x="51" y="211"/>
      <point x="51" y="130" type="curve" smooth="yes"/>
      <point x="51" y="44"/>
      <point x="133" y="-14"/>
    </contour>
    <contour>
      <point x="235" y="-4" type="curve" smooth="yes"/>
      <point x="167" y="-4"/>
      <point x="126" y="65"/>
      <point x="126" y="135" type="curve" smooth="yes"/>
      <point x="126" y="197"/>
      <point x="139" y="230"/>
      <point x="183" y="263" type="curve" smooth="yes"/>
      <point x="188" y="267"/>
      <point x="192" y="269"/>
      <point x="195" y="269" type="curve" smooth="yes"/>
      <point x="201" y="269"/>
      <point x="207" y="265"/>
      <point x="215" y="259" type="curve"/>
      <point x="271" y="220"/>
      <point x="336" y="163"/>
      <point x="336" y="103" type="curve" smooth="yes"/>
      <point x="336" y="45"/>
      <point x="293" y="-4"/>
    </contour>
    <contour>
      <point x="272" y="331" type="curve"/>
      <point x="266" y="327"/>
      <point x="261" y="330"/>
      <point x="255" y="333" type="curve"/>
      <point x="187" y="386"/>
      <point x="138" y="404"/>
      <point x="138" y="478" type="curve" smooth="yes"/>
      <point x="138" y="530"/>
      <point x="191" y="572"/>
      <point x="236" y="572" type="curve" smooth="yes"/>
      <point x="293" y="572"/>
      <point x="321" y="526"/>
      <point x="321" y="471" type="curve" smooth="yes"/>
      <point x="321" y="415"/>
      <point x="314" y="367"/>
    </contour>
  </outline>
</glyph>
<glyph name="less" format="1">
  <advance width="550"/>
  <unicode hex="003C"/>
  <outline>
    <contour>
      <point x="488" y="11" type="line" smooth="yes"/>
      <point x="490" y="10"/>
      <point x="493" y="10"/>
      <point x="493" y="12" type="curve" smooth="yes"/>
      <point x="493" y="15"/>
      <point x="491" y="24"/>
      <point x="488" y="24" type="curve" smooth="yes"/>
      <point x="73" y="234" type="line"/>
      <point x="72" y="234"/>
      <point x="72" y="234"/>
      <point x="73" y="234" type="curve"/>
      <point x="486" y="442" type="line" smooth="yes"/>
      <point x="491" y="445"/>
      <point x="494" y="452"/>
      <point x="494" y="455" type="curve" smooth="yes"/>
      <point x="494" y="456"/>
      <point x="492" y="457"/>
      <point x="491" y="457" type="curve" smooth="yes"/>
      <point x="491" y="457"/>
      <point x="491" y="455"/>
      <point x="490" y="456" type="curve" smooth="yes"/>
      <point x="62" y="243" type="line" smooth="yes"/>
      <point x="57" y="242"/>
      <point x="54" y="234"/>
      <point x="54" y="231" type="curve" smooth="yes"/>
      <point x="54" y="230"/>
      <point x="59" y="228"/>
      <point x="65" y="225" type="curve" smooth="yes"/>
    </contour>
  </outline>
</glyph>
<glyph name="equal" format="1">
  <advance width="554"/>
  <unicode hex="003D"/>
  <outline>
    <contour>
      <point x="63" y="329" type="curve" smooth="yes"/>
      <point x="474" y="329" type="line" smooth="yes"/>
      <point x="493" y="329"/>
      <point x="505" y="334"/>
      <point x="505" y="337" type="curve" smooth="yes"/>
      <point x="505" y="338"/>
      <point x="499" y="339"/>
      <point x="492" y="339" type="curve" smooth="yes"/>
      <point x="73" y="339" type="line" smooth="yes"/>
      <point x="55" y="339"/>
      <point x="49" y="333"/>
      <point x="49" y="331" type="curve" smooth="yes"/>
      <point x="49" y="330"/>
      <point x="56" y="329"/>
    </contour>
    <contour>
      <point x="63" y="158" type="curve" smooth="yes"/>
      <point x="474" y="158" type="line" smooth="yes"/>
      <point x="493" y="158"/>
      <point x="505" y="163"/>
      <point x="505" y="166" type="curve" smooth="yes"/>
      <point x="505" y="167"/>
      <point x="499" y="168"/>
      <point x="492" y="168" type="curve" smooth="yes"/>
      <point x="73" y="168" type="line" smooth="yes"/>
      <point x="55" y="168"/>
      <point x="49" y="162"/>
      <point x="49" y="160" type="curve" smooth="yes"/>
      <point x="49" y="159"/>
      <point x="56" y="158"/>
    </contour>
  </outline>
</glyph>
<glyph name="question" format="1">
  <advance width="370"/>
  <unicode hex="003F"/>
  <outline>
    <contour>
      <point x="130" y="181" type="curve" smooth="yes"/>
      <point x="133" y="181"/>
      <point x="136" y="195"/>
      <point x="138" y="204" type="curve" smooth="yes"/>
      <point x="146" y="238"/>
      <point x="153" y="269"/>
      <point x="181" y="287" type="curve" smooth="yes"/>
      <point x="211" y="307"/>
      <point x="222" y="314"/>
      <point x="263" y="336" type="curve" smooth="yes"/>
      <point x="284" y="348"/>
      <point x="299" y="372"/>
      <point x="299" y="420" type="curve" smooth="yes"/>
      <point x="299" y="470"/>
      <point x="263" y="556"/>
      <point x="208" y="611" type="curve" smooth="yes"/>
      <point x="176" y="644"/>
      <point x="141" y="661"/>
      <point x="108" y="661" type="curve" smooth="yes"/>
      <point x="91" y="661"/>
      <point x="69" y="644"/>
      <point x="69" y="625" type="curve" smooth="yes"/>
      <point x="69" y="598"/>
      <point x="89" y="569"/>
      <point x="110" y="569" type="curve" smooth="yes"/>
      <point x="120" y="569"/>
      <point x="126" y="570"/>
      <point x="133" y="571" type="curve" smooth="yes"/>
      <point x="140" y="572"/>
      <point x="147" y="573"/>
      <point x="156" y="573" type="curve" smooth="yes"/>
      <point x="242" y="572"/>
      <point x="278" y="521"/>
      <point x="278" y="462" type="curve" smooth="yes"/>
      <point x="278" y="433"/>
      <point x="245" y="406"/>
      <point x="208" y="391" type="curve" smooth="yes"/>
      <point x="131" y="351"/>
      <point x="96" y="328"/>
      <point x="96" y="295" type="curve" smooth="yes"/>
      <point x="96" y="251"/>
      <point x="112" y="228"/>
      <point x="118" y="208" type="curve" smooth="yes"/>
      <point x="123" y="192"/>
      <point x="127" y="181"/>
    </contour>
    <contour>
      <point x="148" y="-14" type="curve" smooth="yes"/>
      <point x="181" y="-14"/>
      <point x="208" y="13"/>
      <point x="208" y="46" type="curve" smooth="yes"/>
      <point x="208" y="79"/>
      <point x="181" y="106"/>
      <point x="148" y="106" type="curve" smooth="yes"/>
      <point x="115" y="106"/>
      <point x="88" y="79"/>
      <point x="88" y="46" type="curve" smooth="yes"/>
      <point x="88" y="13"/>
      <point x="115" y="-14"/>
    </contour>
  </outline>
</glyph>
<glyph name="at" format="1">
  <advance width="734"/>
  <unicode hex="0040"/>
  <outline>
    <contour>
      <point x="374" y="-141" type="curve" smooth="yes"/>
      <point x="480" y="-141"/>
      <point x="619" y="-45"/>
      <point x="619" y="-19" type="curve" smooth="yes"/>
      <point x="620" y="-16"/>
      <point x="619" y="-14"/>
      <point x="616" y="-14" type="curve" smooth="yes"/>
      <point x="615" y="-14"/>
      <point x="613" y="-17"/>
      <point x="610" y="-19" type="curve" smooth="yes"/>
      <point x="538" y="-89"/>
      <point x="448" y="-131"/>
      <point x="385" y="-131" type="curve" smooth="yes"/>
      <point x="241" y="-131"/>
      <point x="69" y="-28"/>
      <point x="69" y="197" type="curve" smooth="yes"/>
      <point x="69" y="414"/>
      <point x="221" y="534"/>
      <point x="386" y="534" type="curve" smooth="yes"/>
      <point x="562" y="534"/>
      <point x="655" y="402"/>
      <point x="655" y="255" type="curve" smooth="yes"/>
      <point x="655" y="149"/>
      <point x="593" y="76"/>
      <point x="503" y="76" type="curve" smooth="yes"/>
      <point x="489" y="76"/>
      <point x="485" y="91"/>
      <point x="485" y="107" type="curve" smooth="yes"/>
      <point x="485" y="117"/>
      <point x="487" y="127"/>
      <point x="488" y="136" type="curve"/>
      <point x="510" y="292" type="line" smooth="yes"/>
      <point x="512" y="309"/>
      <point x="523" y="352"/>
      <point x="531" y="378" type="curve"/>
      <point x="534" y="382"/>
      <point x="529" y="382"/>
      <point x="525" y="382" type="curve" smooth="yes"/>
      <point x="522" y="382"/>
      <point x="518" y="362"/>
      <point x="493" y="362" type="curve" smooth="yes"/>
      <point x="489" y="362"/>
      <point x="481" y="367"/>
      <point x="467" y="372" type="curve" smooth="yes"/>
      <point x="455" y="376"/>
      <point x="425" y="381"/>
      <point x="405" y="381" type="curve" smooth="yes"/>
      <point x="301" y="381"/>
      <point x="204" y="298"/>
      <point x="204" y="167" type="curve" smooth="yes"/>
      <point x="204" y="92"/>
      <point x="254" y="50"/>
      <point x="318" y="50" type="curve" smooth="yes"/>
      <point x="388" y="50"/>
      <point x="419" y="90"/>
      <point x="429" y="90" type="curve" smooth="yes"/>
      <point x="439" y="90"/>
      <point x="442" y="50"/>
      <point x="482" y="50" type="curve" smooth="yes"/>
      <point x="587" y="50"/>
      <point x="667" y="126"/>
      <point x="667" y="258" type="curve" smooth="yes"/>
      <point x="667" y="413"/>
      <point x="553" y="544"/>
      <point x="406" y="544" type="curve" smooth="yes"/>
      <point x="219" y="544"/>
      <point x="59" y="424"/>
      <point x="59" y="194" type="curve" smooth="yes"/>
      <point x="59" y="-4"/>
      <point x="199" y="-141"/>
    </contour>
    <contour>
      <point x="351" y="65" type="curve" smooth="yes"/>
      <point x="314" y="65"/>
      <point x="270" y="92"/>
      <point x="271" y="183" type="curve" smooth="yes"/>
      <point x="271" y="306"/>
      <point x="330" y="372"/>
      <point x="385" y="372" type="curve" smooth="yes"/>
      <point x="428" y="372"/>
      <point x="454" y="347"/>
      <point x="454" y="300" type="curve" smooth="yes"/>
      <point x="454" y="295"/>
      <point x="454" y="290"/>
      <point x="453" y="285" type="curve"/>
      <point x="435" y="154" type="line" smooth="yes"/>
      <point x="429" y="115"/>
      <point x="420" y="103"/>
      <point x="409" y="92" type="curve" smooth="yes"/>
      <point x="389" y="75"/>
      <point x="374" y="65"/>
    </contour>
  </outline>
</glyph>
<glyph name="A" format="1">
  <advance width="687"/>
  <unicode hex="0041"/>
  <outline>
    <contour>
      <point x="147" y="-3" type="curve" smooth="yes"/>
      <point x="120" y="-3"/>
      <point x="144" y="-3"/>
      <point x="156" y="-3" type="curve" smooth="yes"/>
      <point x="167" y="-3"/>
      <point x="175" y="-2"/>
      <point x="175" y="1" type="curve" smooth="yes"/>
      <point x="175" y="5"/>
      <point x="165" y="7"/>
      <point x="151" y="10" type="curve" smooth="yes"/>
      <point x="131" y="14"/>
      <point x="113" y="26"/>
      <point x="113" y="51" type="curve" smooth="yes"/>
      <point x="113" y="78"/>
      <point x="176" y="205"/>
      <point x="185" y="228" type="curve" smooth="yes"/>
      <point x="190" y="241"/>
      <point x="196" y="244"/>
      <point x="202" y="244" type="curve" smooth="yes"/>
      <point x="418" y="244" type="line" smooth="yes"/>
      <point x="436" y="244"/>
      <point x="441" y="243"/>
      <point x="444" y="235" type="curve" smooth="yes"/>
      <point x="459" y="190"/>
      <point x="493" y="77"/>
      <point x="493" y="51" type="curve" smooth="yes"/>
      <point x="493" y="29"/>
      <point x="476" y="11"/>
      <point x="433" y="6" type="curve" smooth="yes"/>
      <point x="413" y="4"/>
      <point x="395" y="3"/>
      <point x="395" y="0" type="curve" smooth="yes"/>
      <point x="395" y="-2"/>
      <point x="407" y="-3"/>
      <point x="424" y="-3" type="curve" smooth="yes"/>
      <point x="447" y="-3"/>
      <point x="489" y="-3"/>
      <point x="527" y="-3" type="curve" smooth="yes"/>
      <point x="571" y="-3"/>
      <point x="636" y="-5"/>
      <point x="664" y="-5" type="curve" smooth="yes"/>
      <point x="681" y="-5"/>
      <point x="692" y="-4"/>
      <point x="692" y="-2" type="curve" smooth="yes"/>
      <point x="692" y="1"/>
      <point x="682" y="3"/>
      <point x="666" y="5" type="curve" smooth="yes"/>
      <point x="623" y="9"/>
      <point x="591" y="25"/>
      <point x="561" y="105" type="curve" smooth="yes"/>
      <point x="528" y="193"/>
      <point x="444" y="425"/>
      <point x="381" y="613" type="curve" smooth="yes"/>
      <point x="378" y="621"/>
      <point x="377" y="629"/>
      <point x="375" y="634" type="curve"/>
      <point x="374" y="636"/>
      <point x="371" y="636"/>
      <point x="370" y="635" type="curve"/>
      <point x="366" y="630"/>
      <point x="363" y="611"/>
      <point x="352" y="604" type="curve" smooth="yes"/>
      <point x="341" y="596"/>
      <point x="329" y="593"/>
      <point x="318" y="590" type="curve"/>
      <point x="316" y="570"/>
      <point x="311" y="554"/>
      <point x="304" y="536" type="curve" smooth="yes"/>
      <point x="236" y="364"/>
      <point x="182" y="237"/>
      <point x="112" y="86" type="curve" smooth="yes"/>
      <point x="89" y="36"/>
      <point x="68" y="15"/>
      <point x="32" y="10" type="curve" smooth="yes"/>
      <point x="6" y="7"/>
      <point x="-2" y="4"/>
      <point x="-2" y="0" type="curve" smooth="yes"/>
      <point x="-2" y="-3"/>
      <point x="6" y="-5"/>
      <point x="17" y="-5" type="curve" smooth="yes"/>
      <point x="39" y="-5"/>
      <point x="103" y="-3"/>
    </contour>
    <contour>
      <point x="201" y="259" type="curve" smooth="yes"/>
      <point x="201" y="261"/>
      <point x="202" y="264"/>
      <point x="203" y="267" type="curve"/>
      <point x="317" y="550" type="line" smooth="yes"/>
      <point x="321" y="560"/>
      <point x="323" y="565"/>
      <point x="325" y="565" type="curve" smooth="yes"/>
      <point x="328" y="565"/>
      <point x="330" y="560"/>
      <point x="334" y="549" type="curve" smooth="yes"/>
      <point x="429" y="267" type="line"/>
      <point x="430" y="263"/>
      <point x="431" y="259"/>
      <point x="431" y="257" type="curve" smooth="yes"/>
      <point x="431" y="253"/>
      <point x="427" y="253"/>
      <point x="417" y="253" type="curve" smooth="yes"/>
      <point x="222" y="253" type="line" smooth="yes"/>
      <point x="209" y="253"/>
      <point x="201" y="253"/>
    </contour>
  </outline>
</glyph>
<glyph name="B" format="1">
  <advance width="574"/>
  <unicode hex="0042"/>
  <outline>
    <contour>
      <point x="174" y="0" type="curve" smooth="yes"/>
      <point x="213" y="0"/>
      <point x="249" y="-4"/>
      <point x="267" y="-4" type="curve" smooth="yes"/>
      <point x="341" y="-4"/>
      <point x="392" y="8"/>
      <point x="433" y="27" type="curve" smooth="yes"/>
      <point x="473" y="47"/>
      <point x="534" y="77"/>
      <point x="534" y="179" type="curve" smooth="yes"/>
      <point x="534" y="285"/>
      <point x="445" y="326"/>
      <point x="341" y="328" type="curve" smooth="yes"/>
      <point x="335" y="328"/>
      <point x="336" y="332"/>
      <point x="341" y="333" type="curve" smooth="yes"/>
      <point x="378" y="335"/>
      <point x="418" y="347"/>
      <point x="447" y="368" type="curve" smooth="yes"/>
      <point x="476" y="390"/>
      <point x="494" y="421"/>
      <point x="494" y="467" type="curve" smooth="yes"/>
      <point x="494" y="568"/>
      <point x="420" y="606"/>
      <point x="267" y="606" type="curve" smooth="yes"/>
      <point x="211" y="606"/>
      <point x="196" y="601"/>
      <point x="159" y="601" type="curve" smooth="yes"/>
      <point x="119" y="601"/>
      <point x="110" y="602"/>
      <point x="58" y="602" type="curve" smooth="yes"/>
      <point x="41" y="602"/>
      <point x="29" y="601"/>
      <point x="29" y="600" type="curve" smooth="yes"/>
      <point x="29" y="597"/>
      <point x="39" y="595"/>
      <point x="62" y="595" type="curve" smooth="yes"/>
      <point x="115" y="595"/>
      <point x="128" y="588"/>
      <point x="128" y="550" type="curve" smooth="yes"/>
      <point x="128" y="61" type="line" smooth="yes"/>
      <point x="128" y="15"/>
      <point x="111" y="6"/>
      <point x="52" y="4" type="curve" smooth="yes"/>
      <point x="29" y="3"/>
      <point x="19" y="1"/>
      <point x="19" y="-2" type="curve" smooth="yes"/>
      <point x="19" y="-4"/>
      <point x="31" y="-5"/>
      <point x="47" y="-5" type="curve" smooth="yes"/>
      <point x="103" y="-5"/>
      <point x="123" y="0"/>
    </contour>
    <contour>
      <point x="201" y="80" type="curve" smooth="yes"/>
      <point x="201" y="285" type="line" smooth="yes"/>
      <point x="201" y="301"/>
      <point x="216" y="327"/>
      <point x="258" y="327" type="curve" smooth="yes"/>
      <point x="317" y="327"/>
      <point x="362" y="319"/>
      <point x="392" y="296" type="curve" smooth="yes"/>
      <point x="429" y="270"/>
      <point x="446" y="228"/>
      <point x="446" y="163" type="curve" smooth="yes"/>
      <point x="446" y="71"/>
      <point x="368" y="0"/>
      <point x="280" y="0" type="curve" smooth="yes"/>
      <point x="229" y="0"/>
      <point x="201" y="19"/>
    </contour>
    <contour>
      <point x="201" y="373" type="curve" smooth="yes"/>
      <point x="201" y="547" type="line" smooth="yes"/>
      <point x="201" y="582"/>
      <point x="212" y="599"/>
      <point x="267" y="599" type="curve" smooth="yes"/>
      <point x="390" y="599"/>
      <point x="413" y="520"/>
      <point x="413" y="461" type="curve" smooth="yes"/>
      <point x="413" y="405"/>
      <point x="401" y="373"/>
      <point x="375" y="355" type="curve" smooth="yes"/>
      <point x="348" y="336"/>
      <point x="306" y="334"/>
      <point x="247" y="334" type="curve" smooth="yes"/>
      <point x="231" y="334"/>
      <point x="201" y="337"/>
    </contour>
  </outline>
</glyph>
<glyph name="C" format="1">
  <advance width="688"/>
  <unicode hex="0043"/>
  <outline>
    <contour>
      <point x="392" y="-15" type="curve" smooth="yes"/>
      <point x="455" y="-15"/>
      <point x="529" y="-6"/>
      <point x="577" y="14" type="curve" smooth="yes"/>
      <point x="597" y="21"/>
      <point x="598" y="22"/>
      <point x="608" y="41" type="curve" smooth="yes"/>
      <point x="620" y="70"/>
      <point x="634" y="122"/>
      <point x="634" y="138" type="curve" smooth="yes"/>
      <point x="634" y="159"/>
      <point x="613" y="159"/>
      <point x="606" y="141" type="curve" smooth="yes"/>
      <point x="558" y="35"/>
      <point x="508" y="-4"/>
      <point x="407" y="-4" type="curve" smooth="yes"/>
      <point x="244" y="-4"/>
      <point x="139" y="158"/>
      <point x="139" y="321" type="curve" smooth="yes"/>
      <point x="139" y="466"/>
      <point x="244" y="602"/>
      <point x="400" y="602" type="curve" smooth="yes"/>
      <point x="477" y="602"/>
      <point x="515" y="579"/>
      <point x="543" y="552" type="curve" smooth="yes"/>
      <point x="573" y="523"/>
      <point x="585" y="488"/>
      <point x="598" y="437" type="curve" smooth="yes"/>
      <point x="604" y="415"/>
      <point x="629" y="423"/>
      <point x="628" y="438" type="curve" smooth="yes"/>
      <point x="625" y="490"/>
      <point x="622" y="522"/>
      <point x="619" y="553" type="curve" smooth="yes"/>
      <point x="617" y="571"/>
      <point x="610" y="582"/>
      <point x="590" y="588" type="curve" smooth="yes"/>
      <point x="524" y="604"/>
      <point x="492" y="613"/>
      <point x="416" y="613" type="curve" smooth="yes"/>
      <point x="215" y="613"/>
      <point x="45" y="480"/>
      <point x="45" y="298" type="curve" smooth="yes"/>
      <point x="45" y="107"/>
      <point x="209" y="-15"/>
    </contour>
  </outline>
</glyph>
<glyph name="D" format="1">
  <advance width="726"/>
  <unicode hex="0044"/>
  <outline>
    <contour>
      <point x="357" y="-7" type="curve" smooth="yes"/>
      <point x="541" y="-7"/>
      <point x="692" y="138"/>
      <point x="692" y="316" type="curve" smooth="yes"/>
      <point x="692" y="476"/>
      <point x="588" y="609"/>
      <point x="327" y="609" type="curve" smooth="yes"/>
      <point x="301" y="609"/>
      <point x="204" y="601"/>
      <point x="163" y="601" type="curve" smooth="yes"/>
      <point x="117" y="601"/>
      <point x="105" y="603"/>
      <point x="56" y="603" type="curve" smooth="yes"/>
      <point x="40" y="603"/>
      <point x="28" y="602"/>
      <point x="28" y="599" type="curve" smooth="yes"/>
      <point x="28" y="596"/>
      <point x="38" y="595"/>
      <point x="60" y="594" type="curve" smooth="yes"/>
      <point x="120" y="592"/>
      <point x="126" y="585"/>
      <point x="126" y="547" type="curve" smooth="yes"/>
      <point x="126" y="88" type="line" smooth="yes"/>
      <point x="126" y="16"/>
      <point x="115" y="9"/>
      <point x="60" y="5" type="curve" smooth="yes"/>
      <point x="38" y="4"/>
      <point x="28" y="4"/>
      <point x="28" y="0" type="curve" smooth="yes"/>
      <point x="28" y="-4"/>
      <point x="40" y="-5"/>
      <point x="56" y="-5" type="curve" smooth="yes"/>
      <point x="107" y="-5"/>
      <point x="119" y="0"/>
      <point x="157" y="0" type="curve" smooth="yes"/>
      <point x="233" y="0"/>
      <point x="338" y="-7"/>
    </contour>
    <contour>
      <point x="346" y="5" type="curve" smooth="yes"/>
      <point x="273" y="5"/>
      <point x="201" y="19"/>
      <point x="201" y="106" type="curve" smooth="yes"/>
      <point x="201" y="535" type="line" smooth="yes"/>
      <point x="201" y="599"/>
      <point x="248" y="601"/>
      <point x="332" y="601" type="curve" smooth="yes"/>
      <point x="465" y="601"/>
      <point x="603" y="492"/>
      <point x="603" y="300" type="curve" smooth="yes"/>
      <point x="603" y="126"/>
      <point x="497" y="5"/>
    </contour>
  </outline>
</glyph>
<glyph name="E" format="1">
  <advance width="548"/>
  <unicode hex="0045"/>
  <outline>
    <contour>
      <point x="64" y="-5" type="curve" smooth="yes"/>
      <point x="116" y="-5"/>
      <point x="132" y="1"/>
      <point x="176" y="1" type="curve" smooth="yes"/>
      <point x="273" y="1"/>
      <point x="355" y="-5"/>
      <point x="480" y="-5" type="curve" smooth="yes"/>
      <point x="487" y="-5"/>
      <point x="489" y="3"/>
      <point x="493" y="12" type="curve" smooth="yes"/>
      <point x="505" y="39"/>
      <point x="524" y="110"/>
      <point x="524" y="128" type="curve" smooth="yes"/>
      <point x="524" y="136"/>
      <point x="521" y="141"/>
      <point x="515" y="142" type="curve" smooth="yes"/>
      <point x="509" y="143"/>
      <point x="504" y="135"/>
      <point x="500" y="125" type="curve" smooth="yes"/>
      <point x="479" y="75"/>
      <point x="464" y="46"/>
      <point x="445" y="28" type="curve" smooth="yes"/>
      <point x="424" y="12"/>
      <point x="399" y="7"/>
      <point x="359" y="7" type="curve" smooth="yes"/>
      <point x="280" y="7" type="line" smooth="yes"/>
      <point x="236" y="7"/>
      <point x="216" y="23"/>
      <point x="216" y="74" type="curve" smooth="yes"/>
      <point x="216" y="279" type="line" smooth="yes"/>
      <point x="216" y="302"/>
      <point x="226" y="305"/>
      <point x="249" y="305" type="curve" smooth="yes"/>
      <point x="350" y="305" type="line" smooth="yes"/>
      <point x="374" y="305"/>
      <point x="387" y="279"/>
      <point x="394" y="248" type="curve" smooth="yes"/>
      <point x="399" y="227"/>
      <point x="401" y="216"/>
      <point x="410" y="216" type="curve" smooth="yes"/>
      <point x="417" y="216"/>
      <point x="416" y="224"/>
      <point x="416" y="233" type="curve" smooth="yes"/>
      <point x="416" y="241"/>
      <point x="414" y="290"/>
      <point x="414" y="310" type="curve" smooth="yes"/>
      <point x="414" y="326"/>
      <point x="417" y="371"/>
      <point x="417" y="380" type="curve" smooth="yes"/>
      <point x="417" y="390"/>
      <point x="412" y="396"/>
      <point x="407" y="396" type="curve" smooth="yes"/>
      <point x="400" y="396"/>
      <point x="399" y="389"/>
      <point x="396" y="374" type="curve" smooth="yes"/>
      <point x="386" y="337"/>
      <point x="375" y="313"/>
      <point x="341" y="313" type="curve" smooth="yes"/>
      <point x="233" y="313" type="line" smooth="yes"/>
      <point x="223" y="313"/>
      <point x="216" y="323"/>
      <point x="216" y="335" type="curve" smooth="yes"/>
      <point x="216" y="570" type="line" smooth="yes"/>
      <point x="216" y="585"/>
      <point x="227" y="592"/>
      <point x="253" y="592" type="curve" smooth="yes"/>
      <point x="396" y="592" type="line" smooth="yes"/>
      <point x="416" y="592"/>
      <point x="428" y="584"/>
      <point x="442" y="553" type="curve" smooth="yes"/>
      <point x="448" y="540"/>
      <point x="459" y="514"/>
      <point x="469" y="490" type="curve" smooth="yes"/>
      <point x="474" y="478"/>
      <point x="478" y="476"/>
      <point x="482" y="476" type="curve" smooth="yes"/>
      <point x="488" y="476"/>
      <point x="490" y="479"/>
      <point x="490" y="491" type="curve" smooth="yes"/>
      <point x="490" y="518"/>
      <point x="482" y="556"/>
      <point x="477" y="588" type="curve"/>
      <point x="475" y="599"/>
      <point x="467" y="603"/>
      <point x="458" y="603" type="curve" smooth="yes"/>
      <point x="453" y="603"/>
      <point x="419" y="602"/>
      <point x="375" y="601" type="curve" smooth="yes"/>
      <point x="334" y="601"/>
      <point x="285" y="600"/>
      <point x="242" y="600" type="curve" smooth="yes"/>
      <point x="174" y="600"/>
      <point x="143" y="603"/>
      <point x="71" y="603" type="curve" smooth="yes"/>
      <point x="54" y="603"/>
      <point x="43" y="602"/>
      <point x="43" y="599" type="curve" smooth="yes"/>
      <point x="43" y="595"/>
      <point x="52" y="593"/>
      <point x="75" y="591" type="curve" smooth="yes"/>
      <point x="124" y="588"/>
      <point x="141" y="581"/>
      <point x="141" y="563" type="curve" smooth="yes"/>
      <point x="141" y="64" type="line" smooth="yes"/>
      <point x="141" y="21"/>
      <point x="128" y="12"/>
      <point x="68" y="7" type="curve" smooth="yes"/>
      <point x="46" y="6"/>
      <point x="36" y="3"/>
      <point x="36" y="0" type="curve" smooth="yes"/>
      <point x="36" y="-4"/>
      <point x="47" y="-5"/>
    </contour>
  </outline>
</glyph>
<glyph name="F" format="1">
  <advance width="504"/>
  <unicode hex="0046"/>
  <outline>
    <contour>
      <point x="64" y="-5" type="curve" smooth="yes"/>
      <point x="116" y="-5"/>
      <point x="138" y="-2"/>
      <point x="186" y="2" type="curve" smooth="yes"/>
      <point x="222" y="-2"/>
      <point x="228" y="-5"/>
      <point x="280" y="-5" type="curve" smooth="yes"/>
      <point x="297" y="-5"/>
      <point x="308" y="-4"/>
      <point x="308" y="0" type="curve" smooth="yes"/>
      <point x="308" y="4"/>
      <point x="299" y="6"/>
      <point x="276" y="8" type="curve" smooth="yes"/>
      <point x="227" y="12"/>
      <point x="213" y="23"/>
      <point x="212" y="51" type="curve" smooth="yes"/>
      <point x="209" y="156"/>
      <point x="209" y="223"/>
      <point x="209" y="273" type="curve" smooth="yes"/>
      <point x="209" y="290"/>
      <point x="219" y="297"/>
      <point x="232" y="298" type="curve" smooth="yes"/>
      <point x="253" y="300"/>
      <point x="273" y="300"/>
      <point x="295" y="300" type="curve" smooth="yes"/>
      <point x="311" y="300"/>
      <point x="342" y="299"/>
      <point x="355" y="299" type="curve" smooth="yes"/>
      <point x="376" y="299"/>
      <point x="384" y="289"/>
      <point x="395" y="251" type="curve" smooth="yes"/>
      <point x="399" y="235"/>
      <point x="406" y="224"/>
      <point x="414" y="224" type="curve" smooth="yes"/>
      <point x="421" y="224"/>
      <point x="422" y="232"/>
      <point x="422" y="241" type="curve"/>
      <point x="420" y="270"/>
      <point x="419" y="289"/>
      <point x="419" y="309" type="curve" smooth="yes"/>
      <point x="419" y="325"/>
      <point x="420" y="341"/>
      <point x="422" y="364" type="curve" smooth="yes"/>
      <point x="423" y="373"/>
      <point x="419" y="380"/>
      <point x="412" y="380" type="curve" smooth="yes"/>
      <point x="405" y="380"/>
      <point x="397" y="367"/>
      <point x="395" y="359" type="curve" smooth="yes"/>
      <point x="386" y="327"/>
      <point x="375" y="310"/>
      <point x="345" y="310" type="curve" smooth="yes"/>
      <point x="308" y="310"/>
      <point x="259" y="307"/>
      <point x="218" y="307" type="curve" smooth="yes"/>
      <point x="210" y="307"/>
      <point x="209" y="318"/>
      <point x="209" y="329" type="curve"/>
      <point x="208" y="353"/>
      <point x="208" y="383"/>
      <point x="208" y="417" type="curve" smooth="yes"/>
      <point x="208" y="452"/>
      <point x="208" y="517"/>
      <point x="209" y="542" type="curve" smooth="yes"/>
      <point x="210" y="568"/>
      <point x="212" y="592"/>
      <point x="242" y="592" type="curve" smooth="yes"/>
      <point x="373" y="592" type="line" smooth="yes"/>
      <point x="404" y="592"/>
      <point x="421" y="582"/>
      <point x="434" y="557" type="curve" smooth="yes"/>
      <point x="441" y="544"/>
      <point x="450" y="523"/>
      <point x="458" y="494" type="curve" smooth="yes"/>
      <point x="460" y="485"/>
      <point x="464" y="479"/>
      <point x="471" y="479" type="curve" smooth="yes"/>
      <point x="476" y="479"/>
      <point x="478" y="488"/>
      <point x="478" y="500" type="curve" smooth="yes"/>
      <point x="478" y="514"/>
      <point x="476" y="578"/>
      <point x="473" y="601" type="curve" smooth="yes"/>
      <point x="472" y="608"/>
      <point x="462" y="610"/>
      <point x="456" y="610" type="curve" smooth="yes"/>
      <point x="432" y="610"/>
      <point x="401" y="600"/>
      <point x="360" y="600" type="curve"/>
      <point x="320" y="600"/>
      <point x="275" y="600"/>
      <point x="237" y="600" type="curve" smooth="yes"/>
      <point x="170" y="600"/>
      <point x="141" y="603"/>
      <point x="70" y="603" type="curve" smooth="yes"/>
      <point x="53" y="603"/>
      <point x="42" y="602"/>
      <point x="42" y="599" type="curve" smooth="yes"/>
      <point x="42" y="595"/>
      <point x="52" y="593"/>
      <point x="74" y="591" type="curve" smooth="yes"/>
      <point x="123" y="588"/>
      <point x="134" y="577"/>
      <point x="134" y="544" type="curve" smooth="yes"/>
      <point x="134" y="50" type="line" smooth="yes"/>
      <point x="134" y="19"/>
      <point x="117" y="12"/>
      <point x="68" y="8" type="curve" smooth="yes"/>
      <point x="46" y="6"/>
      <point x="36" y="4"/>
      <point x="36" y="0" type="curve" smooth="yes"/>
      <point x="36" y="-4"/>
      <point x="47" y="-5"/>
    </contour>
  </outline>
</glyph>
<glyph name="G" format="1">
  <advance width="708"/>
  <unicode hex="0047"/>
  <outline>
    <contour>
      <point x="380" y="-14" type="curve" smooth="yes"/>
      <point x="504" y="-14"/>
      <point x="592" y="45"/>
      <point x="611" y="48" type="curve" smooth="yes"/>
      <point x="625" y="50"/>
      <point x="625" y="61"/>
      <point x="625" y="66" type="curve" smooth="yes"/>
      <point x="625" y="70"/>
      <point x="616" y="75"/>
      <point x="612" y="81" type="curve"/>
      <point x="609" y="87"/>
      <point x="606" y="90"/>
      <point x="606" y="96" type="curve" smooth="yes"/>
      <point x="606" y="121" type="line" smooth="yes"/>
      <point x="606" y="144"/>
      <point x="611" y="184"/>
      <point x="610" y="205" type="curve" smooth="yes"/>
      <point x="609" y="238"/>
      <point x="619" y="258"/>
      <point x="652" y="258" type="curve"/>
      <point x="658" y="258"/>
      <point x="673" y="264"/>
      <point x="673" y="264" type="curve" smooth="yes"/>
      <point x="673" y="266"/>
      <point x="657" y="267"/>
      <point x="652" y="267" type="curve" smooth="yes"/>
      <point x="617" y="267"/>
      <point x="600" y="263"/>
      <point x="566" y="263" type="curve" smooth="yes"/>
      <point x="513" y="263"/>
      <point x="492" y="267"/>
      <point x="444" y="267" type="curve" smooth="yes"/>
      <point x="439" y="267"/>
      <point x="425" y="267"/>
      <point x="425" y="264" type="curve" smooth="yes"/>
      <point x="425" y="262"/>
      <point x="438" y="258"/>
      <point x="444" y="258" type="curve" smooth="yes"/>
      <point x="472" y="256"/>
      <point x="515" y="256"/>
      <point x="532" y="253" type="curve" smooth="yes"/>
      <point x="541" y="250"/>
      <point x="545" y="234"/>
      <point x="545" y="202" type="curve" smooth="yes"/>
      <point x="545" y="155"/>
      <point x="543" y="140"/>
      <point x="543" y="122" type="curve" smooth="yes"/>
      <point x="543" y="84"/>
      <point x="529" y="56"/>
      <point x="513" y="39" type="curve" smooth="yes"/>
      <point x="497" y="25"/>
      <point x="463" y="-2"/>
      <point x="394" y="-2" type="curve" smooth="yes"/>
      <point x="263" y="-2"/>
      <point x="137" y="109"/>
      <point x="137" y="299" type="curve" smooth="yes"/>
      <point x="137" y="456"/>
      <point x="239" y="599"/>
      <point x="390" y="599" type="curve" smooth="yes"/>
      <point x="477" y="599"/>
      <point x="526" y="565"/>
      <point x="549" y="541" type="curve" smooth="yes"/>
      <point x="568" y="522"/>
      <point x="574" y="489"/>
      <point x="579" y="463" type="curve"/>
      <point x="583" y="449"/>
      <point x="587" y="432"/>
      <point x="600" y="432" type="curve" smooth="yes"/>
      <point x="607" y="432"/>
      <point x="613" y="442"/>
      <point x="613" y="451" type="curve" smooth="yes"/>
      <point x="613" y="475"/>
      <point x="608" y="534"/>
      <point x="603" y="570" type="curve" smooth="yes"/>
      <point x="602" y="577"/>
      <point x="600" y="579"/>
      <point x="594" y="581" type="curve" smooth="yes"/>
      <point x="568" y="593"/>
      <point x="449" y="612"/>
      <point x="398" y="612" type="curve" smooth="yes"/>
      <point x="207" y="612"/>
      <point x="44" y="470"/>
      <point x="44" y="286" type="curve" smooth="yes"/>
      <point x="44" y="116"/>
      <point x="201" y="-14"/>
    </contour>
  </outline>
</glyph>
<glyph name="H" format="1">
  <advance width="780"/>
  <unicode hex="0048"/>
  <outline>
    <contour>
      <point x="64" y="-5" type="curve" smooth="yes"/>
      <point x="116" y="-5"/>
      <point x="129" y="-4"/>
      <point x="169" y="-4" type="curve" smooth="yes"/>
      <point x="213" y="-4"/>
      <point x="229" y="-5"/>
      <point x="281" y="-5" type="curve" smooth="yes"/>
      <point x="298" y="-5"/>
      <point x="309" y="-4"/>
      <point x="309" y="-1" type="curve" smooth="yes"/>
      <point x="309" y="1"/>
      <point x="300" y="2"/>
      <point x="278" y="5" type="curve" smooth="yes"/>
      <point x="234" y="7"/>
      <point x="201" y="15"/>
      <point x="201" y="30" type="curve" smooth="yes"/>
      <point x="201" y="285" type="line" smooth="yes"/>
      <point x="201" y="293"/>
      <point x="201" y="296"/>
      <point x="207" y="296" type="curve" smooth="yes"/>
      <point x="575" y="296" type="line" smooth="yes"/>
      <point x="582" y="296"/>
      <point x="581" y="288"/>
      <point x="581" y="282" type="curve" smooth="yes"/>
      <point x="581" y="28" type="line" smooth="yes"/>
      <point x="581" y="13"/>
      <point x="556" y="7"/>
      <point x="514" y="5" type="curve" smooth="yes"/>
      <point x="491" y="2"/>
      <point x="482" y="1"/>
      <point x="482" y="-1" type="curve" smooth="yes"/>
      <point x="482" y="-4"/>
      <point x="494" y="-5"/>
      <point x="511" y="-5" type="curve" smooth="yes"/>
      <point x="563" y="-5"/>
      <point x="574" y="-4"/>
      <point x="613" y="-4" type="curve" smooth="yes"/>
      <point x="652" y="-4"/>
      <point x="662" y="-5"/>
      <point x="713" y="-5" type="curve" smooth="yes"/>
      <point x="730" y="-5"/>
      <point x="742" y="-4"/>
      <point x="742" y="-1" type="curve" smooth="yes"/>
      <point x="742" y="1"/>
      <point x="733" y="2"/>
      <point x="710" y="5" type="curve" smooth="yes"/>
      <point x="662" y="7"/>
      <point x="656" y="12"/>
      <point x="656" y="28" type="curve" smooth="yes"/>
      <point x="656" y="567" type="line" smooth="yes"/>
      <point x="656" y="581"/>
      <point x="659" y="589"/>
      <point x="708" y="591" type="curve" smooth="yes"/>
      <point x="730" y="592"/>
      <point x="740" y="594"/>
      <point x="740" y="597" type="curve" smooth="yes"/>
      <point x="740" y="599"/>
      <point x="730" y="601"/>
      <point x="711" y="601" type="curve" smooth="yes"/>
      <point x="660" y="601"/>
      <point x="657" y="600"/>
      <point x="623" y="600" type="curve" smooth="yes"/>
      <point x="581" y="600"/>
      <point x="564" y="601"/>
      <point x="513" y="601" type="curve" smooth="yes"/>
      <point x="495" y="601"/>
      <point x="484" y="599"/>
      <point x="484" y="597" type="curve" smooth="yes"/>
      <point x="484" y="594"/>
      <point x="494" y="592"/>
      <point x="517" y="591" type="curve" smooth="yes"/>
      <point x="566" y="589"/>
      <point x="581" y="579"/>
      <point x="581" y="567" type="curve" smooth="yes"/>
      <point x="581" y="316" type="line" smooth="yes"/>
      <point x="581" y="307"/>
      <point x="579" y="304"/>
      <point x="574" y="304" type="curve" smooth="yes"/>
      <point x="215" y="304" type="line" smooth="yes"/>
      <point x="209" y="304"/>
      <point x="201" y="305"/>
      <point x="201" y="314" type="curve" smooth="yes"/>
      <point x="201" y="567" type="line" smooth="yes"/>
      <point x="201" y="581"/>
      <point x="219" y="589"/>
      <point x="267" y="591" type="curve" smooth="yes"/>
      <point x="290" y="592"/>
      <point x="299" y="594"/>
      <point x="299" y="597" type="curve" smooth="yes"/>
      <point x="299" y="599"/>
      <point x="290" y="601"/>
      <point x="271" y="601" type="curve" smooth="yes"/>
      <point x="219" y="601"/>
      <point x="208" y="600"/>
      <point x="169" y="600" type="curve" smooth="yes"/>
      <point x="132" y="600"/>
      <point x="122" y="601"/>
      <point x="71" y="601" type="curve" smooth="yes"/>
      <point x="51" y="601"/>
      <point x="42" y="599"/>
      <point x="42" y="597" type="curve" smooth="yes"/>
      <point x="42" y="594"/>
      <point x="52" y="592"/>
      <point x="74" y="591" type="curve" smooth="yes"/>
      <point x="123" y="589"/>
      <point x="126" y="582"/>
      <point x="126" y="567" type="curve" smooth="yes"/>
      <point x="126" y="27" type="line" smooth="yes"/>
      <point x="126" y="12"/>
      <point x="116" y="7"/>
      <point x="67" y="5" type="curve" smooth="yes"/>
      <point x="45" y="2"/>
      <point x="36" y="1"/>
      <point x="36" y="-1" type="curve" smooth="yes"/>
      <point x="36" y="-4"/>
      <point x="47" y="-5"/>
    </contour>
  </outline>
</glyph>
<glyph name="I" format="1">
  <advance width="328"/>
  <unicode hex="0049"/>
  <outline>
    <contour>
      <point x="47" y="-5" type="curve" smooth="yes"/>
      <point x="98" y="-5"/>
      <point x="121" y="-3"/>
      <point x="170" y="-3" type="curve" smooth="yes"/>
      <point x="215" y="-3"/>
      <point x="231" y="-5"/>
      <point x="282" y="-5" type="curve" smooth="yes"/>
      <point x="299" y="-5"/>
      <point x="311" y="-4"/>
      <point x="311" y="-1" type="curve" smooth="yes"/>
      <point x="311" y="2"/>
      <point x="301" y="3"/>
      <point x="278" y="5" type="curve" smooth="yes"/>
      <point x="230" y="8"/>
      <point x="201" y="13"/>
      <point x="201" y="30" type="curve" smooth="yes"/>
      <point x="201" y="561" type="line" smooth="yes"/>
      <point x="201" y="580"/>
      <point x="222" y="587"/>
      <point x="271" y="590" type="curve" smooth="yes"/>
      <point x="293" y="592"/>
      <point x="303" y="595"/>
      <point x="303" y="599" type="curve" smooth="yes"/>
      <point x="303" y="602"/>
      <point x="291" y="603"/>
      <point x="275" y="603" type="curve" smooth="yes"/>
      <point x="223" y="603"/>
      <point x="212" y="602"/>
      <point x="170" y="602" type="curve" smooth="yes"/>
      <point x="125" y="602"/>
      <point x="109" y="603"/>
      <point x="57" y="603" type="curve" smooth="yes"/>
      <point x="41" y="603"/>
      <point x="29" y="602"/>
      <point x="29" y="599" type="curve" smooth="yes"/>
      <point x="29" y="595"/>
      <point x="39" y="592"/>
      <point x="61" y="590" type="curve" smooth="yes"/>
      <point x="110" y="587"/>
      <point x="126" y="580"/>
      <point x="126" y="561" type="curve" smooth="yes"/>
      <point x="126" y="30" type="line" smooth="yes"/>
      <point x="126" y="13"/>
      <point x="99" y="8"/>
      <point x="51" y="5" type="curve" smooth="yes"/>
      <point x="28" y="3"/>
      <point x="18" y="2"/>
      <point x="18" y="-1" type="curve" smooth="yes"/>
      <point x="18" y="-4"/>
      <point x="30" y="-5"/>
    </contour>
  </outline>
</glyph>
<glyph name="J" format="1">
  <advance width="331"/>
  <unicode hex="004A"/>
  <outline>
    <contour>
      <point x="33" y="-200" type="curve" smooth="yes"/>
      <point x="72" y="-200"/>
      <point x="103" y="-178"/>
      <point x="129" y="-145" type="curve" smooth="yes"/>
      <point x="159" y="-107"/>
      <point x="203" y="-37"/>
      <point x="203" y="45" type="curve" smooth="yes"/>
      <point x="203" y="560" type="line" smooth="yes"/>
      <point x="203" y="579"/>
      <point x="224" y="586"/>
      <point x="273" y="589" type="curve" smooth="yes"/>
      <point x="296" y="591"/>
      <point x="306" y="594"/>
      <point x="306" y="598" type="curve" smooth="yes"/>
      <point x="306" y="601"/>
      <point x="294" y="602"/>
      <point x="277" y="602" type="curve" smooth="yes"/>
      <point x="225" y="602"/>
      <point x="213" y="601"/>
      <point x="171" y="601" type="curve" smooth="yes"/>
      <point x="127" y="601"/>
      <point x="110" y="602"/>
      <point x="58" y="602" type="curve" smooth="yes"/>
      <point x="42" y="602"/>
      <point x="30" y="601"/>
      <point x="30" y="598" type="curve" smooth="yes"/>
      <point x="30" y="594"/>
      <point x="39" y="591"/>
      <point x="62" y="589" type="curve" smooth="yes"/>
      <point x="111" y="586"/>
      <point x="128" y="579"/>
      <point x="128" y="560" type="curve" smooth="yes"/>
      <point x="128" y="-1" type="line" smooth="yes"/>
      <point x="128" y="-113"/>
      <point x="109" y="-183"/>
      <point x="63" y="-183" type="curve" smooth="yes"/>
      <point x="47" y="-183"/>
      <point x="34" y="-172"/>
      <point x="17" y="-140" type="curve" smooth="yes"/>
      <point x="4" y="-114"/>
      <point x="-12" y="-104"/>
      <point x="-29" y="-104" type="curve" smooth="yes"/>
      <point x="-44" y="-104"/>
      <point x="-68" y="-128"/>
      <point x="-68" y="-151" type="curve" smooth="yes"/>
      <point x="-68" y="-182"/>
      <point x="-34" y="-200"/>
    </contour>
  </outline>
</glyph>
<glyph name="K" format="1">
  <advance width="655"/>
  <unicode hex="004B"/>
  <outline>
    <contour>
      <point x="58" y="-5" type="curve" smooth="yes"/>
      <point x="110" y="-5"/>
      <point x="132" y="2"/>
      <point x="180" y="2" type="curve" smooth="yes"/>
      <point x="216" y="2"/>
      <point x="222" y="-5"/>
      <point x="274" y="-5" type="curve" smooth="yes"/>
      <point x="290" y="-5"/>
      <point x="302" y="-4"/>
      <point x="302" y="-2" type="curve" smooth="yes"/>
      <point x="302" y="1"/>
      <point x="292" y="3"/>
      <point x="270" y="4" type="curve" smooth="yes"/>
      <point x="221" y="7"/>
      <point x="209" y="17"/>
      <point x="208" y="35" type="curve" smooth="yes"/>
      <point x="204" y="178"/>
      <point x="203" y="221"/>
      <point x="203" y="275" type="curve" smooth="yes"/>
      <point x="203" y="282"/>
      <point x="202" y="296"/>
      <point x="207" y="296" type="curve" smooth="yes"/>
      <point x="211" y="296"/>
      <point x="221" y="288"/>
      <point x="229" y="281" type="curve"/>
      <point x="456" y="38" type="line" smooth="yes"/>
      <point x="464" y="30"/>
      <point x="471" y="24"/>
      <point x="470" y="20" type="curve" smooth="yes"/>
      <point x="469" y="12"/>
      <point x="453" y="10"/>
      <point x="421" y="8" type="curve"/>
      <point x="403" y="7"/>
      <point x="395" y="6"/>
      <point x="395" y="3" type="curve" smooth="yes"/>
      <point x="395" y="0"/>
      <point x="407" y="-1"/>
      <point x="423" y="-1" type="curve" smooth="yes"/>
      <point x="465" y="-1"/>
      <point x="478" y="0"/>
      <point x="502" y="0" type="curve" smooth="yes"/>
      <point x="554" y="0"/>
      <point x="579" y="-5"/>
      <point x="635" y="-5" type="curve" smooth="yes"/>
      <point x="651" y="-5"/>
      <point x="663" y="-4"/>
      <point x="663" y="-1" type="curve" smooth="yes"/>
      <point x="663" y="2"/>
      <point x="653" y="5"/>
      <point x="634" y="5" type="curve" smooth="yes"/>
      <point x="616" y="4"/>
      <point x="600" y="11"/>
      <point x="555" y="55" type="curve" smooth="yes"/>
      <point x="275" y="343" type="line" smooth="yes"/>
      <point x="268" y="350"/>
      <point x="265" y="356"/>
      <point x="270" y="361" type="curve"/>
      <point x="335" y="427"/>
      <point x="414" y="502"/>
      <point x="480" y="556" type="curve" smooth="yes"/>
      <point x="525" y="590"/>
      <point x="534" y="594"/>
      <point x="617" y="594" type="curve" smooth="yes"/>
      <point x="639" y="594"/>
      <point x="649" y="598"/>
      <point x="649" y="601" type="curve" smooth="yes"/>
      <point x="649" y="604"/>
      <point x="640" y="605"/>
      <point x="628" y="605" type="curve" smooth="yes"/>
      <point x="615" y="605"/>
      <point x="531" y="601"/>
      <point x="476" y="601" type="curve" smooth="yes"/>
      <point x="423" y="601" type="line" smooth="yes"/>
      <point x="407" y="601"/>
      <point x="395" y="600"/>
      <point x="395" y="598" type="curve" smooth="yes"/>
      <point x="395" y="595"/>
      <point x="402" y="591"/>
      <point x="425" y="591" type="curve" smooth="yes"/>
      <point x="463" y="591"/>
      <point x="478" y="588"/>
      <point x="478" y="578" type="curve" smooth="yes"/>
      <point x="478" y="570"/>
      <point x="466" y="559"/>
      <point x="445" y="541" type="curve" smooth="yes"/>
      <point x="236" y="340" type="line"/>
      <point x="227" y="332"/>
      <point x="214" y="324"/>
      <point x="208" y="324" type="curve" smooth="yes"/>
      <point x="203" y="324"/>
      <point x="203" y="338"/>
      <point x="203" y="343" type="curve" smooth="yes"/>
      <point x="203" y="566" type="line" smooth="yes"/>
      <point x="203" y="578"/>
      <point x="204" y="593"/>
      <point x="255" y="594" type="curve" smooth="yes"/>
      <point x="278" y="594"/>
      <point x="288" y="598"/>
      <point x="288" y="600" type="curve" smooth="yes"/>
      <point x="288" y="602"/>
      <point x="276" y="603"/>
      <point x="260" y="603" type="curve" smooth="yes"/>
      <point x="208" y="603"/>
      <point x="203" y="601"/>
      <point x="166" y="601" type="curve" smooth="yes"/>
      <point x="124" y="601"/>
      <point x="110" y="603"/>
      <point x="58" y="603" type="curve" smooth="yes"/>
      <point x="42" y="603"/>
      <point x="30" y="602"/>
      <point x="30" y="599" type="curve" smooth="yes"/>
      <point x="30" y="596"/>
      <point x="40" y="592"/>
      <point x="62" y="592" type="curve" smooth="yes"/>
      <point x="118" y="592"/>
      <point x="128" y="582"/>
      <point x="128" y="558" type="curve" smooth="yes"/>
      <point x="128" y="33" type="line" smooth="yes"/>
      <point x="128" y="12"/>
      <point x="111" y="7"/>
      <point x="62" y="4" type="curve" smooth="yes"/>
      <point x="40" y="3"/>
      <point x="30" y="1"/>
      <point x="30" y="-2" type="curve" smooth="yes"/>
      <point x="30" y="-4"/>
      <point x="42" y="-5"/>
    </contour>
  </outline>
</glyph>
<glyph name="L" format="1">
  <advance width="578"/>
  <unicode hex="004C"/>
  <outline>
    <contour>
      <point x="63" y="-5" type="curve"/>
      <point x="63" y="-5"/>
      <point x="145" y="0"/>
      <point x="194" y="0" type="curve" smooth="yes"/>
      <point x="291" y="0"/>
      <point x="397" y="-5"/>
      <point x="527" y="-5" type="curve" smooth="yes"/>
      <point x="536" y="-5"/>
      <point x="539" y="3"/>
      <point x="540" y="12" type="curve" smooth="yes"/>
      <point x="544" y="54"/>
      <point x="553" y="87"/>
      <point x="567" y="139" type="curve"/>
      <point x="567" y="140"/>
      <point x="568" y="142"/>
      <point x="568" y="144" type="curve" smooth="yes"/>
      <point x="568" y="152"/>
      <point x="564" y="162"/>
      <point x="557" y="162" type="curve" smooth="yes"/>
      <point x="551" y="162"/>
      <point x="544" y="149"/>
      <point x="536" y="125" type="curve" smooth="yes"/>
      <point x="520" y="81"/>
      <point x="513" y="67"/>
      <point x="496" y="48" type="curve" smooth="yes"/>
      <point x="476" y="24"/>
      <point x="450" y="7"/>
      <point x="417" y="7" type="curve" smooth="yes"/>
      <point x="287" y="7" type="line" smooth="yes"/>
      <point x="222" y="7"/>
      <point x="212" y="27"/>
      <point x="212" y="68" type="curve" smooth="yes"/>
      <point x="212" y="563" type="line" smooth="yes"/>
      <point x="212" y="590"/>
      <point x="243" y="589"/>
      <point x="299" y="592" type="curve" smooth="yes"/>
      <point x="321" y="594"/>
      <point x="331" y="596"/>
      <point x="331" y="599" type="curve" smooth="yes"/>
      <point x="331" y="602"/>
      <point x="319" y="603"/>
      <point x="303" y="603" type="curve" smooth="yes"/>
      <point x="251" y="603"/>
      <point x="228" y="600"/>
      <point x="181" y="600" type="curve" smooth="yes"/>
      <point x="138" y="600"/>
      <point x="125" y="603"/>
      <point x="73" y="603" type="curve" smooth="yes"/>
      <point x="56" y="603"/>
      <point x="45" y="602"/>
      <point x="45" y="599" type="curve" smooth="yes"/>
      <point x="45" y="596"/>
      <point x="54" y="594"/>
      <point x="77" y="593" type="curve" smooth="yes"/>
      <point x="126" y="590"/>
      <point x="137" y="591"/>
      <point x="137" y="558" type="curve" smooth="yes"/>
      <point x="137" y="44" type="line" smooth="yes"/>
      <point x="137" y="17"/>
      <point x="127" y="11"/>
      <point x="57" y="6" type="curve"/>
      <point x="53" y="5"/>
      <point x="36" y="4"/>
      <point x="36" y="-1" type="curve" smooth="yes"/>
      <point x="36" y="-3"/>
      <point x="46" y="-5"/>
    </contour>
  </outline>
</glyph>
<glyph name="M" format="1">
  <advance width="877"/>
  <unicode hex="004D"/>
  <outline>
    <contour>
      <point x="47" y="-5" type="curve" smooth="yes"/>
      <point x="100" y="-5"/>
      <point x="101" y="0"/>
      <point x="136" y="0" type="curve" smooth="yes"/>
      <point x="173" y="0"/>
      <point x="176" y="-5"/>
      <point x="229" y="-5" type="curve" smooth="yes"/>
      <point x="245" y="-5"/>
      <point x="257" y="-4"/>
      <point x="257" y="0" type="curve" smooth="yes"/>
      <point x="257" y="4"/>
      <point x="247" y="5"/>
      <point x="225" y="7" type="curve" smooth="yes"/>
      <point x="166" y="12"/>
      <point x="143" y="20"/>
      <point x="143" y="65" type="curve" smooth="yes"/>
      <point x="143" y="217"/>
      <point x="162" y="379"/>
      <point x="166" y="494" type="curve" smooth="yes"/>
      <point x="166" y="501"/>
      <point x="176" y="500"/>
      <point x="179" y="494" type="curve" smooth="yes"/>
      <point x="250" y="334"/>
      <point x="333" y="138"/>
      <point x="385" y="-4" type="curve" smooth="yes"/>
      <point x="388" y="-13"/>
      <point x="399" y="-12"/>
      <point x="402" y="-5" type="curve" smooth="yes"/>
      <point x="623" y="456" type="line" smooth="yes"/>
      <point x="629" y="468"/>
      <point x="637" y="470"/>
      <point x="639" y="456" type="curve"/>
      <point x="645" y="340"/>
      <point x="653" y="219"/>
      <point x="654" y="34" type="curve" smooth="yes"/>
      <point x="654" y="15"/>
      <point x="642" y="9"/>
      <point x="604" y="7" type="curve" smooth="yes"/>
      <point x="581" y="5"/>
      <point x="571" y="3"/>
      <point x="571" y="0" type="curve" smooth="yes"/>
      <point x="571" y="-3"/>
      <point x="583" y="-5"/>
      <point x="599" y="-5" type="curve" smooth="yes"/>
      <point x="652" y="-5"/>
      <point x="661" y="0"/>
      <point x="701" y="0" type="curve" smooth="yes"/>
      <point x="745" y="0"/>
      <point x="762" y="-5"/>
      <point x="814" y="-5" type="curve" smooth="yes"/>
      <point x="830" y="-5"/>
      <point x="842" y="-3"/>
      <point x="842" y="0" type="curve" smooth="yes"/>
      <point x="842" y="3"/>
      <point x="832" y="5"/>
      <point x="810" y="7" type="curve" smooth="yes"/>
      <point x="761" y="10"/>
      <point x="738" y="19"/>
      <point x="736" y="34" type="curve" smooth="yes"/>
      <point x="728" y="230"/>
      <point x="715" y="352"/>
      <point x="715" y="552" type="curve" smooth="yes"/>
      <point x="715" y="581"/>
      <point x="721" y="587"/>
      <point x="739" y="590" type="curve" smooth="yes"/>
      <point x="756" y="592"/>
      <point x="779" y="595"/>
      <point x="796" y="596" type="curve" smooth="yes"/>
      <point x="816" y="599"/>
      <point x="822" y="600"/>
      <point x="822" y="603" type="curve" smooth="yes"/>
      <point x="822" y="606"/>
      <point x="807" y="606"/>
      <point x="802" y="606" type="curve" smooth="yes"/>
      <point x="780" y="606"/>
      <point x="731" y="598"/>
      <point x="692" y="598" type="curve" smooth="yes"/>
      <point x="658" y="598" type="line" smooth="yes"/>
      <point x="653" y="598"/>
      <point x="650" y="593"/>
      <point x="648" y="585" type="curve" smooth="yes"/>
      <point x="644" y="563"/>
      <point x="634" y="505"/>
      <point x="628" y="481" type="curve"/>
      <point x="442" y="100" type="line" smooth="yes"/>
      <point x="438" y="91"/>
      <point x="432" y="94"/>
      <point x="427" y="103" type="curve" smooth="yes"/>
      <point x="258" y="508" type="line" smooth="yes"/>
      <point x="248" y="535"/>
      <point x="244" y="557"/>
      <point x="237" y="581" type="curve" smooth="yes"/>
      <point x="234" y="591"/>
      <point x="228" y="597"/>
      <point x="219" y="597" type="curve" smooth="yes"/>
      <point x="194" y="597"/>
      <point x="99" y="605"/>
      <point x="74" y="605" type="curve" smooth="yes"/>
      <point x="54" y="605"/>
      <point x="41" y="605"/>
      <point x="41" y="602" type="curve" smooth="yes"/>
      <point x="41" y="600"/>
      <point x="50" y="598"/>
      <point x="63" y="597" type="curve" smooth="yes"/>
      <point x="106" y="594"/>
      <point x="128" y="592"/>
      <point x="140" y="585" type="curve" smooth="yes"/>
      <point x="149" y="579"/>
      <point x="152" y="570"/>
      <point x="152" y="555" type="curve" smooth="yes"/>
      <point x="152" y="544"/>
      <point x="152" y="531"/>
      <point x="152" y="514" type="curve" smooth="yes"/>
      <point x="152" y="404"/>
      <point x="142" y="259"/>
      <point x="121" y="62" type="curve" smooth="yes"/>
      <point x="116" y="18"/>
      <point x="104" y="11"/>
      <point x="51" y="6" type="curve" smooth="yes"/>
      <point x="28" y="4"/>
      <point x="19" y="4"/>
      <point x="19" y="0" type="curve" smooth="yes"/>
      <point x="19" y="-4"/>
      <point x="30" y="-5"/>
    </contour>
  </outline>
</glyph>
<glyph name="N" format="1">
  <advance width="774"/>
  <unicode hex="004E"/>
  <outline>
    <contour>
      <point x="653" y="-17" type="curve" smooth="yes"/>
      <point x="663" y="-17"/>
      <point x="674" y="-13"/>
      <point x="674" y="8" type="curve" smooth="yes"/>
      <point x="674" y="21"/>
      <point x="669" y="57"/>
      <point x="669" y="105" type="curve" smooth="yes"/>
      <point x="669" y="305"/>
      <point x="670" y="421"/>
      <point x="670" y="530" type="curve" smooth="yes"/>
      <point x="671" y="576"/>
      <point x="691" y="583"/>
      <point x="732" y="590" type="curve" smooth="yes"/>
      <point x="755" y="594"/>
      <point x="764" y="595"/>
      <point x="764" y="598" type="curve" smooth="yes"/>
      <point x="764" y="601"/>
      <point x="754" y="602"/>
      <point x="740" y="602" type="curve" smooth="yes"/>
      <point x="693" y="602"/>
      <point x="689" y="597"/>
      <point x="665" y="597" type="curve" smooth="yes"/>
      <point x="626" y="597"/>
      <point x="625" y="602"/>
      <point x="577" y="602" type="curve" smooth="yes"/>
      <point x="563" y="602"/>
      <point x="552" y="601"/>
      <point x="552" y="598" type="curve" smooth="yes"/>
      <point x="552" y="595"/>
      <point x="563" y="595"/>
      <point x="587" y="592" type="curve" smooth="yes"/>
      <point x="646" y="585"/>
      <point x="656" y="575"/>
      <point x="656" y="532" type="curve"/>
      <point x="656" y="394"/>
      <point x="655" y="204"/>
      <point x="655" y="107" type="curve"/>
      <point x="654" y="92"/>
      <point x="650" y="86"/>
      <point x="645" y="86" type="curve" smooth="yes"/>
      <point x="637" y="86"/>
      <point x="626" y="99"/>
      <point x="621" y="104" type="curve" smooth="yes"/>
      <point x="601" y="125"/>
      <point x="229" y="561"/>
      <point x="211" y="586" type="curve"/>
      <point x="204" y="595"/>
      <point x="197" y="602"/>
      <point x="185" y="602" type="curve" smooth="yes"/>
      <point x="115" y="602"/>
      <point x="110" y="606"/>
      <point x="34" y="607" type="curve" smooth="yes"/>
      <point x="27" y="607"/>
      <point x="12" y="606"/>
      <point x="12" y="604" type="curve" smooth="yes"/>
      <point x="12" y="600"/>
      <point x="27" y="598"/>
      <point x="39" y="598" type="curve" smooth="yes"/>
      <point x="101" y="595"/>
      <point x="139" y="575"/>
      <point x="139" y="523" type="curve" smooth="yes"/>
      <point x="139" y="312"/>
      <point x="129" y="173"/>
      <point x="124" y="66" type="curve" smooth="yes"/>
      <point x="122" y="21"/>
      <point x="106" y="13"/>
      <point x="64" y="7" type="curve" smooth="yes"/>
      <point x="42" y="3"/>
      <point x="32" y="2"/>
      <point x="32" y="-1" type="curve" smooth="yes"/>
      <point x="32" y="-4"/>
      <point x="43" y="-5"/>
      <point x="57" y="-5" type="curve" smooth="yes"/>
      <point x="104" y="-5"/>
      <point x="105" y="0"/>
      <point x="135" y="0" type="curve" smooth="yes"/>
      <point x="168" y="0"/>
      <point x="169" y="-5"/>
      <point x="216" y="-5" type="curve" smooth="yes"/>
      <point x="230" y="-5"/>
      <point x="241" y="-4"/>
      <point x="241" y="-1" type="curve" smooth="yes"/>
      <point x="241" y="2"/>
      <point x="230" y="4"/>
      <point x="206" y="5" type="curve" smooth="yes"/>
      <point x="149" y="11"/>
      <point x="138" y="23"/>
      <point x="138" y="60" type="curve" smooth="yes"/>
      <point x="138" y="207"/>
      <point x="150" y="398"/>
      <point x="149" y="485" type="curve" smooth="yes"/>
      <point x="149" y="494"/>
      <point x="153" y="506"/>
      <point x="159" y="506" type="curve" smooth="yes"/>
      <point x="164" y="506"/>
      <point x="170" y="502"/>
      <point x="180" y="491" type="curve" smooth="yes"/>
      <point x="203" y="465"/>
      <point x="551" y="62"/>
      <point x="569" y="40" type="curve" smooth="yes"/>
      <point x="601" y="0"/>
      <point x="641" y="-17"/>
    </contour>
  </outline>
</glyph>
<glyph name="O" format="1">
  <advance width="734"/>
  <unicode hex="004F"/>
  <outline>
    <contour>
      <point x="363" y="-14" type="curve" smooth="yes"/>
      <point x="577" y="-14"/>
      <point x="690" y="140"/>
      <point x="690" y="307" type="curve" smooth="yes"/>
      <point x="690" y="494"/>
      <point x="540" y="614"/>
      <point x="371" y="614" type="curve" smooth="yes"/>
      <point x="158" y="614"/>
      <point x="44" y="461"/>
      <point x="44" y="293" type="curve" smooth="yes"/>
      <point x="44" y="106"/>
      <point x="194" y="-14"/>
    </contour>
    <contour>
      <point x="377" y="-5" type="curve" smooth="yes"/>
      <point x="215" y="-5"/>
      <point x="134" y="148"/>
      <point x="134" y="341" type="curve" smooth="yes"/>
      <point x="134" y="503"/>
      <point x="209" y="603"/>
      <point x="356" y="603" type="curve" smooth="yes"/>
      <point x="518" y="603"/>
      <point x="600" y="452"/>
      <point x="600" y="260" type="curve" smooth="yes"/>
      <point x="600" y="98"/>
      <point x="526" y="-5"/>
    </contour>
  </outline>
</glyph>
<glyph name="P" format="1">
  <advance width="531"/>
  <unicode hex="0050"/>
  <outline>
    <contour>
      <point x="51" y="-5" type="curve" smooth="yes"/>
      <point x="104" y="-5"/>
      <point x="127" y="2"/>
      <point x="177" y="2" type="curve" smooth="yes"/>
      <point x="213" y="2"/>
      <point x="219" y="-5"/>
      <point x="271" y="-5" type="curve" smooth="yes"/>
      <point x="288" y="-5"/>
      <point x="299" y="-2"/>
      <point x="299" y="0" type="curve" smooth="yes"/>
      <point x="299" y="3"/>
      <point x="289" y="6"/>
      <point x="267" y="7" type="curve" smooth="yes"/>
      <point x="203" y="9"/>
      <point x="202" y="21"/>
      <point x="202" y="92" type="curve" smooth="yes"/>
      <point x="202" y="552" type="line" smooth="yes"/>
      <point x="202" y="586"/>
      <point x="227" y="599"/>
      <point x="263" y="599" type="curve" smooth="yes"/>
      <point x="353" y="599"/>
      <point x="426" y="559"/>
      <point x="426" y="435" type="curve" smooth="yes"/>
      <point x="426" y="311"/>
      <point x="386" y="241"/>
      <point x="299" y="241" type="curve" smooth="yes"/>
      <point x="283" y="241"/>
      <point x="270" y="242"/>
      <point x="264" y="242" type="curve" smooth="yes"/>
      <point x="257" y="242"/>
      <point x="248" y="242"/>
      <point x="248" y="238" type="curve" smooth="yes"/>
      <point x="248" y="236"/>
      <point x="264" y="233"/>
      <point x="292" y="233" type="curve" smooth="yes"/>
      <point x="439" y="233"/>
      <point x="506" y="329"/>
      <point x="506" y="443" type="curve" smooth="yes"/>
      <point x="506" y="547"/>
      <point x="410" y="608"/>
      <point x="264" y="608" type="curve" smooth="yes"/>
      <point x="237" y="608"/>
      <point x="196" y="602"/>
      <point x="158" y="602" type="curve" smooth="yes"/>
      <point x="118" y="602"/>
      <point x="115" y="603"/>
      <point x="63" y="603" type="curve" smooth="yes"/>
      <point x="47" y="603"/>
      <point x="35" y="601"/>
      <point x="35" y="599" type="curve" smooth="yes"/>
      <point x="35" y="598"/>
      <point x="45" y="595"/>
      <point x="67" y="594" type="curve" smooth="yes"/>
      <point x="122" y="593"/>
      <point x="127" y="585"/>
      <point x="127" y="525" type="curve" smooth="yes"/>
      <point x="127" y="81" type="line" smooth="yes"/>
      <point x="127" y="12"/>
      <point x="118" y="5"/>
      <point x="55" y="5" type="curve" smooth="yes"/>
      <point x="33" y="5"/>
      <point x="23" y="3"/>
      <point x="23" y="0" type="curve" smooth="yes"/>
      <point x="23" y="-2"/>
      <point x="35" y="-5"/>
    </contour>
  </outline>
</glyph>
<glyph name="Q" format="1">
  <advance width="751"/>
  <unicode hex="0051"/>
  <outline>
    <contour>
      <point x="858" y="-215" type="curve" smooth="yes"/>
      <point x="873" y="-206"/>
      <point x="876" y="-201"/>
      <point x="876" y="-189" type="curve" smooth="yes"/>
      <point x="876" y="-183"/>
      <point x="871" y="-181"/>
      <point x="865" y="-181" type="curve" smooth="yes"/>
      <point x="858" y="-181"/>
      <point x="851" y="-183"/>
      <point x="845" y="-185" type="curve"/>
      <point x="836" y="-189"/>
      <point x="812" y="-192"/>
      <point x="788" y="-192" type="curve" smooth="yes"/>
      <point x="709" y="-192"/>
      <point x="656" y="-178"/>
      <point x="587" y="-129" type="curve" smooth="yes"/>
      <point x="537" y="-93"/>
      <point x="501" y="-62"/>
      <point x="461" y="-20" type="curve"/>
      <point x="458" y="-17"/>
      <point x="457" y="-14"/>
      <point x="457" y="-11" type="curve" smooth="yes"/>
      <point x="457" y="-9"/>
      <point x="458" y="-6"/>
      <point x="465" y="-4" type="curve" smooth="yes"/>
      <point x="623" y="34"/>
      <point x="706" y="167"/>
      <point x="706" y="307" type="curve" smooth="yes"/>
      <point x="706" y="491"/>
      <point x="552" y="614"/>
      <point x="380" y="614" type="curve" smooth="yes"/>
      <point x="161" y="614"/>
      <point x="45" y="459"/>
      <point x="45" y="293" type="curve" smooth="yes"/>
      <point x="45" y="140"/>
      <point x="140" y="52"/>
      <point x="253" y="6" type="curve" smooth="yes"/>
      <point x="284" y="-6"/>
      <point x="322" y="-20"/>
      <point x="366" y="-57" type="curve" smooth="yes"/>
      <point x="430" y="-109"/>
      <point x="468" y="-136"/>
      <point x="521" y="-173" type="curve" smooth="yes"/>
      <point x="585" y="-219"/>
      <point x="645" y="-248"/>
      <point x="741" y="-248" type="curve" smooth="yes"/>
      <point x="778" y="-248"/>
      <point x="820" y="-238"/>
    </contour>
    <contour>
      <point x="135" y="341" type="curve" smooth="yes"/>
      <point x="135" y="501"/>
      <point x="213" y="603"/>
      <point x="364" y="603" type="curve" smooth="yes"/>
      <point x="531" y="603"/>
      <point x="616" y="450"/>
      <point x="616" y="260" type="curve" smooth="yes"/>
      <point x="616" y="100"/>
      <point x="539" y="-5"/>
      <point x="386" y="-5" type="curve" smooth="yes"/>
      <point x="219" y="-5"/>
      <point x="135" y="150"/>
    </contour>
  </outline>
</glyph>
<glyph name="R" format="1">
  <advance width="708"/>
  <unicode hex="0052"/>
  <outline>
    <contour>
      <point x="713" y="-9" type="curve" smooth="yes"/>
      <point x="713" y="-7"/>
      <point x="708" y="-6"/>
      <point x="698" y="-6" type="curve" smooth="yes"/>
      <point x="664" y="-6"/>
      <point x="646" y="5"/>
      <point x="614" y="27" type="curve" smooth="yes"/>
      <point x="499" y="114"/>
      <point x="434" y="208"/>
      <point x="370" y="293" type="curve" smooth="yes"/>
      <point x="366" y="299"/>
      <point x="365" y="304"/>
      <point x="370" y="306" type="curve"/>
      <point x="426" y="332"/>
      <point x="492" y="372"/>
      <point x="492" y="455" type="curve" smooth="yes"/>
      <point x="492" y="556"/>
      <point x="415" y="607"/>
      <point x="273" y="607" type="curve" smooth="yes"/>
      <point x="216" y="607"/>
      <point x="198" y="602"/>
      <point x="161" y="602" type="curve" smooth="yes"/>
      <point x="121" y="602"/>
      <point x="118" y="603"/>
      <point x="65" y="603" type="curve" smooth="yes"/>
      <point x="48" y="603"/>
      <point x="36" y="602"/>
      <point x="36" y="599" type="curve" smooth="yes"/>
      <point x="36" y="595"/>
      <point x="46" y="592"/>
      <point x="69" y="591" type="curve" smooth="yes"/>
      <point x="126" y="588"/>
      <point x="130" y="583"/>
      <point x="130" y="520" type="curve" smooth="yes"/>
      <point x="130" y="60" type="line" smooth="yes"/>
      <point x="130" y="18"/>
      <point x="119" y="11"/>
      <point x="57" y="7" type="curve" smooth="yes"/>
      <point x="34" y="5"/>
      <point x="24" y="3"/>
      <point x="24" y="-1" type="curve" smooth="yes"/>
      <point x="24" y="-4"/>
      <point x="36" y="-5"/>
      <point x="53" y="-5" type="curve" smooth="yes"/>
      <point x="106" y="-5"/>
      <point x="130" y="2"/>
      <point x="181" y="2" type="curve" smooth="yes"/>
      <point x="218" y="2"/>
      <point x="224" y="-5"/>
      <point x="277" y="-5" type="curve" smooth="yes"/>
      <point x="293" y="-5"/>
      <point x="305" y="-4"/>
      <point x="305" y="-1" type="curve" smooth="yes"/>
      <point x="305" y="3"/>
      <point x="295" y="5"/>
      <point x="272" y="7" type="curve" smooth="yes"/>
      <point x="218" y="10"/>
      <point x="205" y="18"/>
      <point x="205" y="58" type="curve" smooth="yes"/>
      <point x="205" y="261" type="line" smooth="yes"/>
      <point x="205" y="273"/>
      <point x="209" y="282"/>
      <point x="220" y="281" type="curve" smooth="yes"/>
      <point x="238" y="279"/>
      <point x="270" y="274"/>
      <point x="299" y="260" type="curve" smooth="yes"/>
      <point x="319" y="250"/>
      <point x="332" y="239"/>
      <point x="344" y="222" type="curve" smooth="yes"/>
      <point x="411" y="122"/>
      <point x="444" y="85"/>
      <point x="492" y="31" type="curve" smooth="yes"/>
      <point x="529" y="-10"/>
      <point x="575" y="-21"/>
      <point x="632" y="-21" type="curve" smooth="yes"/>
      <point x="657" y="-21"/>
      <point x="713" y="-19"/>
    </contour>
    <contour>
      <point x="205" y="328" type="curve" smooth="yes"/>
      <point x="205" y="408"/>
      <point x="206" y="464"/>
      <point x="207" y="498" type="curve" smooth="yes"/>
      <point x="210" y="567"/>
      <point x="218" y="591"/>
      <point x="261" y="591" type="curve" smooth="yes"/>
      <point x="387" y="591"/>
      <point x="408" y="522"/>
      <point x="408" y="440" type="curve" smooth="yes"/>
      <point x="408" y="346"/>
      <point x="381" y="290"/>
      <point x="258" y="290" type="curve" smooth="yes"/>
      <point x="225" y="290"/>
      <point x="205" y="292"/>
    </contour>
  </outline>
</glyph>
<glyph name="S" format="1">
  <advance width="460"/>
  <unicode hex="0053"/>
  <outline>
    <contour>
      <point x="417" y="164" type="curve" smooth="yes"/>
      <point x="417" y="257"/>
      <point x="342" y="300"/>
      <point x="272" y="339" type="curve" smooth="yes"/>
      <point x="197" y="382"/>
      <point x="132" y="421"/>
      <point x="132" y="477" type="curve" smooth="yes"/>
      <point x="132" y="549"/>
      <point x="168" y="603"/>
      <point x="245" y="603" type="curve" smooth="yes"/>
      <point x="307" y="603"/>
      <point x="340" y="576"/>
      <point x="376" y="470" type="curve" smooth="yes"/>
      <point x="379" y="463"/>
      <point x="390" y="457"/>
      <point x="399" y="457" type="curve" smooth="yes"/>
      <point x="405" y="457"/>
      <point x="410" y="460"/>
      <point x="410" y="467" type="curve" smooth="yes"/>
      <point x="410" y="497"/>
      <point x="398" y="545"/>
      <point x="390" y="570" type="curve" smooth="yes"/>
      <point x="387" y="580"/>
      <point x="379" y="590"/>
      <point x="369" y="594" type="curve" smooth="yes"/>
      <point x="348" y="602"/>
      <point x="311" y="614"/>
      <point x="264" y="614" type="curve" smooth="yes"/>
      <point x="124" y="614"/>
      <point x="60" y="539"/>
      <point x="60" y="447" type="curve" smooth="yes"/>
      <point x="60" y="359"/>
      <point x="147" y="316"/>
      <point x="225" y="271" type="curve" smooth="yes"/>
      <point x="298" y="229"/>
      <point x="338" y="203"/>
      <point x="338" y="128" type="curve" smooth="yes"/>
      <point x="338" y="55"/>
      <point x="295" y="-6"/>
      <point x="218" y="-6" type="curve" smooth="yes"/>
      <point x="158" y="-6"/>
      <point x="99" y="28"/>
      <point x="70" y="160" type="curve" smooth="yes"/>
      <point x="68" y="167"/>
      <point x="59" y="171"/>
      <point x="56" y="171" type="curve" smooth="yes"/>
      <point x="49" y="171"/>
      <point x="40" y="166"/>
      <point x="40" y="157" type="curve"/>
      <point x="40" y="128"/>
      <point x="43" y="77"/>
      <point x="50" y="49" type="curve" smooth="yes"/>
      <point x="52" y="41"/>
      <point x="58" y="34"/>
      <point x="63" y="29" type="curve"/>
      <point x="99" y="0"/>
      <point x="147" y="-16"/>
      <point x="202" y="-16" type="curve" smooth="yes"/>
      <point x="331" y="-16"/>
      <point x="417" y="55"/>
    </contour>
  </outline>
</glyph>
<glyph name="T" format="1">
  <advance width="665"/>
  <unicode hex="0054"/>
  <outline>
    <contour>
      <point x="339" y="-3" type="curve" smooth="yes"/>
      <point x="385" y="-3"/>
      <point x="401" y="-5"/>
      <point x="455" y="-5" type="curve" smooth="yes"/>
      <point x="471" y="-5"/>
      <point x="483" y="-4"/>
      <point x="483" y="-1" type="curve" smooth="yes"/>
      <point x="483" y="2"/>
      <point x="473" y="4"/>
      <point x="450" y="5" type="curve" smooth="yes"/>
      <point x="400" y="9"/>
      <point x="371" y="16"/>
      <point x="371" y="53" type="curve" smooth="yes"/>
      <point x="371" y="474" type="line" smooth="yes"/>
      <point x="371" y="581"/>
      <point x="376" y="586"/>
      <point x="421" y="586" type="curve" smooth="yes"/>
      <point x="539" y="586" type="line" smooth="yes"/>
      <point x="595" y="586"/>
      <point x="614" y="563"/>
      <point x="619" y="527" type="curve" smooth="yes"/>
      <point x="623" y="494"/>
      <point x="626" y="475"/>
      <point x="635" y="475" type="curve" smooth="yes"/>
      <point x="644" y="475"/>
      <point x="649" y="495"/>
      <point x="649" y="507" type="curve" smooth="yes"/>
      <point x="649" y="519" type="line" smooth="yes"/>
      <point x="649" y="545"/>
      <point x="653" y="541"/>
      <point x="659" y="578" type="curve" smooth="yes"/>
      <point x="660" y="584"/>
      <point x="663" y="599"/>
      <point x="663" y="606" type="curve" smooth="yes"/>
      <point x="663" y="616"/>
      <point x="660" y="629"/>
      <point x="656" y="629" type="curve" smooth="yes"/>
      <point x="642" y="629"/>
      <point x="636" y="617"/>
      <point x="622" y="609" type="curve" smooth="yes"/>
      <point x="603" y="598"/>
      <point x="580" y="594"/>
      <point x="540" y="594" type="curve" smooth="yes"/>
      <point x="154" y="594" type="line" smooth="yes"/>
      <point x="132" y="594"/>
      <point x="106" y="600"/>
      <point x="100" y="614" type="curve" smooth="yes"/>
      <point x="95" y="625"/>
      <point x="84" y="646"/>
      <point x="80" y="646" type="curve" smooth="yes"/>
      <point x="75" y="646"/>
      <point x="66" y="645"/>
      <point x="63" y="623" type="curve" smooth="yes"/>
      <point x="57" y="581"/>
      <point x="51" y="556"/>
      <point x="32" y="518" type="curve" smooth="yes"/>
      <point x="29" y="512"/>
      <point x="27" y="504"/>
      <point x="27" y="498" type="curve" smooth="yes"/>
      <point x="27" y="491"/>
      <point x="32" y="485"/>
      <point x="36" y="485" type="curve" smooth="yes"/>
      <point x="49" y="485"/>
      <point x="65" y="506"/>
      <point x="78" y="535" type="curve" smooth="yes"/>
      <point x="94" y="569"/>
      <point x="120" y="586"/>
      <point x="149" y="586" type="curve" smooth="yes"/>
      <point x="208" y="586" type="line" smooth="yes"/>
      <point x="240" y="586"/>
      <point x="258" y="586"/>
      <point x="276" y="581" type="curve" smooth="yes"/>
      <point x="291" y="578"/>
      <point x="296" y="556"/>
      <point x="296" y="469" type="curve" smooth="yes"/>
      <point x="296" y="53" type="line" smooth="yes"/>
      <point x="296" y="16"/>
      <point x="268" y="9"/>
      <point x="218" y="5" type="curve" smooth="yes"/>
      <point x="195" y="4"/>
      <point x="185" y="2"/>
      <point x="185" y="-1" type="curve" smooth="yes"/>
      <point x="185" y="-4"/>
      <point x="197" y="-5"/>
      <point x="214" y="-5" type="curve" smooth="yes"/>
      <point x="267" y="-5"/>
      <point x="290" y="-3"/>
    </contour>
  </outline>
</glyph>
<glyph name="U" format="1">
  <advance width="717"/>
  <unicode hex="0055"/>
  <outline>
    <contour>
      <point x="351" y="-14" type="curve" smooth="yes"/>
      <point x="489" y="-14"/>
      <point x="591" y="92"/>
      <point x="597" y="243" type="curve" smooth="yes"/>
      <point x="600" y="323"/>
      <point x="600" y="397"/>
      <point x="607" y="535" type="curve" smooth="yes"/>
      <point x="611" y="578"/>
      <point x="624" y="587"/>
      <point x="667" y="592" type="curve" smooth="yes"/>
      <point x="695" y="595"/>
      <point x="707" y="597"/>
      <point x="707" y="600" type="curve" smooth="yes"/>
      <point x="707" y="602"/>
      <point x="695" y="603"/>
      <point x="678" y="603" type="curve" smooth="yes"/>
      <point x="656" y="603"/>
      <point x="630" y="600"/>
      <point x="599" y="600" type="curve" smooth="yes"/>
      <point x="570" y="600"/>
      <point x="555" y="601"/>
      <point x="525" y="602" type="curve" smooth="yes"/>
      <point x="508" y="602"/>
      <point x="497" y="602"/>
      <point x="497" y="599" type="curve" smooth="yes"/>
      <point x="497" y="596"/>
      <point x="520" y="594"/>
      <point x="538" y="590" type="curve" smooth="yes"/>
      <point x="572" y="584"/>
      <point x="586" y="566"/>
      <point x="589" y="510" type="curve" smooth="yes"/>
      <point x="591" y="401"/>
      <point x="590" y="321"/>
      <point x="590" y="281" type="curve" smooth="yes"/>
      <point x="590" y="134"/>
      <point x="530" y="36"/>
      <point x="389" y="36" type="curve" smooth="yes"/>
      <point x="265" y="36"/>
      <point x="175" y="104"/>
      <point x="175" y="255" type="curve" smooth="yes"/>
      <point x="175" y="537" type="line" smooth="yes"/>
      <point x="175" y="581"/>
      <point x="190" y="590"/>
      <point x="217" y="592" type="curve" smooth="yes"/>
      <point x="238" y="594"/>
      <point x="249" y="596"/>
      <point x="249" y="600" type="curve" smooth="yes"/>
      <point x="249" y="602"/>
      <point x="237" y="603"/>
      <point x="221" y="603" type="curve" smooth="yes"/>
      <point x="201" y="602"/>
      <point x="174" y="600"/>
      <point x="144" y="600" type="curve" smooth="yes"/>
      <point x="108" y="600"/>
      <point x="80" y="603"/>
      <point x="51" y="603" type="curve" smooth="yes"/>
      <point x="35" y="603"/>
      <point x="23" y="602"/>
      <point x="23" y="600" type="curve" smooth="yes"/>
      <point x="23" y="597"/>
      <point x="33" y="594"/>
      <point x="55" y="592" type="curve" smooth="yes"/>
      <point x="95" y="589"/>
      <point x="100" y="582"/>
      <point x="100" y="530" type="curve" smooth="yes"/>
      <point x="100" y="234" type="line" smooth="yes"/>
      <point x="100" y="85"/>
      <point x="185" y="-14"/>
    </contour>
  </outline>
</glyph>
<glyph name="V" format="1">
  <advance width="644"/>
  <unicode hex="0056"/>
  <outline>
    <contour>
      <point x="307" y="-12" type="curve" smooth="yes"/>
      <point x="311" y="-12"/>
      <point x="315" y="-9"/>
      <point x="317" y="-6" type="curve" smooth="yes"/>
      <point x="327" y="16"/>
      <point x="342" y="62"/>
      <point x="346" y="71" type="curve" smooth="yes"/>
      <point x="549" y="535" type="line" smooth="yes"/>
      <point x="566" y="570"/>
      <point x="570" y="590"/>
      <point x="626" y="593" type="curve" smooth="yes"/>
      <point x="648" y="594"/>
      <point x="658" y="596"/>
      <point x="658" y="599" type="curve" smooth="yes"/>
      <point x="658" y="601"/>
      <point x="648" y="602"/>
      <point x="634" y="602" type="curve" smooth="yes"/>
      <point x="611" y="602"/>
      <point x="570" y="599"/>
      <point x="537" y="599" type="curve" smooth="yes"/>
      <point x="504" y="599"/>
      <point x="475" y="600"/>
      <point x="452" y="600" type="curve" smooth="yes"/>
      <point x="438" y="600"/>
      <point x="428" y="600"/>
      <point x="428" y="597" type="curve" smooth="yes"/>
      <point x="428" y="595"/>
      <point x="439" y="593"/>
      <point x="472" y="591" type="curve" smooth="yes"/>
      <point x="556" y="584"/>
      <point x="561" y="584"/>
      <point x="516" y="486" type="curve" smooth="yes"/>
      <point x="352" y="105" type="line" smooth="yes"/>
      <point x="348" y="97"/>
      <point x="343" y="100"/>
      <point x="341" y="104" type="curve" smooth="yes"/>
      <point x="185" y="502" type="line"/>
      <point x="180" y="514"/>
      <point x="171" y="531"/>
      <point x="171" y="554" type="curve" smooth="yes"/>
      <point x="171" y="577"/>
      <point x="198" y="589"/>
      <point x="230" y="592" type="curve" smooth="yes"/>
      <point x="258" y="594"/>
      <point x="268" y="597"/>
      <point x="268" y="599" type="curve" smooth="yes"/>
      <point x="268" y="602"/>
      <point x="256" y="603"/>
      <point x="240" y="603" type="curve" smooth="yes"/>
      <point x="221" y="603"/>
      <point x="183" y="600"/>
      <point x="145" y="600" type="curve" smooth="yes"/>
      <point x="101" y="600"/>
      <point x="58" y="603"/>
      <point x="28" y="603" type="curve" smooth="yes"/>
      <point x="12" y="603"/>
      <point x="0" y="602"/>
      <point x="0" y="600" type="curve" smooth="yes"/>
      <point x="0" y="597"/>
      <point x="12" y="594"/>
      <point x="32" y="593" type="curve" smooth="yes"/>
      <point x="61" y="591"/>
      <point x="79" y="556"/>
      <point x="93" y="521" type="curve" smooth="yes"/>
      <point x="277" y="54" type="line" smooth="yes"/>
      <point x="284" y="37"/>
      <point x="291" y="7"/>
      <point x="297" y="-6" type="curve" smooth="yes"/>
      <point x="299" y="-10"/>
      <point x="303" y="-12"/>
    </contour>
  </outline>
</glyph>
<glyph name="W" format="1">
  <advance width="899"/>
  <unicode hex="0057"/>
  <outline>
    <contour>
      <point x="329" y="-16" type="curve" smooth="yes"/>
      <point x="337" y="-16"/>
      <point x="343" y="0"/>
      <point x="348" y="12" type="curve" smooth="yes"/>
      <point x="389" y="118"/>
      <point x="418" y="186"/>
      <point x="461" y="290" type="curve" smooth="yes"/>
      <point x="465" y="302"/>
      <point x="467" y="304"/>
      <point x="471" y="296" type="curve"/>
      <point x="517" y="189"/>
      <point x="542" y="114"/>
      <point x="593" y="5" type="curve" smooth="yes"/>
      <point x="597" y="-3"/>
      <point x="606" y="-12"/>
      <point x="611" y="-12" type="curve" smooth="yes"/>
      <point x="618" y="-12"/>
      <point x="625" y="3"/>
      <point x="627" y="9" type="curve" smooth="yes"/>
      <point x="804" y="541" type="line"/>
      <point x="817" y="580"/>
      <point x="837" y="593"/>
      <point x="872" y="595" type="curve" smooth="yes"/>
      <point x="890" y="596"/>
      <point x="896" y="598"/>
      <point x="896" y="600" type="curve" smooth="yes"/>
      <point x="896" y="602"/>
      <point x="885" y="603"/>
      <point x="868" y="603" type="curve" smooth="yes"/>
      <point x="844" y="603"/>
      <point x="829" y="602"/>
      <point x="797" y="602" type="curve" smooth="yes"/>
      <point x="778" y="602"/>
      <point x="763" y="602"/>
      <point x="744" y="602" type="curve" smooth="yes"/>
      <point x="731" y="602"/>
      <point x="724" y="602"/>
      <point x="724" y="600" type="curve" smooth="yes"/>
      <point x="724" y="597"/>
      <point x="737" y="596"/>
      <point x="747" y="595" type="curve" smooth="yes"/>
      <point x="780" y="592"/>
      <point x="788" y="588"/>
      <point x="790" y="562" type="curve" smooth="yes"/>
      <point x="790" y="557"/>
      <point x="788" y="549"/>
      <point x="786" y="541" type="curve"/>
      <point x="724" y="320"/>
      <point x="673" y="188"/>
      <point x="643" y="104" type="curve"/>
      <point x="640" y="95"/>
      <point x="635" y="92"/>
      <point x="633" y="98" type="curve" smooth="yes"/>
      <point x="517" y="375" type="line"/>
      <point x="514" y="381"/>
      <point x="519" y="401"/>
      <point x="523" y="410" type="curve" smooth="yes"/>
      <point x="539" y="450"/>
      <point x="568" y="516"/>
      <point x="576" y="534" type="curve" smooth="yes"/>
      <point x="594" y="576"/>
      <point x="603" y="589"/>
      <point x="646" y="592" type="curve" smooth="yes"/>
      <point x="667" y="593"/>
      <point x="678" y="596"/>
      <point x="678" y="599" type="curve" smooth="yes"/>
      <point x="678" y="602"/>
      <point x="667" y="603"/>
      <point x="650" y="603" type="curve" smooth="yes"/>
      <point x="626" y="603"/>
      <point x="615" y="600"/>
      <point x="592" y="600" type="curve" smooth="yes"/>
      <point x="574" y="600"/>
      <point x="569" y="602"/>
      <point x="541" y="602" type="curve" smooth="yes"/>
      <point x="524" y="602"/>
      <point x="513" y="603"/>
      <point x="513" y="595" type="curve" smooth="yes"/>
      <point x="513" y="586"/>
      <point x="570" y="595"/>
      <point x="570" y="569" type="curve" smooth="yes"/>
      <point x="570" y="563"/>
      <point x="568" y="554"/>
      <point x="565" y="546" type="curve"/>
      <point x="558" y="531"/>
      <point x="526" y="451"/>
      <point x="513" y="417" type="curve" smooth="yes"/>
      <point x="507" y="399"/>
      <point x="503" y="402"/>
      <point x="496" y="416" type="curve" smooth="yes"/>
      <point x="488" y="434"/>
      <point x="451" y="515"/>
      <point x="434" y="567" type="curve" smooth="yes"/>
      <point x="433" y="570"/>
      <point x="432" y="575"/>
      <point x="432" y="576" type="curve" smooth="yes"/>
      <point x="432" y="595"/>
      <point x="482" y="594"/>
      <point x="482" y="598" type="curve" smooth="yes"/>
      <point x="482" y="601"/>
      <point x="466" y="602"/>
      <point x="443" y="602" type="curve" smooth="yes"/>
      <point x="435" y="602"/>
      <point x="409" y="600"/>
      <point x="380" y="600" type="curve" smooth="yes"/>
      <point x="345" y="600"/>
      <point x="319" y="603"/>
      <point x="282" y="603" type="curve" smooth="yes"/>
      <point x="269" y="603"/>
      <point x="261" y="602"/>
      <point x="261" y="600" type="curve" smooth="yes"/>
      <point x="261" y="597"/>
      <point x="269" y="593"/>
      <point x="285" y="593" type="curve" smooth="yes"/>
      <point x="342" y="593"/>
      <point x="347" y="582"/>
      <point x="358" y="561" type="curve" smooth="yes"/>
      <point x="448" y="344" type="line" smooth="yes"/>
      <point x="453" y="332"/>
      <point x="456" y="325"/>
      <point x="456" y="318" type="curve" smooth="yes"/>
      <point x="456" y="312"/>
      <point x="454" y="306"/>
      <point x="450" y="296" type="curve" smooth="yes"/>
      <point x="375" y="108" type="line"/>
      <point x="371" y="97"/>
      <point x="367" y="94"/>
      <point x="360" y="109" type="curve" smooth="yes"/>
      <point x="291" y="249"/>
      <point x="244" y="352"/>
      <point x="169" y="544" type="curve"/>
      <point x="164" y="558"/>
      <point x="160" y="569"/>
      <point x="160" y="576" type="curve" smooth="yes"/>
      <point x="160" y="583"/>
      <point x="164" y="589"/>
      <point x="185" y="590" type="curve" smooth="yes"/>
      <point x="218" y="592"/>
      <point x="232" y="593"/>
      <point x="232" y="597" type="curve" smooth="yes"/>
      <point x="232" y="601"/>
      <point x="220" y="602"/>
      <point x="204" y="602" type="curve" smooth="yes"/>
      <point x="185" y="602"/>
      <point x="150" y="600"/>
      <point x="114" y="600" type="curve" smooth="yes"/>
      <point x="81" y="600"/>
      <point x="58" y="603"/>
      <point x="20" y="603" type="curve" smooth="yes"/>
      <point x="9" y="603"/>
      <point x="0" y="602"/>
      <point x="0" y="600" type="curve" smooth="yes"/>
      <point x="0" y="597"/>
      <point x="8" y="596"/>
      <point x="23" y="594" type="curve" smooth="yes"/>
      <point x="46" y="591"/>
      <point x="66" y="591"/>
      <point x="74" y="575" type="curve"/>
      <point x="314" y="10" type="line" smooth="yes"/>
      <point x="319" y="-2"/>
      <point x="325" y="-16"/>
    </contour>
  </outline>
</glyph>
<glyph name="X" format="1">
  <advance width="687"/>
  <unicode hex="0058"/>
  <outline>
    <contour>
      <point x="23" y="-4" type="curve" smooth="yes"/>
      <point x="56" y="-4"/>
      <point x="103" y="0"/>
      <point x="147" y="0" type="curve" smooth="yes"/>
      <point x="182" y="0"/>
      <point x="217" y="0"/>
      <point x="235" y="0" type="curve" smooth="yes"/>
      <point x="251" y="0"/>
      <point x="263" y="1"/>
      <point x="263" y="4" type="curve" smooth="yes"/>
      <point x="263" y="7"/>
      <point x="253" y="9"/>
      <point x="231" y="12" type="curve"/>
      <point x="176" y="18"/>
      <point x="149" y="19"/>
      <point x="149" y="35" type="curve" smooth="yes"/>
      <point x="149" y="43"/>
      <point x="156" y="55"/>
      <point x="170" y="74" type="curve" smooth="yes"/>
      <point x="318" y="256" type="line" smooth="yes"/>
      <point x="325" y="264"/>
      <point x="330" y="265"/>
      <point x="340" y="251" type="curve" smooth="yes"/>
      <point x="456" y="88" type="line"/>
      <point x="466" y="75"/>
      <point x="470" y="65"/>
      <point x="471" y="55" type="curve" smooth="yes"/>
      <point x="471" y="33"/>
      <point x="462" y="20"/>
      <point x="417" y="14" type="curve" smooth="yes"/>
      <point x="404" y="12"/>
      <point x="385" y="10"/>
      <point x="385" y="6" type="curve" smooth="yes"/>
      <point x="385" y="3"/>
      <point x="397" y="2"/>
      <point x="413" y="2" type="curve" smooth="yes"/>
      <point x="436" y="2"/>
      <point x="474" y="3"/>
      <point x="514" y="3" type="curve" smooth="yes"/>
      <point x="559" y="3"/>
      <point x="624" y="-3"/>
      <point x="651" y="-3" type="curve" smooth="yes"/>
      <point x="667" y="-3"/>
      <point x="679" y="-2"/>
      <point x="679" y="1" type="curve" smooth="yes"/>
      <point x="679" y="5"/>
      <point x="669" y="7"/>
      <point x="647" y="9" type="curve" smooth="yes"/>
      <point x="625" y="10"/>
      <point x="585" y="47"/>
      <point x="557" y="84" type="curve" smooth="yes"/>
      <point x="386" y="317" type="line"/>
      <point x="379" y="331"/>
      <point x="384" y="336"/>
      <point x="398" y="355" type="curve" smooth="yes"/>
      <point x="518" y="515" type="line" smooth="yes"/>
      <point x="564" y="577"/>
      <point x="596" y="587"/>
      <point x="644" y="590" type="curve" smooth="yes"/>
      <point x="666" y="592"/>
      <point x="676" y="594"/>
      <point x="676" y="598" type="curve" smooth="yes"/>
      <point x="676" y="601"/>
      <point x="664" y="602"/>
      <point x="648" y="602" type="curve" smooth="yes"/>
      <point x="621" y="602"/>
      <point x="574" y="600"/>
      <point x="536" y="600" type="curve" smooth="yes"/>
      <point x="506" y="600"/>
      <point x="480" y="600"/>
      <point x="456" y="600" type="curve" smooth="yes"/>
      <point x="440" y="600"/>
      <point x="428" y="599"/>
      <point x="428" y="596" type="curve" smooth="yes"/>
      <point x="428" y="592"/>
      <point x="447" y="588"/>
      <point x="460" y="588" type="curve" smooth="yes"/>
      <point x="510" y="589"/>
      <point x="529" y="572"/>
      <point x="529" y="557" type="curve" smooth="yes"/>
      <point x="529" y="545"/>
      <point x="516" y="529"/>
      <point x="501" y="509" type="curve" smooth="yes"/>
      <point x="389" y="356" type="line" smooth="yes"/>
      <point x="378" y="342"/>
      <point x="372" y="338"/>
      <point x="358" y="357" type="curve" smooth="yes"/>
      <point x="243" y="513" type="line" smooth="yes"/>
      <point x="222" y="542"/>
      <point x="212" y="558"/>
      <point x="212" y="570" type="curve" smooth="yes"/>
      <point x="212" y="584"/>
      <point x="239" y="591"/>
      <point x="272" y="593" type="curve" smooth="yes"/>
      <point x="293" y="595"/>
      <point x="302" y="597"/>
      <point x="302" y="600" type="curve" smooth="yes"/>
      <point x="302" y="603"/>
      <point x="291" y="604"/>
      <point x="274" y="604" type="curve" smooth="yes"/>
      <point x="257" y="604"/>
      <point x="222" y="603"/>
      <point x="183" y="603" type="curve" smooth="yes"/>
      <point x="135" y="603"/>
      <point x="77" y="605"/>
      <point x="45" y="605" type="curve" smooth="yes"/>
      <point x="29" y="605"/>
      <point x="18" y="604"/>
      <point x="18" y="601" type="curve" smooth="yes"/>
      <point x="18" y="598"/>
      <point x="29" y="595"/>
      <point x="50" y="593" type="curve" smooth="yes"/>
      <point x="77" y="590"/>
      <point x="101" y="569"/>
      <point x="152" y="505" type="curve" smooth="yes"/>
      <point x="303" y="305" type="line" smooth="yes"/>
      <point x="323" y="279"/>
      <point x="313" y="263"/>
      <point x="297" y="245" type="curve"/>
      <point x="174" y="97" type="line" smooth="yes"/>
      <point x="133" y="48"/>
      <point x="62" y="16"/>
      <point x="36" y="13" type="curve" smooth="yes"/>
      <point x="6" y="8"/>
      <point x="-5" y="4"/>
      <point x="-5" y="0" type="curve" smooth="yes"/>
      <point x="-5" y="-3"/>
      <point x="7" y="-4"/>
    </contour>
  </outline>
</glyph>
<glyph name="Y" format="1">
  <advance width="561"/>
  <unicode hex="0059"/>
  <outline>
    <contour>
      <point x="176" y="-5" type="curve" smooth="yes"/>
      <point x="228" y="-5"/>
      <point x="251" y="-4"/>
      <point x="299" y="-4" type="curve" smooth="yes"/>
      <point x="343" y="-4"/>
      <point x="359" y="-5"/>
      <point x="411" y="-5" type="curve" smooth="yes"/>
      <point x="428" y="-5"/>
      <point x="440" y="-4"/>
      <point x="440" y="-2" type="curve" smooth="yes"/>
      <point x="440" y="0"/>
      <point x="430" y="2"/>
      <point x="408" y="3" type="curve" smooth="yes"/>
      <point x="359" y="5"/>
      <point x="331" y="13"/>
      <point x="331" y="38" type="curve" smooth="yes"/>
      <point x="331" y="261" type="line" smooth="yes"/>
      <point x="331" y="297"/>
      <point x="330" y="304"/>
      <point x="355" y="344" type="curve" smooth="yes"/>
      <point x="398" y="410"/>
      <point x="418" y="443"/>
      <point x="462" y="516" type="curve" smooth="yes"/>
      <point x="495" y="567"/>
      <point x="516" y="586"/>
      <point x="552" y="592" type="curve" smooth="yes"/>
      <point x="576" y="595"/>
      <point x="602" y="596"/>
      <point x="602" y="599" type="curve" smooth="yes"/>
      <point x="602" y="602"/>
      <point x="591" y="603"/>
      <point x="574" y="603" type="curve" smooth="yes"/>
      <point x="551" y="603"/>
      <point x="512" y="602"/>
      <point x="472" y="602" type="curve" smooth="yes"/>
      <point x="443" y="602"/>
      <point x="428" y="602"/>
      <point x="398" y="602" type="curve" smooth="yes"/>
      <point x="381" y="602"/>
      <point x="370" y="601"/>
      <point x="370" y="599" type="curve" smooth="yes"/>
      <point x="370" y="597"/>
      <point x="387" y="594"/>
      <point x="400" y="593" type="curve" smooth="yes"/>
      <point x="446" y="591"/>
      <point x="465" y="579"/>
      <point x="464" y="556" type="curve" smooth="yes"/>
      <point x="464" y="548"/>
      <point x="459" y="537"/>
      <point x="452" y="525" type="curve" smooth="yes"/>
      <point x="421" y="473"/>
      <point x="382" y="405"/>
      <point x="355" y="363" type="curve" smooth="yes"/>
      <point x="337" y="337"/>
      <point x="327" y="312"/>
      <point x="319" y="312" type="curve" smooth="yes"/>
      <point x="314" y="312"/>
      <point x="306" y="324"/>
      <point x="292" y="347" type="curve" smooth="yes"/>
      <point x="173" y="552" type="line" smooth="yes"/>
      <point x="167" y="562"/>
      <point x="160" y="570"/>
      <point x="160" y="578" type="curve" smooth="yes"/>
      <point x="160" y="588"/>
      <point x="181" y="591"/>
      <point x="212" y="592" type="curve" smooth="yes"/>
      <point x="234" y="593"/>
      <point x="244" y="595"/>
      <point x="244" y="598" type="curve" smooth="yes"/>
      <point x="244" y="600"/>
      <point x="233" y="601"/>
      <point x="217" y="601" type="curve" smooth="yes"/>
      <point x="197" y="601"/>
      <point x="170" y="600"/>
      <point x="140" y="600" type="curve" smooth="yes"/>
      <point x="96" y="600"/>
      <point x="57" y="601"/>
      <point x="28" y="601" type="curve" smooth="yes"/>
      <point x="12" y="601"/>
      <point x="0" y="600"/>
      <point x="0" y="598" type="curve" smooth="yes"/>
      <point x="0" y="595"/>
      <point x="11" y="598"/>
      <point x="34" y="592" type="curve" smooth="yes"/>
      <point x="59" y="585"/>
      <point x="70" y="562"/>
      <point x="83" y="541" type="curve" smooth="yes"/>
      <point x="231" y="307" type="line"/>
      <point x="236" y="298"/>
      <point x="256" y="264"/>
      <point x="256" y="239" type="curve" smooth="yes"/>
      <point x="256" y="38" type="line" smooth="yes"/>
      <point x="256" y="12"/>
      <point x="228" y="5"/>
      <point x="180" y="3" type="curve" smooth="yes"/>
      <point x="157" y="2"/>
      <point x="147" y="0"/>
      <point x="147" y="-2" type="curve" smooth="yes"/>
      <point x="147" y="-4"/>
      <point x="159" y="-5"/>
    </contour>
  </outline>
</glyph>
<glyph name="Z" format="1">
  <advance width="589"/>
  <unicode hex="005A"/>
  <outline>
    <contour>
      <point x="521" y="-5" type="curve" smooth="yes"/>
      <point x="531" y="-5"/>
      <point x="535" y="4"/>
      <point x="538" y="12" type="curve" smooth="yes"/>
      <point x="549" y="36"/>
      <point x="575" y="146"/>
      <point x="575" y="158" type="curve" smooth="yes"/>
      <point x="575" y="167"/>
      <point x="571" y="171"/>
      <point x="565" y="171" type="curve" smooth="yes"/>
      <point x="555" y="171"/>
      <point x="547" y="158"/>
      <point x="544" y="148" type="curve" smooth="yes"/>
      <point x="518" y="63"/>
      <point x="480" y="18"/>
      <point x="423" y="13" type="curve" smooth="yes"/>
      <point x="373" y="9"/>
      <point x="321" y="8"/>
      <point x="276" y="8" type="curve" smooth="yes"/>
      <point x="230" y="8"/>
      <point x="187" y="11"/>
      <point x="166" y="13" type="curve"/>
      <point x="150" y="15"/>
      <point x="146" y="22"/>
      <point x="146" y="29" type="curve" smooth="yes"/>
      <point x="146" y="33"/>
      <point x="147" y="37"/>
      <point x="149" y="40" type="curve" smooth="yes"/>
      <point x="268" y="206"/>
      <point x="364" y="337"/>
      <point x="495" y="505" type="curve" smooth="yes"/>
      <point x="557" y="582" type="line" smooth="yes"/>
      <point x="561" y="587"/>
      <point x="552" y="600"/>
      <point x="546" y="600" type="curve" smooth="yes"/>
      <point x="474" y="598"/>
      <point x="402" y="597"/>
      <point x="320" y="597" type="curve" smooth="yes"/>
      <point x="276" y="597"/>
      <point x="229" y="597"/>
      <point x="197" y="597" type="curve" smooth="yes"/>
      <point x="164" y="597"/>
      <point x="126" y="607"/>
      <point x="113" y="613" type="curve" smooth="yes"/>
      <point x="102" y="618"/>
      <point x="88" y="627"/>
      <point x="83" y="627" type="curve" smooth="yes"/>
      <point x="78" y="627"/>
      <point x="69" y="625"/>
      <point x="68" y="610" type="curve" smooth="yes"/>
      <point x="65" y="568"/>
      <point x="50" y="516"/>
      <point x="45" y="495" type="curve"/>
      <point x="43" y="485"/>
      <point x="38" y="472"/>
      <point x="38" y="464" type="curve" smooth="yes"/>
      <point x="39" y="457"/>
      <point x="44" y="453"/>
      <point x="50" y="455" type="curve" smooth="yes"/>
      <point x="64" y="458"/>
      <point x="72" y="484"/>
      <point x="75" y="497" type="curve"/>
      <point x="90" y="540"/>
      <point x="114" y="577"/>
      <point x="175" y="583" type="curve" smooth="yes"/>
      <point x="197" y="585"/>
      <point x="231" y="585"/>
      <point x="262" y="585" type="curve" smooth="yes"/>
      <point x="314" y="585"/>
      <point x="388" y="584"/>
      <point x="423" y="583" type="curve"/>
      <point x="438" y="582"/>
      <point x="442" y="579"/>
      <point x="442" y="575" type="curve" smooth="yes"/>
      <point x="442" y="572"/>
      <point x="440" y="570"/>
      <point x="438" y="567" type="curve" smooth="yes"/>
      <point x="315" y="393"/>
      <point x="215" y="265"/>
      <point x="85" y="96" type="curve" smooth="yes"/>
      <point x="62" y="68"/>
      <point x="27" y="20"/>
      <point x="27" y="11" type="curve"/>
      <point x="27" y="11"/>
      <point x="28" y="-3"/>
      <point x="34" y="-3" type="curve" smooth="yes"/>
      <point x="109" y="-3" type="line" smooth="yes"/>
      <point x="146" y="-3"/>
      <point x="186" y="-2"/>
      <point x="226" y="-2" type="curve" smooth="yes"/>
      <point x="313" y="-2"/>
      <point x="409" y="-5"/>
    </contour>
  </outline>
</glyph>
<glyph name="bracketleft" format="1">
  <advance width="327"/>
  <unicode hex="005B"/>
  <outline>
    <contour>
      <point x="281" y="-200" type="line" smooth="yes"/>
      <point x="293" y="-200"/>
      <point x="307" y="-199"/>
      <point x="307" y="-195" type="curve" smooth="yes"/>
      <point x="307" y="-192"/>
      <point x="294" y="-190"/>
      <point x="281" y="-190" type="curve"/>
      <point x="202" y="-188" type="line" smooth="yes"/>
      <point x="190" y="-188"/>
      <point x="179" y="-183"/>
      <point x="179" y="-145" type="curve" smooth="yes"/>
      <point x="179" y="650" type="line" smooth="yes"/>
      <point x="179" y="684"/>
      <point x="185" y="688"/>
      <point x="202" y="690" type="curve" smooth="yes"/>
      <point x="281" y="692" type="line" smooth="yes"/>
      <point x="294" y="692"/>
      <point x="307" y="693"/>
      <point x="307" y="697" type="curve" smooth="yes"/>
      <point x="307" y="700"/>
      <point x="298" y="701"/>
      <point x="289" y="701" type="curve" smooth="yes"/>
      <point x="148" y="702" type="line" smooth="yes"/>
      <point x="116" y="702"/>
      <point x="110" y="702"/>
      <point x="110" y="668" type="curve" smooth="yes"/>
      <point x="110" y="-175" type="line" smooth="yes"/>
      <point x="110" y="-199"/>
      <point x="118" y="-200"/>
      <point x="141" y="-200" type="curve" smooth="yes"/>
    </contour>
  </outline>
</glyph>
<glyph name="asciicircum" format="1">
  <advance width="500"/>
  <unicode hex="005E"/>
  <outline>
    <contour>
      <point x="55" y="289" type="curve" smooth="yes"/>
      <point x="248" y="585" type="line"/>
      <point x="248" y="586"/>
      <point x="249" y="586"/>
      <point x="250" y="585" type="curve"/>
      <point x="449" y="290" type="line" smooth="yes"/>
      <point x="451" y="287"/>
      <point x="455" y="285"/>
      <point x="457" y="285" type="curve" smooth="yes"/>
      <point x="459" y="285"/>
      <point x="461" y="289"/>
      <point x="459" y="290" type="curve"/>
      <point x="249" y="605" type="line"/>
      <point x="248" y="605" type="line"/>
      <point x="45" y="289" type="line"/>
      <point x="45" y="289"/>
      <point x="43" y="288"/>
      <point x="43" y="286" type="curve" smooth="yes"/>
      <point x="43" y="285"/>
      <point x="45" y="284"/>
      <point x="46" y="284" type="curve" smooth="yes"/>
      <point x="48" y="284"/>
      <point x="53" y="286"/>
    </contour>
  </outline>
</glyph>
<glyph name="grave" format="1">
  <advance width="189"/>
  <unicode hex="0060"/>
  <outline>
    <contour>
      <point x="167" y="494" type="curve" smooth="yes"/>
      <point x="167" y="498"/>
      <point x="165" y="506"/>
      <point x="162" y="514" type="curve" smooth="yes"/>
      <point x="149" y="551"/>
      <point x="112" y="633"/>
      <point x="94" y="662" type="curve" smooth="yes"/>
      <point x="88" y="672"/>
      <point x="78" y="680"/>
      <point x="68" y="680" type="curve" smooth="yes"/>
      <point x="44" y="680"/>
      <point x="22" y="674"/>
      <point x="22" y="660" type="curve" smooth="yes"/>
      <point x="22" y="653"/>
      <point x="26" y="648"/>
      <point x="32" y="639" type="curve" smooth="yes"/>
      <point x="56" y="604"/>
      <point x="118" y="531"/>
      <point x="149" y="502" type="curve" smooth="yes"/>
      <point x="155" y="495"/>
      <point x="163" y="487"/>
      <point x="165" y="487" type="curve" smooth="yes"/>
      <point x="169" y="487"/>
      <point x="167" y="486"/>
    </contour>
  </outline>
</glyph>
<glyph name="a" format="1">
  <advance width="383"/>
  <unicode hex="0061"/>
  <outline>
    <contour>
      <point x="113" y="-14" type="curve" smooth="yes"/>
      <point x="154" y="-14"/>
      <point x="204" y="13"/>
      <point x="232" y="58" type="curve"/>
      <point x="235" y="58" type="line"/>
      <point x="243" y="11"/>
      <point x="276" y="-14"/>
      <point x="305" y="-14" type="curve" smooth="yes"/>
      <point x="326" y="-14"/>
      <point x="352" y="5"/>
      <point x="377" y="35" type="curve" smooth="yes"/>
      <point x="379" y="38"/>
      <point x="382" y="44"/>
      <point x="382" y="47" type="curve" smooth="yes"/>
      <point x="382" y="49"/>
      <point x="383" y="52"/>
      <point x="379" y="52" type="curve" smooth="yes"/>
      <point x="375" y="52"/>
      <point x="373" y="47"/>
      <point x="368" y="41" type="curve" smooth="yes"/>
      <point x="360" y="30"/>
      <point x="344" y="20"/>
      <point x="331" y="20" type="curve" smooth="yes"/>
      <point x="304" y="20"/>
      <point x="291" y="39"/>
      <point x="292" y="73" type="curve" smooth="yes"/>
      <point x="297" y="355" type="line" smooth="yes"/>
      <point x="298" y="406"/>
      <point x="265" y="444"/>
      <point x="219" y="444" type="curve" smooth="yes"/>
      <point x="181" y="444"/>
      <point x="118" y="411"/>
      <point x="77" y="370" type="curve" smooth="yes"/>
      <point x="54" y="348"/>
      <point x="40" y="321"/>
      <point x="40" y="300" type="curve" smooth="yes"/>
      <point x="40" y="295"/>
      <point x="43" y="291"/>
      <point x="50" y="291" type="curve" smooth="yes"/>
      <point x="68" y="291"/>
      <point x="111" y="316"/>
      <point x="112" y="326" type="curve" smooth="yes"/>
      <point x="112" y="331"/>
      <point x="111" y="339"/>
      <point x="111" y="344" type="curve" smooth="yes"/>
      <point x="111" y="368"/>
      <point x="115" y="385"/>
      <point x="123" y="396" type="curve" smooth="yes"/>
      <point x="132" y="409"/>
      <point x="149" y="416"/>
      <point x="173" y="416" type="curve" smooth="yes"/>
      <point x="210" y="416"/>
      <point x="231" y="383"/>
      <point x="230" y="342" type="curve" smooth="yes"/>
      <point x="228" y="254" type="line" smooth="yes"/>
      <point x="228" y="226"/>
      <point x="227" y="223"/>
      <point x="202" y="212" type="curve" smooth="yes"/>
      <point x="104" y="167" type="line" smooth="yes"/>
      <point x="57" y="145"/>
      <point x="36" y="123"/>
      <point x="36" y="78" type="curve" smooth="yes"/>
      <point x="36" y="38"/>
      <point x="78" y="-14"/>
    </contour>
    <contour>
      <point x="156" y="13" type="curve" smooth="yes"/>
      <point x="133" y="13"/>
      <point x="109" y="47"/>
      <point x="109" y="96" type="curve" smooth="yes"/>
      <point x="109" y="131"/>
      <point x="128" y="167"/>
      <point x="200" y="204" type="curve" smooth="yes"/>
      <point x="211" y="210"/>
      <point x="217" y="210"/>
      <point x="220" y="210" type="curve" smooth="yes"/>
      <point x="228" y="210"/>
      <point x="229" y="201"/>
      <point x="228" y="181" type="curve" smooth="yes"/>
      <point x="227" y="104" type="line" smooth="yes"/>
      <point x="226" y="69"/>
      <point x="222" y="55"/>
      <point x="215" y="46" type="curve" smooth="yes"/>
      <point x="200" y="25"/>
      <point x="182" y="13"/>
    </contour>
  </outline>
</glyph>
<glyph name="b" format="1">
  <advance width="496"/>
  <unicode hex="0062"/>
  <outline>
    <contour>
      <point x="249" y="-14" type="curve" smooth="yes"/>
      <point x="375" y="-14"/>
      <point x="462" y="87"/>
      <point x="462" y="233" type="curve" smooth="yes"/>
      <point x="462" y="352"/>
      <point x="386" y="444"/>
      <point x="288" y="444" type="curve" smooth="yes"/>
      <point x="246" y="444"/>
      <point x="187" y="419"/>
      <point x="147" y="383" type="curve"/>
      <point x="140" y="384"/>
      <point x="138" y="390"/>
      <point x="138" y="418" type="curve" smooth="yes"/>
      <point x="138" y="542" type="line" smooth="yes"/>
      <point x="138" y="598"/>
      <point x="141" y="642"/>
      <point x="141" y="647" type="curve" smooth="yes"/>
      <point x="141" y="651"/>
      <point x="138" y="654"/>
      <point x="136" y="654" type="curve" smooth="yes"/>
      <point x="134" y="654"/>
      <point x="130" y="653"/>
      <point x="127" y="651" type="curve" smooth="yes"/>
      <point x="114" y="645"/>
      <point x="54" y="623"/>
      <point x="27" y="619" type="curve" smooth="yes"/>
      <point x="22" y="618"/>
      <point x="15" y="617"/>
      <point x="15" y="614" type="curve" smooth="yes"/>
      <point x="15" y="613"/>
      <point x="22" y="611"/>
      <point x="28" y="611" type="curve" smooth="yes"/>
      <point x="68" y="603"/>
      <point x="73" y="602"/>
      <point x="73" y="570" type="curve" smooth="yes"/>
      <point x="73" y="81" type="line" smooth="yes"/>
      <point x="73" y="56"/>
      <point x="66" y="21"/>
      <point x="66" y="9" type="curve" smooth="yes"/>
      <point x="66" y="2"/>
      <point x="68" y="-3"/>
      <point x="70" y="-3" type="curve" smooth="yes"/>
      <point x="70" y="-3"/>
      <point x="71" y="-1"/>
      <point x="72" y="2" type="curve" smooth="yes"/>
      <point x="74" y="8"/>
      <point x="78" y="15"/>
      <point x="87" y="15" type="curve" smooth="yes"/>
      <point x="94" y="15"/>
      <point x="129" y="7"/>
      <point x="159" y="-1" type="curve" smooth="yes"/>
      <point x="186" y="-8"/>
      <point x="218" y="-14"/>
    </contour>
    <contour>
      <point x="272" y="-6" type="curve" smooth="yes"/>
      <point x="195" y="-6"/>
      <point x="138" y="37"/>
      <point x="138" y="126" type="curve" smooth="yes"/>
      <point x="138" y="362" type="line"/>
      <point x="167" y="395"/>
      <point x="205" y="417"/>
      <point x="257" y="417" type="curve" smooth="yes"/>
      <point x="350" y="417"/>
      <point x="391" y="297"/>
      <point x="391" y="206" type="curve" smooth="yes"/>
      <point x="391" y="85"/>
      <point x="346" y="-6"/>
    </contour>
  </outline>
</glyph>
<glyph name="c" format="1">
  <advance width="395"/>
  <unicode hex="0063"/>
  <outline>
    <contour>
      <point x="206" y="-14" type="curve" smooth="yes"/>
      <point x="265" y="-14"/>
      <point x="309" y="7"/>
      <point x="340" y="53" type="curve" smooth="yes"/>
      <point x="350" y="68"/>
      <point x="357" y="86"/>
      <point x="357" y="97" type="curve" smooth="yes"/>
      <point x="358" y="101"/>
      <point x="358" y="103"/>
      <point x="355" y="103" type="curve" smooth="yes"/>
      <point x="353" y="103"/>
      <point x="352" y="101"/>
      <point x="350" y="98" type="curve" smooth="yes"/>
      <point x="318" y="59"/>
      <point x="287" y="41"/>
      <point x="245" y="41" type="curve" smooth="yes"/>
      <point x="158" y="41"/>
      <point x="99" y="117"/>
      <point x="99" y="228" type="curve" smooth="yes"/>
      <point x="99" y="349"/>
      <point x="143" y="434"/>
      <point x="206" y="434" type="curve" smooth="yes"/>
      <point x="232" y="434"/>
      <point x="269" y="396"/>
      <point x="298" y="363" type="curve" smooth="yes"/>
      <point x="305" y="354"/>
      <point x="311" y="348"/>
      <point x="318" y="348" type="curve" smooth="yes"/>
      <point x="335" y="348"/>
      <point x="361" y="371"/>
      <point x="361" y="388" type="curve" smooth="yes"/>
      <point x="361" y="396"/>
      <point x="357" y="402"/>
      <point x="349" y="408" type="curve" smooth="yes"/>
      <point x="318" y="432"/>
      <point x="280" y="444"/>
      <point x="239" y="444" type="curve" smooth="yes"/>
      <point x="123" y="444"/>
      <point x="34" y="334"/>
      <point x="34" y="194" type="curve" smooth="yes"/>
      <point x="34" y="75"/>
      <point x="109" y="-14"/>
    </contour>
  </outline>
</glyph>
<glyph name="d" format="1">
  <advance width="489"/>
  <unicode hex="0064"/>
  <outline>
    <contour>
      <point x="345" y="-19" type="curve" smooth="yes"/>
      <point x="349" y="-19"/>
      <point x="350" y="-19"/>
      <point x="361" y="-13" type="curve" smooth="yes"/>
      <point x="406" y="7"/>
      <point x="438" y="16"/>
      <point x="473" y="21" type="curve" smooth="yes"/>
      <point x="480" y="21"/>
      <point x="487" y="23"/>
      <point x="487" y="27" type="curve" smooth="yes"/>
      <point x="487" y="30"/>
      <point x="482" y="30"/>
      <point x="469" y="29" type="curve" smooth="yes"/>
      <point x="452" y="28"/>
      <point x="434" y="29"/>
      <point x="427" y="29" type="curve" smooth="yes"/>
      <point x="411" y="29"/>
      <point x="407" y="40"/>
      <point x="407" y="70" type="curve" smooth="yes"/>
      <point x="407" y="512" type="line" smooth="yes"/>
      <point x="407" y="602"/>
      <point x="413" y="636"/>
      <point x="413" y="648" type="curve"/>
      <point x="412" y="652"/>
      <point x="410" y="654"/>
      <point x="407" y="654" type="curve" smooth="yes"/>
      <point x="404" y="654"/>
      <point x="399" y="653"/>
      <point x="394" y="650" type="curve" smooth="yes"/>
      <point x="376" y="643"/>
      <point x="346" y="638"/>
      <point x="291" y="620" type="curve" smooth="yes"/>
      <point x="285" y="618"/>
      <point x="283" y="617"/>
      <point x="283" y="616" type="curve" smooth="yes"/>
      <point x="283" y="614"/>
      <point x="286" y="613"/>
      <point x="292" y="612" type="curve" smooth="yes"/>
      <point x="329" y="611"/>
      <point x="341" y="607"/>
      <point x="341" y="576" type="curve" smooth="yes"/>
      <point x="341" y="442" type="line" smooth="yes"/>
      <point x="341" y="431"/>
      <point x="337" y="428"/>
      <point x="334" y="428" type="curve" smooth="yes"/>
      <point x="331" y="428"/>
      <point x="327" y="428"/>
      <point x="322" y="431" type="curve" smooth="yes"/>
      <point x="307" y="437"/>
      <point x="277" y="444"/>
      <point x="251" y="444" type="curve" smooth="yes"/>
      <point x="116" y="444"/>
      <point x="34" y="331"/>
      <point x="34" y="204" type="curve" smooth="yes"/>
      <point x="34" y="95"/>
      <point x="103" y="-14"/>
      <point x="213" y="-14" type="curve" smooth="yes"/>
      <point x="277" y="-14"/>
      <point x="321" y="30"/>
      <point x="340" y="63" type="curve"/>
      <point x="340" y="51" type="line" smooth="yes"/>
      <point x="340" y="34"/>
      <point x="335" y="4"/>
      <point x="335" y="-9" type="curve" smooth="yes"/>
      <point x="335" y="-12"/>
      <point x="343" y="-19"/>
    </contour>
    <contour>
      <point x="247" y="11" type="curve" smooth="yes"/>
      <point x="204" y="11"/>
      <point x="101" y="36"/>
      <point x="101" y="225" type="curve" smooth="yes"/>
      <point x="101" y="389"/>
      <point x="176" y="435"/>
      <point x="221" y="435" type="curve" smooth="yes"/>
      <point x="302" y="435"/>
      <point x="341" y="401"/>
      <point x="341" y="332" type="curve" smooth="yes"/>
      <point x="340" y="68" type="line"/>
      <point x="315" y="34"/>
      <point x="281" y="11"/>
    </contour>
  </outline>
</glyph>
<glyph name="e" format="1">
  <advance width="379"/>
  <unicode hex="0065"/>
  <outline>
    <contour>
      <point x="207" y="-15" type="curve" smooth="yes"/>
      <point x="262" y="-15"/>
      <point x="315" y="19"/>
      <point x="345" y="72" type="curve" smooth="yes"/>
      <point x="352" y="84"/>
      <point x="354" y="91"/>
      <point x="354" y="98" type="curve" smooth="yes"/>
      <point x="354" y="101"/>
      <point x="353" y="103"/>
      <point x="351" y="103" type="curve" smooth="yes"/>
      <point x="349" y="103"/>
      <point x="348" y="103"/>
      <point x="343" y="96" type="curve" smooth="yes"/>
      <point x="318" y="64"/>
      <point x="283" y="46"/>
      <point x="240" y="46" type="curve" smooth="yes"/>
      <point x="157" y="46"/>
      <point x="89" y="131"/>
      <point x="89" y="236" type="curve" smooth="yes"/>
      <point x="89" y="269"/>
      <point x="95" y="277"/>
      <point x="114" y="277" type="curve" smooth="yes"/>
      <point x="320" y="277" type="line" smooth="yes"/>
      <point x="341" y="277"/>
      <point x="350" y="288"/>
      <point x="350" y="310" type="curve" smooth="yes"/>
      <point x="350" y="389"/>
      <point x="295" y="444"/>
      <point x="217" y="444" type="curve" smooth="yes"/>
      <point x="114" y="444"/>
      <point x="29" y="342"/>
      <point x="29" y="218" type="curve" smooth="yes"/>
      <point x="29" y="78"/>
      <point x="100" y="-15"/>
    </contour>
    <contour>
      <point x="116" y="287" type="line" smooth="yes"/>
      <point x="108" y="287"/>
      <point x="104" y="291"/>
      <point x="104" y="302" type="curve" smooth="yes"/>
      <point x="104" y="366"/>
      <point x="156" y="436"/>
      <point x="203" y="436" type="curve" smooth="yes"/>
      <point x="250" y="436"/>
      <point x="288" y="388"/>
      <point x="288" y="328" type="curve" smooth="yes"/>
      <point x="288" y="307"/>
      <point x="286" y="296"/>
      <point x="281" y="295" type="curve" smooth="yes"/>
      <point x="259" y="288"/>
      <point x="239" y="287"/>
      <point x="207" y="287" type="curve" smooth="yes"/>
    </contour>
  </outline>
</glyph>
<glyph name="f" format="1">
  <advance width="308"/>
  <unicode hex="0066"/>
  <outline>
    <contour>
      <point x="43" y="-3" type="curve" smooth="yes"/>
      <point x="81" y="-3"/>
      <point x="90" y="2"/>
      <point x="123" y="2" type="curve" smooth="yes"/>
      <point x="157" y="2"/>
      <point x="183" y="-3"/>
      <point x="222" y="-3" type="curve" smooth="yes"/>
      <point x="234" y="-3"/>
      <point x="241" y="-2"/>
      <point x="241" y="0" type="curve" smooth="yes"/>
      <point x="241" y="4"/>
      <point x="232" y="5"/>
      <point x="218" y="5" type="curve" smooth="yes"/>
      <point x="165" y="9"/>
      <point x="154" y="13"/>
      <point x="154" y="34" type="curve" smooth="yes"/>
      <point x="154" y="415" type="line" smooth="yes"/>
      <point x="154" y="416"/>
      <point x="157" y="418"/>
      <point x="172" y="418" type="curve" smooth="yes"/>
      <point x="284" y="418" type="line" smooth="yes"/>
      <point x="287" y="418"/>
      <point x="291" y="418"/>
      <point x="293" y="419" type="curve" smooth="yes"/>
      <point x="297" y="421"/>
      <point x="299" y="423"/>
      <point x="299" y="425" type="curve" smooth="yes"/>
      <point x="299" y="426"/>
      <point x="293" y="430"/>
      <point x="286" y="430" type="curve" smooth="yes"/>
      <point x="164" y="430" type="line" smooth="yes"/>
      <point x="159" y="430"/>
      <point x="154" y="430"/>
      <point x="154" y="439" type="curve" smooth="yes"/>
      <point x="154" y="530" type="line" smooth="yes"/>
      <point x="154" y="592"/>
      <point x="202" y="635"/>
      <point x="250" y="635" type="curve" smooth="yes"/>
      <point x="288" y="635"/>
      <point x="313" y="617"/>
      <point x="340" y="578" type="curve" smooth="yes"/>
      <point x="349" y="565"/>
      <point x="362" y="555"/>
      <point x="374" y="555" type="curve" smooth="yes"/>
      <point x="392" y="555"/>
      <point x="407" y="567"/>
      <point x="407" y="595" type="curve" smooth="yes"/>
      <point x="407" y="629"/>
      <point x="365" y="655"/>
      <point x="294" y="655" type="curve" smooth="yes"/>
      <point x="209" y="655"/>
      <point x="88" y="608"/>
      <point x="88" y="450" type="curve" smooth="yes"/>
      <point x="88" y="436" type="line"/>
      <point x="68" y="433"/>
      <point x="54" y="431"/>
      <point x="30" y="428" type="curve" smooth="yes"/>
      <point x="28" y="427"/>
      <point x="24" y="427"/>
      <point x="24" y="426" type="curve" smooth="yes"/>
      <point x="24" y="424"/>
      <point x="33" y="418"/>
      <point x="37" y="418" type="curve"/>
      <point x="58" y="418"/>
      <point x="75" y="418"/>
      <point x="88" y="418" type="curve"/>
      <point x="88" y="34" type="line" smooth="yes"/>
      <point x="88" y="13"/>
      <point x="76" y="11"/>
      <point x="46" y="5" type="curve" smooth="yes"/>
      <point x="32" y="4"/>
      <point x="24" y="4"/>
      <point x="24" y="0" type="curve" smooth="yes"/>
      <point x="24" y="-2"/>
      <point x="30" y="-3"/>
    </contour>
  </outline>
</glyph>
<glyph name="g" format="1">
  <advance width="416"/>
  <unicode hex="0067"/>
  <outline>
    <contour>
      <point x="186" y="-213" type="curve" smooth="yes"/>
      <point x="291" y="-213"/>
      <point x="401" y="-124"/>
      <point x="401" y="-38" type="curve" smooth="yes"/>
      <point x="401" y="15"/>
      <point x="345" y="41"/>
      <point x="224" y="47" type="curve" smooth="yes"/>
      <point x="142" y="51"/>
      <point x="99" y="64"/>
      <point x="99" y="86" type="curve" smooth="yes"/>
      <point x="99" y="98"/>
      <point x="116" y="114"/>
      <point x="136" y="123" type="curve"/>
      <point x="138" y="137" type="line"/>
      <point x="124" y="123"/>
      <point x="121" y="121"/>
      <point x="66" y="93" type="curve" smooth="yes"/>
      <point x="47" y="82"/>
      <point x="38" y="73"/>
      <point x="38" y="62" type="curve" smooth="yes"/>
      <point x="38" y="8"/>
      <point x="77" y="-5"/>
      <point x="198" y="-15" type="curve" smooth="yes"/>
      <point x="311" y="-24"/>
      <point x="343" y="-39"/>
      <point x="344" y="-76" type="curve" smooth="yes"/>
      <point x="344" y="-115"/>
      <point x="324" y="-150"/>
      <point x="293" y="-170" type="curve" smooth="yes"/>
      <point x="270" y="-186"/>
      <point x="239" y="-194"/>
      <point x="199" y="-194" type="curve" smooth="yes"/>
      <point x="134" y="-194"/>
      <point x="81" y="-159"/>
      <point x="81" y="-114" type="curve" smooth="yes"/>
      <point x="81" y="-68"/>
      <point x="98" y="-39"/>
      <point x="144" y="-4" type="curve"/>
      <point x="141" y="4" type="line"/>
      <point x="105" y="-18"/>
      <point x="68" y="-40"/>
      <point x="47" y="-53" type="curve" smooth="yes"/>
      <point x="20" y="-67"/>
      <point x="11" y="-86"/>
      <point x="11" y="-114" type="curve" smooth="yes"/>
      <point x="11" y="-175"/>
      <point x="78" y="-213"/>
    </contour>
    <contour>
      <point x="198" y="113" type="curve" smooth="yes"/>
      <point x="143" y="113"/>
      <point x="105" y="173"/>
      <point x="105" y="284" type="curve" smooth="yes"/>
      <point x="105" y="375"/>
      <point x="146" y="439"/>
      <point x="191" y="439" type="curve" smooth="yes"/>
      <point x="244" y="439"/>
      <point x="284" y="394"/>
      <point x="284" y="292" type="curve" smooth="yes"/>
      <point x="284" y="181"/>
      <point x="253" y="113"/>
    </contour>
    <contour>
      <point x="192" y="106" type="curve" smooth="yes"/>
      <point x="277" y="106"/>
      <point x="345" y="200"/>
      <point x="345" y="313" type="curve" smooth="yes"/>
      <point x="345" y="340"/>
      <point x="348" y="368"/>
      <point x="351" y="383" type="curve" smooth="yes"/>
      <point x="352" y="392"/>
      <point x="362" y="397"/>
      <point x="379" y="397" type="curve" smooth="yes"/>
      <point x="405" y="397" type="line"/>
      <point x="407" y="397"/>
      <point x="410" y="398"/>
      <point x="413" y="399" type="curve" smooth="yes"/>
      <point x="419" y="401"/>
      <point x="422" y="402"/>
      <point x="422" y="407" type="curve" smooth="yes"/>
      <point x="422" y="409"/>
      <point x="417" y="413"/>
      <point x="410" y="413" type="curve" smooth="yes"/>
      <point x="400" y="413"/>
      <point x="373" y="412"/>
      <point x="357" y="412" type="curve" smooth="yes"/>
      <point x="338" y="412"/>
      <point x="324" y="413"/>
      <point x="293" y="423" type="curve" smooth="yes"/>
      <point x="266" y="431"/>
      <point x="241" y="446"/>
      <point x="204" y="446" type="curve" smooth="yes"/>
      <point x="117" y="446"/>
      <point x="37" y="374"/>
      <point x="37" y="273" type="curve" smooth="yes"/>
      <point x="37" y="182"/>
      <point x="112" y="106"/>
    </contour>
  </outline>
</glyph>
<glyph name="h" format="1">
  <advance width="497"/>
  <unicode hex="0068"/>
  <outline>
    <contour>
      <point x="38" y="-3" type="curve" smooth="yes"/>
      <point x="76" y="-3"/>
      <point x="82" y="-2"/>
      <point x="116" y="-2" type="curve" smooth="yes"/>
      <point x="149" y="-2"/>
      <point x="150" y="-3"/>
      <point x="188" y="-3" type="curve" smooth="yes"/>
      <point x="203" y="-3"/>
      <point x="208" y="-2"/>
      <point x="208" y="1" type="curve" smooth="yes"/>
      <point x="208" y="3"/>
      <point x="200" y="4"/>
      <point x="187" y="5" type="curve" smooth="yes"/>
      <point x="167" y="8"/>
      <point x="148" y="10"/>
      <point x="149" y="18" type="curve" smooth="yes"/>
      <point x="149" y="316" type="line" smooth="yes"/>
      <point x="149" y="357"/>
      <point x="155" y="371"/>
      <point x="175" y="388" type="curve" smooth="yes"/>
      <point x="194" y="403"/>
      <point x="231" y="410"/>
      <point x="256" y="410" type="curve" smooth="yes"/>
      <point x="298" y="410"/>
      <point x="346" y="370"/>
      <point x="346" y="320" type="curve" smooth="yes"/>
      <point x="346" y="20" type="line" smooth="yes"/>
      <point x="346" y="12"/>
      <point x="327" y="8"/>
      <point x="308" y="5" type="curve" smooth="yes"/>
      <point x="293" y="4"/>
      <point x="285" y="3"/>
      <point x="285" y="1" type="curve" smooth="yes"/>
      <point x="285" y="-2"/>
      <point x="291" y="-3"/>
      <point x="305" y="-3" type="curve" smooth="yes"/>
      <point x="343" y="-3"/>
      <point x="346" y="-2"/>
      <point x="380" y="-2" type="curve" smooth="yes"/>
      <point x="413" y="-2"/>
      <point x="416" y="-3"/>
      <point x="454" y="-3" type="curve" smooth="yes"/>
      <point x="468" y="-3"/>
      <point x="474" y="-2"/>
      <point x="474" y="1" type="curve" smooth="yes"/>
      <point x="474" y="3"/>
      <point x="465" y="4"/>
      <point x="452" y="5" type="curve" smooth="yes"/>
      <point x="432" y="8"/>
      <point x="412" y="12"/>
      <point x="412" y="20" type="curve" smooth="yes"/>
      <point x="412" y="308" type="line" smooth="yes"/>
      <point x="412" y="386"/>
      <point x="364" y="444"/>
      <point x="302" y="444" type="curve" smooth="yes"/>
      <point x="230" y="444"/>
      <point x="165" y="389"/>
      <point x="141" y="371" type="curve"/>
      <point x="157" y="378" type="line"/>
      <point x="151" y="389"/>
      <point x="149" y="394"/>
      <point x="149" y="418" type="curve" smooth="yes"/>
      <point x="149" y="511" type="line" smooth="yes"/>
      <point x="149" y="618"/>
      <point x="157" y="635"/>
      <point x="157" y="647" type="curve" smooth="yes"/>
      <point x="157" y="651"/>
      <point x="154" y="654"/>
      <point x="150" y="654" type="curve" smooth="yes"/>
      <point x="148" y="654"/>
      <point x="146" y="653"/>
      <point x="144" y="652" type="curve" smooth="yes"/>
      <point x="114" y="637"/>
      <point x="66" y="622"/>
      <point x="39" y="619" type="curve" smooth="yes"/>
      <point x="33" y="619"/>
      <point x="31" y="617"/>
      <point x="31" y="615" type="curve" smooth="yes"/>
      <point x="31" y="613"/>
      <point x="34" y="611"/>
      <point x="40" y="611" type="curve" smooth="yes"/>
      <point x="73" y="609"/>
      <point x="83" y="599"/>
      <point x="83" y="588" type="curve" smooth="yes"/>
      <point x="83" y="18" type="line" smooth="yes"/>
      <point x="83" y="10"/>
      <point x="60" y="8"/>
      <point x="41" y="5" type="curve" smooth="yes"/>
      <point x="24" y="4"/>
      <point x="18" y="3"/>
      <point x="18" y="1" type="curve" smooth="yes"/>
      <point x="18" y="-2"/>
      <point x="26" y="-3"/>
    </contour>
  </outline>
</glyph>
<glyph name="i" format="1">
  <advance width="237"/>
  <unicode hex="0069"/>
  <outline>
    <contour>
      <point x="43" y="-3" type="curve" smooth="yes"/>
      <point x="80" y="-3"/>
      <point x="87" y="2"/>
      <point x="121" y="2" type="curve" smooth="yes"/>
      <point x="155" y="2"/>
      <point x="162" y="-3"/>
      <point x="199" y="-3" type="curve" smooth="yes"/>
      <point x="211" y="-3"/>
      <point x="218" y="0"/>
      <point x="218" y="1" type="curve" smooth="yes"/>
      <point x="218" y="3"/>
      <point x="206" y="6"/>
      <point x="196" y="7" type="curve" smooth="yes"/>
      <point x="169" y="10"/>
      <point x="154" y="13"/>
      <point x="154" y="28" type="curve" smooth="yes"/>
      <point x="154" y="320" type="line" smooth="yes"/>
      <point x="154" y="365"/>
      <point x="162" y="439"/>
      <point x="162" y="455" type="curve" smooth="yes"/>
      <point x="162" y="458"/>
      <point x="160" y="460"/>
      <point x="156" y="460" type="curve" smooth="yes"/>
      <point x="152" y="460"/>
      <point x="148" y="457"/>
      <point x="143" y="452" type="curve" smooth="yes"/>
      <point x="126" y="435"/>
      <point x="100" y="407"/>
      <point x="43" y="392" type="curve" smooth="yes"/>
      <point x="37" y="390"/>
      <point x="34" y="390"/>
      <point x="34" y="388" type="curve" smooth="yes"/>
      <point x="34" y="385"/>
      <point x="37" y="383"/>
      <point x="44" y="382" type="curve" smooth="yes"/>
      <point x="77" y="378"/>
      <point x="88" y="355"/>
      <point x="88" y="330" type="curve" smooth="yes"/>
      <point x="88" y="28" type="line" smooth="yes"/>
      <point x="88" y="13"/>
      <point x="73" y="10"/>
      <point x="46" y="7" type="curve" smooth="yes"/>
      <point x="35" y="6"/>
      <point x="23" y="3"/>
      <point x="23" y="1" type="curve" smooth="yes"/>
      <point x="23" y="0"/>
      <point x="31" y="-3"/>
    </contour>
    <contour>
      <point x="120" y="541" type="curve" smooth="yes"/>
      <point x="148" y="541"/>
      <point x="169" y="562"/>
      <point x="169" y="589" type="curve" smooth="yes"/>
      <point x="169" y="617"/>
      <point x="148" y="638"/>
      <point x="120" y="638" type="curve" smooth="yes"/>
      <point x="93" y="638"/>
      <point x="72" y="617"/>
      <point x="72" y="589" type="curve" smooth="yes"/>
      <point x="72" y="562"/>
      <point x="93" y="541"/>
    </contour>
  </outline>
</glyph>
<glyph name="j" format="1">
  <advance width="219"/>
  <unicode hex="006A"/>
  <outline>
    <contour>
      <point x="-8" y="-206" type="curve" smooth="yes"/>
      <point x="40" y="-206"/>
      <point x="100" y="-139"/>
      <point x="124" y="-71" type="curve" smooth="yes"/>
      <point x="152" y="9"/>
      <point x="153" y="110"/>
      <point x="153" y="172" type="curve" smooth="yes"/>
      <point x="153" y="301" type="line" smooth="yes"/>
      <point x="153" y="346"/>
      <point x="156" y="414"/>
      <point x="160" y="455" type="curve"/>
      <point x="160" y="458"/>
      <point x="157" y="460"/>
      <point x="153" y="460" type="curve" smooth="yes"/>
      <point x="151" y="460"/>
      <point x="145" y="453"/>
      <point x="139" y="448" type="curve" smooth="yes"/>
      <point x="123" y="435"/>
      <point x="105" y="411"/>
      <point x="42" y="391" type="curve" smooth="yes"/>
      <point x="38" y="390"/>
      <point x="35" y="389"/>
      <point x="35" y="387" type="curve" smooth="yes"/>
      <point x="35" y="385"/>
      <point x="38" y="383"/>
      <point x="43" y="383" type="curve" smooth="yes"/>
      <point x="76" y="383"/>
      <point x="87" y="358"/>
      <point x="87" y="334" type="curve" smooth="yes"/>
      <point x="87" y="104" type="line" smooth="yes"/>
      <point x="87" y="35"/>
      <point x="84" y="-101"/>
      <point x="56" y="-162" type="curve" smooth="yes"/>
      <point x="37" y="-202"/>
      <point x="15" y="-150"/>
      <point x="-25" y="-160" type="curve"/>
      <point x="-29" y="-161"/>
      <point x="-44" y="-175"/>
      <point x="-44" y="-189" type="curve" smooth="yes"/>
      <point x="-44" y="-201"/>
      <point x="-20" y="-206"/>
    </contour>
    <contour>
      <point x="113" y="541" type="curve" smooth="yes"/>
      <point x="141" y="541"/>
      <point x="162" y="562"/>
      <point x="162" y="589" type="curve" smooth="yes"/>
      <point x="162" y="617"/>
      <point x="141" y="638"/>
      <point x="113" y="638" type="curve" smooth="yes"/>
      <point x="86" y="638"/>
      <point x="65" y="617"/>
      <point x="65" y="589" type="curve" smooth="yes"/>
      <point x="65" y="562"/>
      <point x="86" y="541"/>
    </contour>
  </outline>
</glyph>
<glyph name="k" format="1">
  <advance width="455"/>
  <unicode hex="006B"/>
  <outline>
    <contour>
      <point x="41" y="-3" type="curve" smooth="yes"/>
      <point x="78" y="-3"/>
      <point x="82" y="2"/>
      <point x="116" y="2" type="curve" smooth="yes"/>
      <point x="150" y="2"/>
      <point x="146" y="-3"/>
      <point x="183" y="-3" type="curve" smooth="yes"/>
      <point x="188" y="-3"/>
      <point x="205" y="-3"/>
      <point x="205" y="1" type="curve" smooth="yes"/>
      <point x="205" y="4"/>
      <point x="194" y="5"/>
      <point x="183" y="6" type="curve" smooth="yes"/>
      <point x="158" y="8"/>
      <point x="149" y="8"/>
      <point x="149" y="37" type="curve" smooth="yes"/>
      <point x="148" y="88"/>
      <point x="148" y="112"/>
      <point x="148" y="135" type="curve" smooth="yes"/>
      <point x="148" y="158"/>
      <point x="148" y="196"/>
      <point x="149" y="215" type="curve"/>
      <point x="149" y="220"/>
      <point x="151" y="222"/>
      <point x="154" y="222" type="curve" smooth="yes"/>
      <point x="158" y="222"/>
      <point x="160" y="220"/>
      <point x="163" y="215" type="curve" smooth="yes"/>
      <point x="314" y="35" type="line"/>
      <point x="319" y="29"/>
      <point x="322" y="23"/>
      <point x="322" y="19" type="curve" smooth="yes"/>
      <point x="322" y="11"/>
      <point x="306" y="7"/>
      <point x="265" y="7" type="curve" smooth="yes"/>
      <point x="256" y="7"/>
      <point x="249" y="4"/>
      <point x="249" y="2" type="curve" smooth="yes"/>
      <point x="249" y="1"/>
      <point x="253" y="0"/>
      <point x="267" y="0" type="curve" smooth="yes"/>
      <point x="332" y="0"/>
      <point x="396" y="-3"/>
      <point x="446" y="-3" type="curve" smooth="yes"/>
      <point x="458" y="-3"/>
      <point x="465" y="-2"/>
      <point x="465" y="1" type="curve" smooth="yes"/>
      <point x="465" y="2"/>
      <point x="461" y="4"/>
      <point x="452" y="4" type="curve" smooth="yes"/>
      <point x="435" y="4"/>
      <point x="425" y="12"/>
      <point x="393" y="42" type="curve" smooth="yes"/>
      <point x="369" y="63"/>
      <point x="261" y="191"/>
      <point x="207" y="247" type="curve" smooth="yes"/>
      <point x="206" y="249"/>
      <point x="205" y="252"/>
      <point x="205" y="254" type="curve" smooth="yes"/>
      <point x="205" y="257"/>
      <point x="207" y="260"/>
      <point x="210" y="264" type="curve" smooth="yes"/>
      <point x="255" y="313"/>
      <point x="319" y="371"/>
      <point x="345" y="390" type="curve" smooth="yes"/>
      <point x="369" y="408"/>
      <point x="387" y="416"/>
      <point x="411" y="421" type="curve" smooth="yes"/>
      <point x="425" y="424"/>
      <point x="436" y="426"/>
      <point x="436" y="429" type="curve" smooth="yes"/>
      <point x="436" y="433"/>
      <point x="431" y="433"/>
      <point x="422" y="433" type="curve" smooth="yes"/>
      <point x="401" y="433"/>
      <point x="364" y="430"/>
      <point x="334" y="430" type="curve" smooth="yes"/>
      <point x="286" y="430" type="line" smooth="yes"/>
      <point x="272" y="430"/>
      <point x="265" y="428"/>
      <point x="265" y="426" type="curve" smooth="yes"/>
      <point x="265" y="425"/>
      <point x="268" y="423"/>
      <point x="276" y="423" type="curve" smooth="yes"/>
      <point x="310" y="423"/>
      <point x="323" y="416"/>
      <point x="323" y="403" type="curve" smooth="yes"/>
      <point x="323" y="397"/>
      <point x="321" y="392"/>
      <point x="316" y="387" type="curve" smooth="yes"/>
      <point x="273" y="344"/>
      <point x="230" y="299"/>
      <point x="189" y="254" type="curve" smooth="yes"/>
      <point x="174" y="239"/>
      <point x="161" y="231"/>
      <point x="154" y="231" type="curve" smooth="yes"/>
      <point x="151" y="231"/>
      <point x="149" y="234"/>
      <point x="149" y="240" type="curve" smooth="yes"/>
      <point x="149" y="511" type="line" smooth="yes"/>
      <point x="149" y="596"/>
      <point x="158" y="631"/>
      <point x="158" y="645" type="curve" smooth="yes"/>
      <point x="158" y="651"/>
      <point x="157" y="654"/>
      <point x="153" y="654" type="curve" smooth="yes"/>
      <point x="150" y="654"/>
      <point x="140" y="651"/>
      <point x="135" y="648" type="curve" smooth="yes"/>
      <point x="110" y="631"/>
      <point x="64" y="624"/>
      <point x="38" y="619" type="curve" smooth="yes"/>
      <point x="33" y="618"/>
      <point x="30" y="618"/>
      <point x="30" y="614" type="curve" smooth="yes"/>
      <point x="30" y="611"/>
      <point x="33" y="611"/>
      <point x="39" y="611" type="curve" smooth="yes"/>
      <point x="89" y="608"/>
      <point x="83" y="599"/>
      <point x="83" y="560" type="curve" smooth="yes"/>
      <point x="83" y="31" type="line" smooth="yes"/>
      <point x="83" y="11"/>
      <point x="75" y="9"/>
      <point x="41" y="6" type="curve" smooth="yes"/>
      <point x="30" y="5"/>
      <point x="18" y="4"/>
      <point x="18" y="1" type="curve" smooth="yes"/>
      <point x="18" y="-2"/>
      <point x="26" y="-3"/>
    </contour>
  </outline>
</glyph>
<glyph name="l" format="1">
  <advance width="232"/>
  <unicode hex="006C"/>
  <outline>
    <contour>
      <point x="38" y="-3" type="curve" smooth="yes"/>
      <point x="76" y="-3"/>
      <point x="82" y="2"/>
      <point x="116" y="2" type="curve" smooth="yes"/>
      <point x="150" y="2"/>
      <point x="156" y="-3"/>
      <point x="194" y="-3" type="curve" smooth="yes"/>
      <point x="201" y="-3"/>
      <point x="213" y="-3"/>
      <point x="213" y="1" type="curve" smooth="yes"/>
      <point x="213" y="4"/>
      <point x="202" y="6"/>
      <point x="191" y="8" type="curve"/>
      <point x="171" y="10"/>
      <point x="149" y="11"/>
      <point x="149" y="31" type="curve" smooth="yes"/>
      <point x="149" y="511" type="line" smooth="yes"/>
      <point x="149" y="601"/>
      <point x="156" y="635"/>
      <point x="156" y="647" type="curve" smooth="yes"/>
      <point x="156" y="650"/>
      <point x="154" y="654"/>
      <point x="151" y="654" type="curve" smooth="yes"/>
      <point x="149" y="654"/>
      <point x="147" y="653"/>
      <point x="145" y="652" type="curve" smooth="yes"/>
      <point x="114" y="625"/>
      <point x="85" y="613"/>
      <point x="42" y="608" type="curve" smooth="yes"/>
      <point x="33" y="607"/>
      <point x="30" y="605"/>
      <point x="30" y="602" type="curve" smooth="yes"/>
      <point x="30" y="598"/>
      <point x="33" y="598"/>
      <point x="45" y="596" type="curve" smooth="yes"/>
      <point x="75" y="591"/>
      <point x="83" y="575"/>
      <point x="83" y="548" type="curve" smooth="yes"/>
      <point x="83" y="30" type="line" smooth="yes"/>
      <point x="83" y="11"/>
      <point x="61" y="10"/>
      <point x="41" y="8" type="curve"/>
      <point x="30" y="6"/>
      <point x="19" y="4"/>
      <point x="19" y="1" type="curve" smooth="yes"/>
      <point x="19" y="-3"/>
      <point x="31" y="-3"/>
    </contour>
  </outline>
</glyph>
<glyph name="m" format="1">
  <advance width="752"/>
  <unicode hex="006D"/>
  <outline>
    <contour>
      <point x="43" y="-3" type="curve" smooth="yes"/>
      <point x="81" y="-3"/>
      <point x="87" y="2"/>
      <point x="121" y="2" type="curve" smooth="yes"/>
      <point x="155" y="2"/>
      <point x="160" y="-3"/>
      <point x="199" y="-3" type="curve" smooth="yes"/>
      <point x="210" y="-3"/>
      <point x="218" y="-2"/>
      <point x="218" y="0" type="curve" smooth="yes"/>
      <point x="218" y="3"/>
      <point x="206" y="4"/>
      <point x="196" y="5" type="curve" smooth="yes"/>
      <point x="176" y="7"/>
      <point x="154" y="6"/>
      <point x="154" y="19" type="curve" smooth="yes"/>
      <point x="154" y="298" type="line" smooth="yes"/>
      <point x="154" y="341"/>
      <point x="161" y="368"/>
      <point x="180" y="385" type="curve" smooth="yes"/>
      <point x="205" y="410"/>
      <point x="232" y="422"/>
      <point x="265" y="422" type="curve" smooth="yes"/>
      <point x="307" y="422"/>
      <point x="343" y="363"/>
      <point x="343" y="303" type="curve" smooth="yes"/>
      <point x="343" y="19" type="line" smooth="yes"/>
      <point x="343" y="6"/>
      <point x="319" y="7"/>
      <point x="300" y="5" type="curve" smooth="yes"/>
      <point x="289" y="4"/>
      <point x="277" y="3"/>
      <point x="277" y="0" type="curve" smooth="yes"/>
      <point x="277" y="-2"/>
      <point x="286" y="-3"/>
      <point x="297" y="-3" type="curve" smooth="yes"/>
      <point x="335" y="-3"/>
      <point x="343" y="2"/>
      <point x="377" y="2" type="curve" smooth="yes"/>
      <point x="410" y="2"/>
      <point x="417" y="-3"/>
      <point x="456" y="-3" type="curve" smooth="yes"/>
      <point x="468" y="-3"/>
      <point x="475" y="-2"/>
      <point x="475" y="0" type="curve" smooth="yes"/>
      <point x="475" y="3"/>
      <point x="465" y="4"/>
      <point x="453" y="5" type="curve" smooth="yes"/>
      <point x="433" y="6"/>
      <point x="409" y="6"/>
      <point x="409" y="19" type="curve" smooth="yes"/>
      <point x="409" y="298" type="line" smooth="yes"/>
      <point x="409" y="342"/>
      <point x="418" y="368"/>
      <point x="436" y="385" type="curve" smooth="yes"/>
      <point x="460" y="410"/>
      <point x="488" y="422"/>
      <point x="521" y="422" type="curve" smooth="yes"/>
      <point x="563" y="422"/>
      <point x="599" y="363"/>
      <point x="599" y="303" type="curve" smooth="yes"/>
      <point x="599" y="19" type="line" smooth="yes"/>
      <point x="599" y="6"/>
      <point x="577" y="6"/>
      <point x="557" y="5" type="curve" smooth="yes"/>
      <point x="544" y="4"/>
      <point x="534" y="3"/>
      <point x="534" y="0" type="curve" smooth="yes"/>
      <point x="534" y="-2"/>
      <point x="542" y="-3"/>
      <point x="554" y="-3" type="curve" smooth="yes"/>
      <point x="592" y="-3"/>
      <point x="600" y="2"/>
      <point x="634" y="2" type="curve" smooth="yes"/>
      <point x="667" y="2"/>
      <point x="671" y="-3"/>
      <point x="710" y="-3" type="curve" smooth="yes"/>
      <point x="724" y="-3"/>
      <point x="729" y="-2"/>
      <point x="729" y="0" type="curve" smooth="yes"/>
      <point x="729" y="3"/>
      <point x="719" y="4"/>
      <point x="707" y="5" type="curve" smooth="yes"/>
      <point x="687" y="7"/>
      <point x="664" y="6"/>
      <point x="664" y="19" type="curve" smooth="yes"/>
      <point x="664" y="305" type="line" smooth="yes"/>
      <point x="664" y="375"/>
      <point x="630" y="444"/>
      <point x="568" y="444" type="curve" smooth="yes"/>
      <point x="505" y="444"/>
      <point x="452" y="413"/>
      <point x="410" y="375" type="curve"/>
      <point x="408" y="375" type="line"/>
      <point x="387" y="426"/>
      <point x="357" y="444"/>
      <point x="311" y="444" type="curve" smooth="yes"/>
      <point x="237" y="444"/>
      <point x="189" y="407"/>
      <point x="160" y="378" type="curve"/>
      <point x="158" y="378" type="line"/>
      <point x="157" y="379"/>
      <point x="157" y="384"/>
      <point x="157" y="390" type="curve" smooth="yes"/>
      <point x="157" y="409"/>
      <point x="161" y="444"/>
      <point x="161" y="453" type="curve" smooth="yes"/>
      <point x="161" y="457"/>
      <point x="160" y="460"/>
      <point x="159" y="460" type="curve" smooth="yes"/>
      <point x="157" y="460"/>
      <point x="155" y="457"/>
      <point x="152" y="455" type="curve" smooth="yes"/>
      <point x="127" y="424"/>
      <point x="106" y="406"/>
      <point x="50" y="395" type="curve" smooth="yes"/>
      <point x="45" y="394"/>
      <point x="42" y="394"/>
      <point x="42" y="392" type="curve" smooth="yes"/>
      <point x="42" y="387"/>
      <point x="46" y="387"/>
      <point x="52" y="386" type="curve" smooth="yes"/>
      <point x="81" y="383"/>
      <point x="88" y="368"/>
      <point x="88" y="332" type="curve" smooth="yes"/>
      <point x="88" y="19" type="line" smooth="yes"/>
      <point x="88" y="6"/>
      <point x="64" y="7"/>
      <point x="46" y="5" type="curve" smooth="yes"/>
      <point x="33" y="4"/>
      <point x="23" y="3"/>
      <point x="23" y="0" type="curve" smooth="yes"/>
      <point x="23" y="-2"/>
      <point x="32" y="-3"/>
    </contour>
  </outline>
</glyph>
<glyph name="n" format="1">
  <advance width="510"/>
  <unicode hex="006E"/>
  <outline>
    <contour>
      <point x="43" y="-3" type="curve" smooth="yes"/>
      <point x="81" y="-3"/>
      <point x="87" y="-2"/>
      <point x="121" y="-2" type="curve" smooth="yes"/>
      <point x="155" y="-2"/>
      <point x="160" y="-3"/>
      <point x="199" y="-3" type="curve" smooth="yes"/>
      <point x="211" y="-3"/>
      <point x="218" y="-2"/>
      <point x="218" y="0" type="curve" smooth="yes"/>
      <point x="218" y="1"/>
      <point x="211" y="2"/>
      <point x="196" y="3" type="curve" smooth="yes"/>
      <point x="176" y="4"/>
      <point x="154" y="6"/>
      <point x="154" y="12" type="curve" smooth="yes"/>
      <point x="154" y="350" type="line" smooth="yes"/>
      <point x="154" y="359"/>
      <point x="157" y="371"/>
      <point x="161" y="377" type="curve" smooth="yes"/>
      <point x="184" y="406"/>
      <point x="223" y="422"/>
      <point x="269" y="422" type="curve" smooth="yes"/>
      <point x="322" y="422"/>
      <point x="357" y="381"/>
      <point x="357" y="315" type="curve" smooth="yes"/>
      <point x="357" y="12" type="line" smooth="yes"/>
      <point x="357" y="6"/>
      <point x="335" y="5"/>
      <point x="315" y="3" type="curve" smooth="yes"/>
      <point x="304" y="2"/>
      <point x="293" y="1"/>
      <point x="293" y="-1" type="curve" smooth="yes"/>
      <point x="293" y="-3"/>
      <point x="305" y="-3"/>
      <point x="312" y="-3" type="curve" smooth="yes"/>
      <point x="350" y="-3"/>
      <point x="357" y="-2"/>
      <point x="391" y="-2" type="curve" smooth="yes"/>
      <point x="425" y="-2"/>
      <point x="429" y="-3"/>
      <point x="468" y="-3" type="curve" smooth="yes"/>
      <point x="476" y="-3"/>
      <point x="487" y="-3"/>
      <point x="487" y="-1" type="curve" smooth="yes"/>
      <point x="487" y="1"/>
      <point x="476" y="2"/>
      <point x="465" y="3" type="curve"/>
      <point x="445" y="5"/>
      <point x="423" y="6"/>
      <point x="423" y="12" type="curve" smooth="yes"/>
      <point x="423" y="318" type="line" smooth="yes"/>
      <point x="423" y="388"/>
      <point x="376" y="443"/>
      <point x="314" y="443" type="curve" smooth="yes"/>
      <point x="253" y="443"/>
      <point x="204" y="423"/>
      <point x="158" y="383" type="curve"/>
      <point x="157" y="392"/>
      <point x="157" y="396"/>
      <point x="157" y="402" type="curve" smooth="yes"/>
      <point x="157" y="421"/>
      <point x="161" y="443"/>
      <point x="161" y="452" type="curve" smooth="yes"/>
      <point x="161" y="456"/>
      <point x="159" y="460"/>
      <point x="156" y="460" type="curve" smooth="yes"/>
      <point x="152" y="460"/>
      <point x="149" y="458"/>
      <point x="146" y="454" type="curve" smooth="yes"/>
      <point x="119" y="430"/>
      <point x="93" y="409"/>
      <point x="48" y="396" type="curve" smooth="yes"/>
      <point x="44" y="395"/>
      <point x="42" y="394"/>
      <point x="42" y="393" type="curve" smooth="yes"/>
      <point x="42" y="391"/>
      <point x="43" y="390"/>
      <point x="48" y="389" type="curve" smooth="yes"/>
      <point x="85" y="381"/>
      <point x="88" y="347"/>
      <point x="88" y="308" type="curve" smooth="yes"/>
      <point x="88" y="12" type="line" smooth="yes"/>
      <point x="88" y="6"/>
      <point x="65" y="4"/>
      <point x="46" y="3" type="curve" smooth="yes"/>
      <point x="31" y="2"/>
      <point x="23" y="2"/>
      <point x="23" y="0" type="curve" smooth="yes"/>
      <point x="23" y="-2"/>
      <point x="31" y="-3"/>
    </contour>
  </outline>
</glyph>
<glyph name="o" format="1">
  <advance width="475"/>
  <unicode hex="006F"/>
  <outline>
    <contour>
      <point x="225" y="-14" type="curve" smooth="yes"/>
      <point x="353" y="-14"/>
      <point x="441" y="83"/>
      <point x="441" y="229" type="curve" smooth="yes"/>
      <point x="441" y="348"/>
      <point x="352" y="444"/>
      <point x="244" y="444" type="curve" smooth="yes"/>
      <point x="132" y="444"/>
      <point x="34" y="331"/>
      <point x="34" y="201" type="curve" smooth="yes"/>
      <point x="34" y="77"/>
      <point x="115" y="-14"/>
    </contour>
    <contour>
      <point x="245" y="-4" type="curve" smooth="yes"/>
      <point x="171" y="-4"/>
      <point x="111" y="98"/>
      <point x="111" y="227" type="curve" smooth="yes"/>
      <point x="111" y="365"/>
      <point x="149" y="433"/>
      <point x="227" y="433" type="curve" smooth="yes"/>
      <point x="303" y="433"/>
      <point x="364" y="332"/>
      <point x="364" y="202" type="curve" smooth="yes"/>
      <point x="364" y="58"/>
      <point x="328" y="-4"/>
    </contour>
  </outline>
</glyph>
